<?xml version="1.0" encoding="UTF-8"?>
<!DOCTYPE svg PUBLIC "-//W3C//DTD SVG 1.1//EN" "http://www.w3.org/Graphics/SVG/1.1/DTD/svg11.dtd">
<!-- Creator: CorelDRAW 2021 (64-Bit) -->
<svg xmlns="http://www.w3.org/2000/svg" xml:space="preserve" width="1080px" height="684px" version="1.1" style="shape-rendering:geometricPrecision; text-rendering:geometricPrecision; image-rendering:optimizeQuality; fill-rule:evenodd; clip-rule:evenodd"
viewBox="0 0 108000 68400"
 xmlns:xlink="http://www.w3.org/1999/xlink"
 xmlns:xodm="http://www.corel.com/coreldraw/odm/2003">
 <defs>
  <style type="text/css">
   <![CDATA[
    .fil1 {fill:#003399;fill-rule:nonzero}
    .fil0 {fill:#CC9933;fill-rule:nonzero}
   ]]>
  </style>
 </defs>
 <g id="Слой_x0020_1">
  <metadata id="CorelCorpID_0Corel-Layer"/>
  <polygon class="fil0" points="18444.8,18835.3 24619.4,18835.3 24619.4,26605.2 23045.9,26605.2 23045.9,20148.4 20018.3,20148.4 20018.3,26605.2 18444.8,26605.2 "/>
  <path id="_1" class="fil0" d="M26169.4 20973.1l1389.1 0 0 826.6c180.8,-282.2 423.2,-510.1 730.6,-685.5 307.5,-173.6 649.3,-260.4 1023.7,-260.4 652.9,0 1208.1,256.8 1663.9,770.4 455.8,511.9 683.7,1228.1 683.7,2143.3 0,942.2 -229.7,1672.9 -689.1,2195.6 -459.4,522.7 -1016.4,783.1 -1671.2,783.1 -311.1,0 -593.2,-61.5 -846.4,-186.3 -251.4,-122.9 -519.1,-334.6 -797.6,-634.8l0 2817.8 -1486.7 0 0 -7769.8zm1465 2729.2c0,634.9 124.8,1103.3 376.2,1407.1 249.6,302.1 555.2,454 913.4,454 345.4,0 633,-139.3 862.7,-417.8 229.6,-278.5 343.6,-734.3 343.6,-1369.1 0,-593.2 -117.6,-1032.7 -354.5,-1320.3 -235.1,-287.6 -528.1,-430.5 -877.2,-430.5 -363.5,0 -665.6,141.1 -904.3,423.2 -240.5,282.2 -359.9,700 -359.9,1253.4z"/>
  <path id="_2" class="fil0" d="M32494.2 23720.4c0,-495.6 121.1,-974.8 365.3,-1437.8 244.2,-464.8 589.6,-817.5 1036.3,-1061.7 446.8,-244.2 944.1,-367.1 1495.8,-367.1 851.8,0 1548.1,276.7 2092.5,830.1 544.4,555.3 815.7,1253.4 815.7,2099.8 0,853.7 -274.9,1560.9 -822.9,2121.5 -549.8,560.7 -1240.7,841 -2074.5,841 -515.4,0 -1007.4,-117.5 -1475.8,-350.8 -466.6,-233.3 -822.9,-575.2 -1067.1,-1027.3 -244.2,-450.4 -365.3,-1000.2 -365.3,-1647.7zm1530.1 79.6c0,558.8 132,987.5 396,1284.1 265.9,298.4 591.5,446.7 980.3,446.7 387.1,0 712.6,-148.3 974.8,-446.7 262.3,-296.6 394.3,-728.9 394.3,-1295 0,-551.6 -132,-976.6 -394.3,-1273.2 -262.2,-298.5 -587.7,-446.7 -974.8,-446.7 -388.8,0 -714.4,148.2 -980.3,446.7 -264,296.6 -396,725.2 -396,1284.1z"/>
  <path id="_3" class="fil0" d="M39426.6 20973.1l1432.4 0 0 3539.5 2289.7 -3539.5 1465 0 0 5632.1 -1432.4 0 0 -3590.1 -2322.3 3590.1 -1432.4 0 0 -5632.1zm3548.5 -2268l727.1 0c-41.6,479.3 -211.6,857.3 -506.4,1130.4 -294.8,273.1 -676.5,410.6 -1144.9,410.6 -470.2,0 -851.8,-137.5 -1146.7,-410.6 -294.8,-273.1 -464.8,-651.1 -506.4,-1130.4l727.1 0c25.3,249.6 112.1,439.5 264,567.9 152,128.4 372.6,191.7 662,191.7 287.6,0 508.2,-63.3 660.2,-191.7 151.9,-128.4 238.7,-318.3 264,-567.9z"/>
  <polygon id="_4" class="fil0" points="45467.4,20973.1 50556.8,20973.1 50556.8,22177.7 48755.5,22177.7 48755.5,26605.2 47268.8,26605.2 47268.8,22177.7 45467.4,22177.7 "/>
  <polygon id="_5" class="fil0" points="51410.5,20973.1 52842.9,20973.1 52842.9,24512.6 55132.6,20973.1 56597.6,20973.1 56597.6,26605.2 55165.2,26605.2 55165.2,23015.1 52842.9,26605.2 51410.5,26605.2 "/>
  <path id="_6" class="fil0" d="M60791.8 23720.4c0,-495.6 121.2,-974.8 365.3,-1437.8 244.2,-464.8 589.6,-817.5 1036.4,-1061.7 446.7,-244.2 944.1,-367.1 1495.7,-367.1 851.9,0 1548.2,276.7 2092.6,830.1 544.3,555.3 815.6,1253.4 815.6,2099.8 0,853.7 -274.9,1560.9 -822.9,2121.5 -549.8,560.7 -1240.7,841 -2074.5,841 -515.4,0 -1007.4,-117.5 -1475.8,-350.8 -466.6,-233.3 -822.9,-575.2 -1067.1,-1027.3 -244.1,-450.4 -365.3,-1000.2 -365.3,-1647.7zm1530.1 79.6c0,558.8 132,987.5 396.1,1284.1 265.8,298.4 591.4,446.7 980.2,446.7 387.1,0 712.6,-148.3 974.9,-446.7 262.2,-296.6 394.3,-728.9 394.3,-1295 0,-551.6 -132.1,-976.6 -394.3,-1273.2 -262.3,-298.5 -587.8,-446.7 -974.9,-446.7 -388.8,0 -714.4,148.2 -980.2,446.7 -264.1,296.6 -396.1,725.2 -396.1,1284.1z"/>
  <polygon id="_7" class="fil0" points="67702.5,20973.1 72705.1,20973.1 72705.1,26605.2 71218.5,26605.2 71218.5,22177.7 69189.2,22177.7 69189.2,26605.2 67702.5,26605.2 "/>
  <path id="_8" class="fil0" d="M74278.7 20973.1l1389 0 0 826.6c180.8,-282.2 423.2,-510.1 730.6,-685.5 307.5,-173.6 649.4,-260.4 1023.7,-260.4 653,0 1208.2,256.8 1664,770.4 455.7,511.9 683.6,1228.1 683.6,2143.3 0,942.2 -229.7,1672.9 -689.1,2195.6 -459.4,522.7 -1016.4,783.1 -1671.1,783.1 -311.1,0 -593.3,-61.5 -846.5,-186.3 -251.3,-122.9 -519,-334.6 -797.6,-634.8l0 2817.8 -1486.6 0 0 -7769.8zm1464.9 2729.2c0,634.9 124.8,1103.3 376.2,1407.1 249.6,302.1 555.3,454 913.4,454 345.4,0 633,-139.3 862.7,-417.8 229.7,-278.5 343.6,-734.3 343.6,-1369.1 0,-593.2 -117.5,-1032.7 -354.5,-1320.3 -235.1,-287.6 -528.1,-430.5 -877.1,-430.5 -363.6,0 -665.6,141.1 -904.4,423.2 -240.5,282.2 -359.9,700 -359.9,1253.4z"/>
  <path id="_9" class="fil0" d="M80603.4 23720.4c0,-495.6 121.2,-974.8 365.3,-1437.8 244.2,-464.8 589.6,-817.5 1036.4,-1061.7 446.7,-244.2 944.1,-367.1 1495.7,-367.1 851.9,0 1548.2,276.7 2092.6,830.1 544.4,555.3 815.7,1253.4 815.7,2099.8 0,853.7 -274.9,1560.9 -823,2121.5 -549.8,560.7 -1240.7,841 -2074.4,841 -515.5,0 -1007.4,-117.5 -1475.9,-350.8 -466.6,-233.3 -822.9,-575.2 -1067.1,-1027.3 -244.1,-450.4 -365.3,-1000.2 -365.3,-1647.7zm1530.1 79.6c0,558.8 132,987.5 396.1,1284.1 265.8,298.4 591.4,446.7 980.3,446.7 387,0 712.6,-148.3 974.8,-446.7 262.2,-296.6 394.3,-728.9 394.3,-1295 0,-551.6 -132.1,-976.6 -394.3,-1273.2 -262.2,-298.5 -587.8,-446.7 -974.8,-446.7 -388.9,0 -714.5,148.2 -980.3,446.7 -264.1,296.6 -396.1,725.2 -396.1,1284.1z"/>
  <path id="_10" class="fil0" d="M92341.3 22644.3l-1464.9 260.4c-48.9,-291.1 -161,-510 -336.5,-658.3 -175.4,-146.5 -401.5,-220.7 -680,-220.7 -370.8,0 -667.4,128.4 -888,385.3 -220.7,256.8 -331,685.4 -331,1287.7 0,669.2 112.1,1141.2 336.4,1418 224.3,276.7 524.5,414.1 900.7,414.1 282.1,0 513.6,-81.4 692.7,-242.3 180.8,-161 307.4,-437.7 381.6,-832l1465 249.6c-151.9,672.8 -443.1,1181 -873.6,1524.7 -430.4,343.6 -1007.4,515.4 -1732.6,515.4 -821.1,0 -1477.7,-260.4 -1966,-779.5 -490.1,-520.9 -734.3,-1240.7 -734.3,-2161.3 0,-931.4 246,-1654.9 736.1,-2173.9 490.2,-519.1 1153.9,-777.7 1991.3,-777.7 683.7,0 1228.1,148.3 1633.2,443.1 403.3,294.8 692.7,743.3 869.9,1347.4z"/>
  <polygon class="fil1" points="10367.2,38439.7 12280.8,38439.7 12280.8,40862 11870.1,40862 11870.1,38780.4 10777.9,38780.4 10777.9,40862 10367.2,40862 "/>
  <path id="_1_0" class="fil1" d="M12740.6 39650.9c0,-447.4 124.4,-778.7 374.2,-994.2 207.7,-178.9 462,-268.4 761.5,-268.4 332.2,0 604.5,108.9 816,326.7 210.8,217.1 316.6,518.1 316.6,901.6 0,311.2 -46.6,555.4 -140,733.6 -93.3,178.1 -229.5,316.6 -408.4,415.4 -178.1,98.8 -373.4,147.8 -584.2,147.8 -339.1,0 -613,-108.1 -822.2,-325.2 -209.3,-217 -313.5,-529.7 -313.5,-937.3zm420.1 0.7c0,309.6 67.6,541.4 203,694.7 136.1,154 306.5,231 512.6,231 203.8,0 373.4,-77 509.6,-231.8 135.3,-154.8 203,-390.5 203,-707.1 0,-298.7 -68.5,-525.1 -204.6,-678.3 -136.1,-154.1 -305.7,-231.1 -508,-231.1 -206.1,0 -376.5,76.3 -512.6,229.5 -135.4,153.3 -203,384.3 -203,693.1z"/>
  <polygon id="_2_1" class="fil1" points="16787.2,38439.7 17198,38439.7 17198,39447.8 18336.8,39447.8 18336.8,38439.7 18747.6,38439.7 18747.6,40862 18336.8,40862 18336.8,39788.5 17198,39788.5 17198,40862 16787.2,40862 "/>
  <path id="_3_2" class="fil1" d="M21016.7 40077.9l424.7 56c-66.1,246.6 -189.8,438.8 -370.2,574.9 -180.5,136.1 -410.8,204.6 -691.6,204.6 -353.2,0 -633.2,-108.9 -840.1,-326.7 -207,-217.1 -310.4,-522.8 -310.4,-915.6 0,-406.1 104.2,-721.9 313.5,-946 209.2,-224.8 480.7,-336.8 814.4,-336.8 322.9,0 586.6,109.7 791.2,329.8 204.6,220.2 307.2,529.8 307.2,928.9 0,24.1 -0.7,60.6 -2.3,108.9l-1804 0c15.6,265.2 90.3,469 225.6,609.9 134.6,140.7 303.4,211.5 504.9,211.5 150.1,0 278.5,-39.7 384.3,-119 106.5,-79.3 190.6,-206.1 252.8,-380.4zm-1344.2 -658.1l1348.9 0c-17.9,-203.8 -70.1,-356.3 -154.8,-458.2 -129.9,-157.9 -299.5,-237.2 -507.2,-237.2 -188.3,0 -346.2,63 -474.6,189 -127.5,126 -198.3,294.8 -212.3,506.4z"/>
  <path id="_4_3" class="fil1" d="M22394.4 39765.2l0 -322c172.7,-1.6 290.9,-8.6 353.1,-20.3 63.1,-12.4 123,-48.2 179,-108.9 56,-60.6 84,-136.1 84,-227.1 0,-109.7 -36.6,-198.4 -110.5,-263.7 -73.9,-66.2 -168.8,-98.8 -286.2,-98.8 -231.1,0 -392.9,135.3 -485.5,406l-392 -65.3c121.3,-451.2 415.4,-676.8 880.5,-676.8 258.3,0 460.6,70 607.6,210.8 147,140.8 220.1,308.8 220.1,504.1 0,196.8 -95.6,354 -286.2,469.9 122.1,65.3 213.1,148.5 274.6,249.7 60.6,101.1 91,220.9 91,359.4 0,217 -79.4,392.8 -237.3,528.2 -158.7,135.3 -379.6,203 -664.3,203 -552.3,0 -872.8,-244.3 -960.7,-732.8l387.4 -84c35,154 105.8,273.8 213.1,358.6 107.4,84.8 229.5,126.8 368,126.8 138.5,0 253.6,-38.9 345.4,-117.5 91.8,-77.7 137.7,-177.3 137.7,-298.7 0,-94.1 -28.8,-175.8 -86.4,-245.8 -57.6,-70 -119,-113.6 -184.3,-130.7 -65.4,-17.9 -183.6,-26.4 -354.8,-26.4 -14,0 -45.1,0.7 -93.3,2.3z"/>
  <path id="_5_4" class="fil1" d="M25579.9 40558.6c-152.5,130 -299.5,221 -440.3,274.7 -140.8,53.6 -291.7,80.1 -453.5,80.1 -266.1,0 -470.7,-64.6 -613.8,-194.5 -143.1,-129.1 -214.7,-294.8 -214.7,-496.3 0,-118.2 27.2,-226.4 80.9,-324.4 54.5,-98 125.3,-175.8 212.4,-234.9 87.9,-59.1 185.9,-104.2 295.6,-134.6 80.9,-21 203,-41.2 365.6,-61.4 331.4,-38.9 576.4,-86.4 732.8,-140.8 1.6,-56.1 2.3,-91.8 2.3,-106.6 0,-166.5 -38.9,-283.9 -116.7,-352.4 -105,-92.6 -261.3,-138.5 -468.3,-138.5 -193.7,0 -336.8,34.3 -428.6,101.9 -92.5,67.7 -160.2,187.5 -204.6,360.2l-401.4 -56c36.6,-171.9 96.5,-311.2 180.5,-417 84,-105.7 205.4,-186.6 364,-244.2 158,-56.8 342.3,-85.6 550.8,-85.6 206.9,0 375.8,24.1 505.6,73.1 129.2,49 224.9,109.7 285.5,183.6 60.7,73.9 103.5,167.3 128.4,280.1 13.2,70 20.2,196 20.2,377.2l0 544.6c0,380.4 8.6,620.8 25.7,722.7 16.3,101.9 50.6,199.1 100.3,292.4l-429.4 0c-41.2,-86.3 -67.7,-187.4 -79.3,-303.4zm-32.7 -910.1c-149.3,60.7 -373.4,112 -672.1,154 -169.6,24.2 -289.4,51.4 -359.4,81.7 -70,30.4 -123.7,74.7 -161.8,132.3 -38.1,58.3 -57.6,122.9 -57.6,194.4 0,108.2 41.3,199.2 124.5,271.5 83.2,72.4 204.6,108.9 364.1,108.9 157.9,0 298.7,-34.2 422.4,-103.4 122.9,-68.5 213.9,-162.6 271.5,-281.6 44.3,-92.6 66.1,-228.7 66.1,-408.4l2.3 -149.4z"/>
  <path id="_6_5" class="fil1" d="M26593.5 38439.7l945.1 0c231.9,0 404.5,19.4 518.1,58.3 112.8,38.9 210,109.7 291,213.1 81.6,104.3 122.1,228 122.1,372.7 0,115.9 -24.1,217 -71.6,302.6 -48.2,86.3 -119.8,158.7 -216.2,216.2 113.5,38.1 207.7,108.9 283.1,213.2 74.7,103.4 112,227.1 112,369.5 -14.7,229.4 -97.2,399.8 -245.8,510.3 -148.5,111.2 -364.8,166.4 -648,166.4l-1089.8 0 0 -2422.3zm410.7 1022.1l435.7 0c173.4,0 293.2,-9.3 357.8,-27.2 65.3,-18.7 123.7,-55.2 175,-111.3 51.3,-55.2 77,-122.1 77,-199.9 0,-128.3 -45.1,-217 -134.6,-267.6 -90.2,-50.5 -244.2,-75.4 -462,-75.4l-448.9 0 0 681.4zm0 1064.2l539.1 0c231.8,0 391.3,-27.2 477.7,-80.9 86.3,-54.5 131.4,-147 136.1,-280.1 0,-77 -24.9,-149.3 -74.7,-215.4 -50.6,-66.2 -115.9,-108.2 -196,-125.3 -80.2,-17.9 -209.3,-26.4 -386.7,-26.4l-495.5 0 0 728.1z"/>
  <polygon id="_7_6" class="fil1" points="29073.4,38439.7 29484.2,38439.7 29484.2,40287.2 30625.3,38439.7 31066.4,38439.7 31066.4,40862 30655.7,40862 30655.7,39026.2 29516.1,40862 29073.4,40862 "/>
  <path id="_8_7" class="fil1" d="M33263.2 39975.2l401.4 56c-44.3,276.2 -156.3,491.7 -337.6,648 -181.2,156.4 -404.5,234.2 -668.2,234.2 -330.6,0 -596.7,-108.1 -797.4,-324.4 -201.4,-216.2 -301.8,-525.9 -301.8,-928.8 0,-261.4 43.6,-489.3 129.9,-685.4 86.4,-195.2 217.8,-342.2 395.2,-439.5 176.6,-98 368.7,-147 577.2,-147 262.2,0 477.6,66.1 644.1,199.2 167.3,133 274.6,322 321.3,566.3l-396.7 60.6c-38.2,-162.5 -105.1,-284.7 -202.3,-367.1 -96.5,-81.7 -213.1,-122.9 -350.1,-122.9 -206.9,0 -374.9,73.9 -504.8,221.7 -129.1,148.5 -193.7,381.9 -193.7,702.4 0,325.2 62.2,560.9 186.7,707.9 125.2,147 287.8,220.9 487.7,220.9 161.8,0 296.4,-49 403.8,-147.8 108.1,-98 176.5,-249.7 205.3,-454.3z"/>
  <polygon id="_9_8" class="fil1" points="34014.7,38439.7 34425.4,38439.7 34425.4,40287.2 35566.6,38439.7 36007.7,38439.7 36007.7,40862 35596.9,40862 35596.9,39026.2 34457.3,40862 34014.7,40862 "/>
  <polygon id="_10_9" class="fil1" points="36636.2,38439.7 37267.9,38439.7 37908.1,40378.2 38616.7,38439.7 39203.3,38439.7 39203.3,40862 38792.6,40862 38792.6,38911.8 38079.2,40862 37712,40862 37037.6,38818.5 37037.6,40862 36636.2,40862 "/>
  <path id="_11" class="fil1" d="M39677 39650.9c0,-447.4 124.5,-778.7 374.2,-994.2 207.7,-178.9 462.1,-268.4 761.6,-268.4 332.1,0 604.4,108.9 816,326.7 210.8,217.1 316.6,518.1 316.6,901.6 0,311.2 -46.7,555.4 -140,733.6 -93.4,178.1 -229.5,316.6 -408.4,415.4 -178.2,98.8 -373.4,147.8 -584.2,147.8 -339.2,0 -613,-108.1 -822.3,-325.2 -209.2,-217 -313.5,-529.7 -313.5,-937.3zm420.1 0.7c0,309.6 67.7,541.4 203,694.7 136.2,154 306.5,231 512.7,231 203.8,0 373.4,-77 509.5,-231.8 135.4,-154.8 203,-390.5 203,-707.1 0,-298.7 -68.4,-525.1 -204.6,-678.3 -136.1,-154.1 -305.7,-231.1 -507.9,-231.1 -206.2,0 -376.5,76.3 -512.7,229.5 -135.3,153.3 -203,384.3 -203,693.1z"/>
  <path id="_12" class="fil1" d="M42426.9 38439.7l410.7 0 0 1847.5 1141.2 -1847.5 441.1 0 0 2422.3 -410.7 0 0 -1835.8 -1139.7 1835.8 -442.6 0 0 -2422.3zm1418.9 -896.2l280.1 0c-22.6,192.2 -92.6,340 -209.3,442.6 -116.7,103.5 -271.5,154.9 -465.2,154.9 -194.5,0 -350,-51.4 -466,-153.3 -115.9,-102.7 -185.9,-250.5 -208.4,-444.2l280 0c21,105 63.8,183.6 126.8,234.9 63,52.2 148.6,77.8 255.2,77.8 123.7,0 217,-24.9 280,-75.4 63,-49.8 105.8,-129.2 126.8,-237.3z"/>
  <path id="_13" class="fil1" d="M46177.2 39650.9c0,-447.4 124.4,-778.7 374.2,-994.2 207.7,-178.9 462,-268.4 761.5,-268.4 332.2,0 604.5,108.9 816,326.7 210.9,217.1 316.6,518.1 316.6,901.6 0,311.2 -46.6,555.4 -140,733.6 -93.3,178.1 -229.5,316.6 -408.4,415.4 -178.1,98.8 -373.4,147.8 -584.2,147.8 -339.1,0 -613,-108.1 -822.2,-325.2 -209.3,-217 -313.5,-529.7 -313.5,-937.3zm420.1 0.7c0,309.6 67.6,541.4 203,694.7 136.1,154 306.5,231 512.6,231 203.8,0 373.4,-77 509.6,-231.8 135.3,-154.8 203,-390.5 203,-707.1 0,-298.7 -68.5,-525.1 -204.6,-678.3 -136.1,-154.1 -305.7,-231.1 -508,-231.1 -206.1,0 -376.5,76.3 -512.6,229.5 -135.4,153.3 -203,384.3 -203,693.1z"/>
  <polygon id="_14" class="fil1" points="48931.7,38439.7 49342.5,38439.7 49342.5,40526 50481.3,40526 50481.3,38439.7 50892,38439.7 50892,40526 51158.1,40526 51158.1,41548.1 50822.1,41548.1 50822.1,40862 48931.7,40862 "/>
  <path id="_15" class="fil1" d="M53200.9 40077.9l424.7 56c-66.1,246.6 -189.8,438.8 -370.3,574.9 -180.5,136.1 -410.7,204.6 -691.6,204.6 -353.1,0 -633.2,-108.9 -840.1,-326.7 -206.9,-217.1 -310.4,-522.8 -310.4,-915.6 0,-406.1 104.3,-721.9 313.5,-946 209.3,-224.8 480.8,-336.8 814.5,-336.8 322.8,0 586.5,109.7 791.1,329.8 204.6,220.2 307.3,529.8 307.3,928.9 0,24.1 -0.8,60.6 -2.3,108.9l-1804 0c15.5,265.2 90.2,469 225.6,609.9 134.6,140.7 303.4,211.5 504.8,211.5 150.2,0 278.5,-39.7 384.3,-119 106.6,-79.3 190.6,-206.1 252.9,-380.4zm-1344.3 -658.1l1348.9 0c-17.9,-203.8 -70,-356.3 -154.8,-458.2 -129.9,-157.9 -299.5,-237.2 -507.2,-237.2 -188.2,0 -346.2,63 -474.5,189 -127.6,126 -198.4,294.8 -212.4,506.4z"/>
  <polygon id="_16" class="fil1" points="54144.4,38439.7 54555.2,38439.7 54555.2,39447.8 55694,39447.8 55694,38439.7 56104.8,38439.7 56104.8,40862 55694,40862 55694,39788.5 54555.2,39788.5 54555.2,40862 54144.4,40862 "/>
  <path id="_17" class="fil1" d="M56717 38439.7l410.7 0 0 1045.4c130.7,0 222.5,-24.8 275.4,-75.4 52.1,-49.8 129.1,-195.3 231.8,-437.2 80.9,-191.3 146.2,-317.4 196,-378 50.6,-60.7 108.2,-101.9 173.5,-122.9 66.1,-21 171.1,-31.9 315.1,-31.9l82.4 0 0 338.3 -114.4 -2.3c-108.1,0 -177.3,16.3 -207.7,48.2 -31.8,33.5 -80.9,133.1 -146.2,298.7 -62.2,158.8 -119,268.4 -171.1,329.1 -51.4,60.7 -131.5,115.9 -239.6,166.5 176.6,47.4 350.8,211.6 521.9,493.2l450.5 750.6 -451.2 0 -444.2 -748.3c-89.5,-151.7 -167.3,-251.3 -233.4,-299.5 -66.9,-48.2 -146.2,-72.3 -238.8,-72.3l0 1120.1 -410.7 0 0 -2422.3z"/>
  <path id="_18" class="fil1" d="M60468 40077.9l424.8 56c-66.2,246.6 -189.9,438.8 -370.3,574.9 -180.5,136.1 -410.7,204.6 -691.6,204.6 -353.1,0 -633.2,-108.9 -840.1,-326.7 -206.9,-217.1 -310.4,-522.8 -310.4,-915.6 0,-406.1 104.3,-721.9 313.5,-946 209.3,-224.8 480.7,-336.8 814.5,-336.8 322.8,0 586.5,109.7 791.1,329.8 204.6,220.2 307.3,529.8 307.3,928.9 0,24.1 -0.8,60.6 -2.4,108.9l-1803.9 0c15.5,265.2 90.2,469 225.6,609.9 134.5,140.7 303.3,211.5 504.8,211.5 150.1,0 278.5,-39.7 384.3,-119 106.6,-79.3 190.6,-206.1 252.8,-380.4zm-1344.2 -658.1l1348.9 0c-17.9,-203.8 -70,-356.3 -154.8,-458.2 -129.9,-157.9 -299.5,-237.2 -507.2,-237.2 -188.3,0 -346.2,63 -474.5,189 -127.6,126 -198.4,294.8 -212.4,506.4z"/>
  <path id="_19" class="fil1" d="M62703.7 38439.7l410.7 0 0 1045.4c130.7,0 222.5,-24.8 275.4,-75.4 52.1,-49.8 129.2,-195.3 231.8,-437.2 80.9,-191.3 146.3,-317.4 196.1,-378 50.5,-60.7 108.1,-101.9 173.4,-122.9 66.2,-21 171.2,-31.9 315.1,-31.9l82.4 0 0 338.3 -114.3 -2.3c-108.1,0 -177.4,16.3 -207.7,48.2 -31.9,33.5 -80.9,133.1 -146.2,298.7 -62.3,158.8 -119.1,268.4 -171.2,329.1 -51.3,60.7 -131.4,115.9 -239.6,166.5 176.6,47.4 350.9,211.6 522,493.2l450.4 750.6 -451.2 0 -444.2 -748.3c-89.4,-151.7 -167.2,-251.3 -233.3,-299.5 -66.9,-48.2 -146.3,-72.3 -238.9,-72.3l0 1120.1 -410.7 0 0 -2422.3z"/>
  <path id="_20" class="fil1" d="M66435.3 40558.6c-152.5,130 -299.5,221 -440.3,274.7 -140.8,53.6 -291.7,80.1 -453.5,80.1 -266,0 -470.6,-64.6 -613.8,-194.5 -143.1,-129.1 -214.7,-294.8 -214.7,-496.3 0,-118.2 27.2,-226.4 80.9,-324.4 54.5,-98 125.3,-175.8 212.4,-234.9 87.9,-59.1 185.9,-104.2 295.6,-134.6 80.9,-21 203,-41.2 365.6,-61.4 331.4,-38.9 576.4,-86.4 732.8,-140.8 1.6,-56.1 2.3,-91.8 2.3,-106.6 0,-166.5 -38.9,-283.9 -116.7,-352.4 -105,-92.6 -261.3,-138.5 -468.3,-138.5 -193.7,0 -336.8,34.3 -428.6,101.9 -92.5,67.7 -160.2,187.5 -204.6,360.2l-401.4 -56c36.6,-171.9 96.5,-311.2 180.5,-417 84,-105.7 205.4,-186.6 364.1,-244.2 157.9,-56.8 342.2,-85.6 550.7,-85.6 206.9,0 375.8,24.1 505.6,73.1 129.2,49 224.9,109.7 285.5,183.6 60.7,73.9 103.5,167.3 128.4,280.1 13.2,70 20.2,196 20.2,377.2l0 544.6c0,380.4 8.6,620.8 25.7,722.7 16.3,101.9 50.6,199.1 100.3,292.4l-429.4 0c-41.2,-86.3 -67.6,-187.4 -79.3,-303.4zm-32.7 -910.1c-149.3,60.7 -373.4,112 -672.1,154 -169.6,24.2 -289.4,51.4 -359.4,81.7 -70,30.4 -123.7,74.7 -161.8,132.3 -38.1,58.3 -57.5,122.9 -57.5,194.4 0,108.2 41.2,199.2 124.4,271.5 83.2,72.4 204.6,108.9 364.1,108.9 157.9,0 298.7,-34.2 422.4,-103.4 122.9,-68.5 213.9,-162.6 271.5,-281.6 44.3,-92.6 66.1,-228.7 66.1,-408.4l2.3 -149.4z"/>
  <path id="_21" class="fil1" d="M67192.2 38439.7l410.7 0 0 457.4c0,197.5 11.7,340.7 35.8,429.4 23.4,88.7 80.1,166.4 170.4,232.6 89.5,66.1 202.2,98.8 338.4,98.8 155.6,0 356.2,-41.3 603.6,-123l0 -1095.2 410.7 0 0 2422.3 -410.7 0 0 -977.8c-252.8,79.4 -489.3,119 -708.7,119 -184.3,0 -346.9,-46.6 -487.7,-140 -140.8,-93.3 -236.5,-207.7 -287,-343.1 -50.6,-135.3 -75.5,-283.9 -75.5,-446.5l0 -633.9z"/>
  <path id="_22" class="fil1" d="M71430.2 40077.9l424.8 56c-66.2,246.6 -189.9,438.8 -370.3,574.9 -180.5,136.1 -410.8,204.6 -691.6,204.6 -353.1,0 -633.2,-108.9 -840.1,-326.7 -206.9,-217.1 -310.4,-522.8 -310.4,-915.6 0,-406.1 104.3,-721.9 313.5,-946 209.3,-224.8 480.7,-336.8 814.5,-336.8 322.8,0 586.5,109.7 791.1,329.8 204.6,220.2 307.3,529.8 307.3,928.9 0,24.1 -0.8,60.6 -2.4,108.9l-1803.9 0c15.5,265.2 90.2,469 225.6,609.9 134.5,140.7 303.3,211.5 504.8,211.5 150.1,0 278.5,-39.7 384.3,-119 106.6,-79.3 190.6,-206.1 252.8,-380.4zm-1344.2 -658.1l1348.9 0c-17.9,-203.8 -70,-356.3 -154.8,-458.2 -129.9,-157.9 -299.5,-237.2 -507.2,-237.2 -188.3,0 -346.2,63 -474.5,189 -127.6,126 -198.4,294.8 -212.4,506.4z"/>
  <path id="_23" class="fil1" d="M73956.1 39975.2l401.4 56c-44.4,276.2 -156.4,491.7 -337.6,648 -181.3,156.4 -404.5,234.2 -668.3,234.2 -330.6,0 -596.6,-108.1 -797.3,-324.4 -201.5,-216.2 -301.8,-525.9 -301.8,-928.8 0,-261.4 43.5,-489.3 129.9,-685.4 86.3,-195.2 217.8,-342.2 395.1,-439.5 176.6,-98 368.8,-147 577.2,-147 262.2,0 477.7,66.1 644.2,199.2 167.2,133 274.5,322 321.2,566.3l-396.7 60.6c-38.1,-162.5 -105,-284.7 -202.3,-367.1 -96.4,-81.7 -213.1,-122.9 -350,-122.9 -206.9,0 -375,73.9 -504.9,221.7 -129.1,148.5 -193.7,381.9 -193.7,702.4 0,325.2 62.3,560.9 186.7,707.9 125.3,147 287.8,220.9 487.8,220.9 161.8,0 296.4,-49 403.7,-147.8 108.1,-98 176.6,-249.7 205.4,-454.3z"/>
  <polygon id="_24" class="fil1" points="74492.8,38439.7 76453.1,38439.7 76453.1,38780.4 75678.3,38780.4 75678.3,40862 75267.6,40862 75267.6,38780.4 74492.8,38780.4 "/>
  <path id="_25" class="fil1" d="M76845.2 38439.7l945.1 0c231.8,0 404.5,19.4 518.1,58.3 112.8,38.9 210,109.7 291,213.1 81.6,104.3 122.1,228 122.1,372.7 0,115.9 -24.1,217 -71.6,302.6 -48.2,86.3 -119.8,158.7 -216.2,216.2 113.5,38.1 207.6,108.9 283.1,213.2 74.7,103.4 112,227.1 112,369.5 -14.7,229.4 -97.2,399.8 -245.8,510.3 -148.6,111.2 -364.8,166.4 -648,166.4l-1089.8 0 0 -2422.3zm410.7 1022.1l435.6 0c173.5,0 293.3,-9.3 357.9,-27.2 65.3,-18.7 123.7,-55.2 175,-111.3 51.3,-55.2 77,-122.1 77,-199.9 0,-128.3 -45.1,-217 -134.6,-267.6 -90.2,-50.5 -244.2,-75.4 -462,-75.4l-448.9 0 0 681.4zm0 1064.2l539.1 0c231.8,0 391.3,-27.2 477.6,-80.9 86.4,-54.5 131.5,-147 136.2,-280.1 0,-77 -24.9,-149.3 -74.7,-215.4 -50.6,-66.2 -115.9,-108.2 -196,-125.3 -80.2,-17.9 -209.3,-26.4 -386.7,-26.4l-495.5 0 0 728.1z"/>
  <path id="_26" class="fil1" d="M80855.3 40558.6c-152.5,130 -299.5,221 -440.3,274.7 -140.8,53.6 -291.8,80.1 -453.6,80.1 -266,0 -470.6,-64.6 -613.7,-194.5 -143.2,-129.1 -214.7,-294.8 -214.7,-496.3 0,-118.2 27.2,-226.4 80.9,-324.4 54.4,-98 125.2,-175.8 212.4,-234.9 87.9,-59.1 185.9,-104.2 295.6,-134.6 80.9,-21 203,-41.2 365.6,-61.4 331.3,-38.9 576.4,-86.4 732.8,-140.8 1.5,-56.1 2.3,-91.8 2.3,-106.6 0,-166.5 -38.9,-283.9 -116.7,-352.4 -105,-92.6 -261.4,-138.5 -468.3,-138.5 -193.7,0 -336.8,34.3 -428.6,101.9 -92.6,67.7 -160.3,187.5 -204.6,360.2l-401.4 -56c36.5,-171.9 96.4,-311.2 180.5,-417 84,-105.7 205.3,-186.6 364,-244.2 157.9,-56.8 342.3,-85.6 550.8,-85.6 206.9,0 375.7,24.1 505.6,73.1 129.1,49 224.8,109.7 285.5,183.6 60.7,73.9 103.5,167.3 128.4,280.1 13.2,70 20.2,196 20.2,377.2l0 544.6c0,380.4 8.5,620.8 25.7,722.7 16.3,101.9 50.5,199.1 100.3,292.4l-429.4 0c-41.2,-86.3 -67.7,-187.4 -79.3,-303.4zm-32.7 -910.1c-149.4,60.7 -373.4,112 -672.1,154 -169.6,24.2 -289.4,51.4 -359.4,81.7 -70,30.4 -123.7,74.7 -161.8,132.3 -38.1,58.3 -57.6,122.9 -57.6,194.4 0,108.2 41.3,199.2 124.5,271.5 83.2,72.4 204.6,108.9 364,108.9 157.9,0 298.7,-34.2 422.4,-103.4 123,-68.5 214,-162.6 271.5,-281.6 44.4,-92.6 66.2,-228.7 66.2,-408.4l2.3 -149.4z"/>
  <path id="_27" class="fil1" d="M83147 41793.2l-46.7 -379.6c90.2,24.1 168,36.5 234.9,36.5 91.8,0 164.9,-15.5 219.4,-45.8 55.2,-30.4 100.3,-73.2 135.3,-127.6 25.7,-41.3 67.7,-143.2 125.3,-306.5 7.7,-22.6 19.4,-56 36.5,-100.4l-919.5 -2430.1 438.8 0 505.6 1398.6c66.2,176.6 124.5,363.3 176.6,559.3 47.4,-184.3 103.5,-366.4 168.8,-545.3l516.5 -1412.6 410 0 -915.6 2464.4c-98.8,265.2 -175.8,447.2 -231,547.6 -73.1,134.6 -157.2,233.4 -251.3,296.4 -94.9,63 -207.7,94.1 -338.4,94.1 -79.3,0 -168,-16.4 -265.2,-49z"/>
  <path id="_28" class="fil1" d="M87029.5 39975.2l401.3 56c-44.3,276.2 -156.3,491.7 -337.6,648 -181.2,156.4 -404.5,234.2 -668.2,234.2 -330.6,0 -596.6,-108.1 -797.3,-324.4 -201.5,-216.2 -301.9,-525.9 -301.9,-928.8 0,-261.4 43.6,-489.3 130,-685.4 86.3,-195.2 217.8,-342.2 395.1,-439.5 176.6,-98 368.8,-147 577.2,-147 262.2,0 477.7,66.1 644.1,199.2 167.3,133 274.6,322 321.3,566.3l-396.7 60.6c-38.1,-162.5 -105,-284.7 -202.3,-367.1 -96.4,-81.7 -213.1,-122.9 -350,-122.9 -207,0 -375,73.9 -504.9,221.7 -129.1,148.5 -193.7,381.9 -193.7,702.4 0,325.2 62.3,560.9 186.7,707.9 125.3,147 287.8,220.9 487.8,220.9 161.8,0 296.3,-49 403.7,-147.8 108.1,-98 176.6,-249.7 205.4,-454.3z"/>
  <path id="_29" class="fil1" d="M87981.6 38439.7l1909 0 0 2420 -410.8 0 0 -2079.3 -1087.5 0 0 1204.9c0,280.9 -9.3,466 -27.2,556.3 -18.7,89.4 -68.4,167.2 -150.1,234.1 -82.5,66.9 -200.7,100.3 -355.5,100.3 -95.7,0 -206.2,-6.2 -330.6,-17.8l0 -341.6 179.7 0c84.7,0 145.4,-8.5 182,-26.4 36.6,-17.1 60.7,-45.1 73.1,-83.2 11.7,-38.2 17.9,-161.8 17.9,-371.1l0 -1596.2z"/>
  <path id="_30" class="fil1" d="M90402.5 39650.9c0,-447.4 124.4,-778.7 374.1,-994.2 207.7,-178.9 462.1,-268.4 761.6,-268.4 332.2,0 604.4,108.9 816,326.7 210.8,217.1 316.6,518.1 316.6,901.6 0,311.2 -46.7,555.4 -140,733.6 -93.3,178.1 -229.5,316.6 -408.4,415.4 -178.1,98.8 -373.4,147.8 -584.2,147.8 -339.2,0 -613,-108.1 -822.3,-325.2 -209.2,-217 -313.4,-529.7 -313.4,-937.3zm420 0.7c0,309.6 67.7,541.4 203,694.7 136.2,154 306.6,231 512.7,231 203.8,0 373.4,-77 509.5,-231.8 135.4,-154.8 203,-390.5 203,-707.1 0,-298.7 -68.4,-525.1 -204.5,-678.3 -136.2,-154.1 -305.8,-231.1 -508,-231.1 -206.1,0 -376.5,76.3 -512.7,229.5 -135.3,153.3 -203,384.3 -203,693.1z"/>
  <path id="_31" class="fil1" d="M93152.3 38439.7l945.2 0c231.8,0 404.5,19.4 518.1,58.3 112.8,38.9 210,109.7 290.9,213.1 81.7,104.3 122.1,228 122.1,372.7 0,115.9 -24.1,217 -71.5,302.6 -48.3,86.3 -119.8,158.7 -216.3,216.2 113.6,38.1 207.7,108.9 283.2,213.2 74.6,103.4 112,227.1 112,369.5 -14.8,229.4 -97.2,399.8 -245.8,510.3 -148.6,111.2 -364.9,166.4 -648,166.4l-1089.9 0 0 -2422.3zm410.8 1022.1l435.6 0c173.5,0 293.3,-9.3 357.8,-27.2 65.4,-18.7 123.7,-55.2 175,-111.3 51.4,-55.2 77.1,-122.1 77.1,-199.9 0,-128.3 -45.2,-217 -134.6,-267.6 -90.2,-50.5 -244.3,-75.4 -462.1,-75.4l-448.8 0 0 681.4zm0 1064.2l539.1 0c231.8,0 391.2,-27.2 477.6,-80.9 86.3,-54.5 131.4,-147 136.1,-280.1 0,-77 -24.9,-149.3 -74.6,-215.4 -50.6,-66.2 -116,-108.2 -196.1,-125.3 -80.1,-17.9 -209.2,-26.4 -386.6,-26.4l-495.5 0 0 728.1z"/>
  <polygon id="_32" class="fil1" points="95632.3,38439.7 96043,38439.7 96043,40287.2 97184.2,38439.7 97625.3,38439.7 97625.3,40862 97214.5,40862 97214.5,39026.2 96074.9,40862 95632.3,40862 "/>
  <path id="_33" class="fil1" d="M98239.8 38439.7l410.7 0 0 1847.5 1141.2 -1847.5 441.1 0 0 2422.3 -410.7 0 0 -1835.8 -1139.7 1835.8 -442.6 0 0 -2422.3zm1418.9 -896.2l280 0c-22.5,192.2 -92.5,340 -209.2,442.6 -116.7,103.5 -271.5,154.9 -465.2,154.9 -194.5,0 -350,-51.4 -466,-153.3 -115.9,-102.7 -185.9,-250.5 -208.4,-444.2l280 0c21,105 63.8,183.6 126.8,234.9 63,52.2 148.6,77.8 255.2,77.8 123.7,0 217,-24.9 280,-75.4 63,-49.8 105.8,-129.2 126.8,-237.3z"/>
  <path id="_34" class="fil1" d="M12248.2 44865.2c0,-447.4 124.4,-778.7 374.1,-994.2 207.7,-178.9 462.1,-268.4 761.6,-268.4 332.2,0 604.4,108.9 816,326.7 210.8,217.1 316.6,518.1 316.6,901.6 0,311.2 -46.7,555.4 -140,733.6 -93.3,178.1 -229.5,316.6 -408.4,415.4 -178.1,98.8 -373.4,147.8 -584.2,147.8 -339.2,0 -613,-108.1 -822.3,-325.2 -209.2,-217 -313.4,-529.7 -313.4,-937.3zm420 0.7c0,309.6 67.7,541.4 203,694.7 136.2,154 306.6,231 512.7,231 203.8,0 373.4,-77 509.5,-231.8 135.4,-154.8 203,-390.5 203,-707.1 0,-298.7 -68.4,-525.1 -204.5,-678.3 -136.2,-154.1 -305.8,-231.1 -508,-231.1 -206.1,0 -376.5,76.3 -512.7,229.5 -135.3,153.3 -203,384.3 -203,693.1z"/>
  <path id="_35" class="fil1" d="M14993.4 43654l410.7 0 0 1045.4c130.7,0 222.5,-24.8 275.4,-75.4 52.1,-49.8 129.1,-195.3 231.8,-437.2 80.9,-191.3 146.2,-317.4 196,-378 50.6,-60.7 108.1,-101.9 173.5,-122.9 66.1,-21 171.1,-31.9 315.1,-31.9l82.4 0 0 338.3 -114.4 -2.3c-108.1,0 -177.3,16.3 -207.7,48.2 -31.8,33.5 -80.9,133.1 -146.2,298.7 -62.2,158.8 -119,268.4 -171.1,329.1 -51.4,60.7 -131.5,115.9 -239.6,166.5 176.6,47.4 350.8,211.6 521.9,493.2l450.5 750.6 -451.2 0 -444.2 -748.3c-89.5,-151.7 -167.3,-251.3 -233.4,-299.5 -66.9,-48.2 -146.2,-72.3 -238.8,-72.3l0 1120.1 -410.7 0 0 -2422.3z"/>
  <path id="_36" class="fil1" d="M18725 45773c-152.5,129.9 -299.5,220.9 -440.3,274.6 -140.8,53.6 -291.8,80.1 -453.6,80.1 -266,0 -470.6,-64.6 -613.7,-194.5 -143.2,-129.1 -214.7,-294.8 -214.7,-496.3 0,-118.2 27.2,-226.4 80.9,-324.4 54.4,-98 125.2,-175.8 212.4,-234.9 87.9,-59.1 185.9,-104.2 295.6,-134.6 80.9,-21 203,-41.2 365.6,-61.4 331.3,-38.9 576.4,-86.4 732.8,-140.8 1.5,-56.1 2.3,-91.8 2.3,-106.6 0,-166.5 -38.9,-283.9 -116.7,-352.4 -105,-92.6 -261.4,-138.5 -468.3,-138.5 -193.7,0 -336.8,34.3 -428.6,101.9 -92.6,67.7 -160.3,187.5 -204.6,360.2l-401.4 -56c36.5,-171.9 96.4,-311.2 180.5,-417 84,-105.7 205.3,-186.6 364,-244.2 157.9,-56.8 342.3,-85.6 550.8,-85.6 206.9,0 375.7,24.1 505.6,73.1 129.1,49 224.8,109.7 285.5,183.6 60.7,73.9 103.5,167.3 128.4,280.1 13.2,70 20.2,196 20.2,377.2l0 544.6c0,380.4 8.5,620.8 25.6,722.7 16.4,101.9 50.6,199.1 100.4,292.4l-429.4 0c-41.2,-86.3 -67.7,-187.4 -79.3,-303.3zm-32.7 -910.2c-149.4,60.7 -373.4,112 -672.1,154 -169.6,24.2 -289.4,51.4 -359.4,81.7 -70,30.4 -123.7,74.7 -161.8,132.3 -38.1,58.3 -57.6,122.9 -57.6,194.4 0,108.2 41.2,199.2 124.5,271.5 83.2,72.4 204.6,108.9 364,108.9 157.9,0 298.7,-34.2 422.4,-103.4 123,-68.5 213.9,-162.6 271.5,-281.6 44.4,-92.6 66.2,-228.7 66.2,-408.4l2.3 -149.4z"/>
  <path id="_37" class="fil1" d="M20223.2 44979.5l0 -322c172.7,-1.6 290.9,-8.6 353.2,-20.3 63,-12.4 122.9,-48.2 178.9,-108.9 56,-60.6 84,-136.1 84,-227.1 0,-109.7 -36.6,-198.4 -110.5,-263.7 -73.9,-66.2 -168.8,-98.8 -286.2,-98.8 -231.1,0 -392.9,135.3 -485.5,406l-392 -65.3c121.3,-451.2 415.4,-676.8 880.5,-676.8 258.3,0 460.6,70 607.6,210.8 147,140.8 220.1,308.9 220.1,504.1 0,196.8 -95.6,354 -286.2,469.9 122.1,65.3 213.1,148.5 274.6,249.7 60.6,101.1 91,220.9 91,359.4 0,217 -79.4,392.8 -237.3,528.2 -158.7,135.3 -379.6,203 -664.3,203 -552.3,0 -872.8,-244.3 -960.7,-732.8l387.4 -84c35,154 105.8,273.8 213.1,358.6 107.4,84.8 229.5,126.8 368,126.8 138.5,0 253.6,-38.9 345.4,-117.5 91.8,-77.7 137.7,-177.3 137.7,-298.7 0,-94.1 -28.8,-175.8 -86.4,-245.8 -57.5,-70 -119,-113.6 -184.3,-130.7 -65.4,-17.9 -183.6,-26.4 -354.8,-26.4 -14,0 -45.1,0.7 -93.3,2.3z"/>
  <path id="_38" class="fil1" d="M23408.7 45773c-152.5,129.9 -299.5,220.9 -440.3,274.6 -140.8,53.6 -291.7,80.1 -453.5,80.1 -266,0 -470.7,-64.6 -613.8,-194.5 -143.1,-129.1 -214.7,-294.8 -214.7,-496.3 0,-118.2 27.2,-226.4 80.9,-324.4 54.5,-98 125.3,-175.8 212.4,-234.9 87.9,-59.1 185.9,-104.2 295.6,-134.6 80.9,-21 203,-41.2 365.6,-61.4 331.4,-38.9 576.4,-86.4 732.8,-140.8 1.6,-56.1 2.3,-91.8 2.3,-106.6 0,-166.5 -38.9,-283.9 -116.7,-352.4 -105,-92.6 -261.3,-138.5 -468.3,-138.5 -193.7,0 -336.8,34.3 -428.6,101.9 -92.5,67.7 -160.2,187.5 -204.6,360.2l-401.4 -56c36.6,-171.9 96.5,-311.2 180.5,-417 84,-105.7 205.4,-186.6 364.1,-244.2 157.9,-56.8 342.2,-85.6 550.7,-85.6 206.9,0 375.8,24.1 505.6,73.1 129.2,49 224.9,109.7 285.5,183.6 60.7,73.9 103.5,167.3 128.4,280.1 13.2,70 20.2,196 20.2,377.2l0 544.6c0,380.4 8.6,620.8 25.7,722.7 16.3,101.9 50.6,199.1 100.3,292.4l-429.4 0c-41.2,-86.3 -67.6,-187.4 -79.3,-303.3zm-32.7 -910.2c-149.3,60.7 -373.4,112 -672.1,154 -169.6,24.2 -289.4,51.4 -359.4,81.7 -70,30.4 -123.7,74.7 -161.8,132.3 -38.1,58.3 -57.6,122.9 -57.6,194.4 0,108.2 41.3,199.2 124.5,271.5 83.2,72.4 204.6,108.9 364.1,108.9 157.9,0 298.7,-34.2 422.4,-103.4 122.9,-68.5 213.9,-162.6 271.5,-281.6 44.3,-92.6 66.1,-228.7 66.1,-408.4l2.3 -149.4z"/>
  <polygon id="_39" class="fil1" points="24422.3,43654 24833,43654 24833,44662.1 25971.9,44662.1 25971.9,43654 26382.6,43654 26382.6,46076.3 25971.9,46076.3 25971.9,45002.8 24833,45002.8 24833,46076.3 24422.3,46076.3 "/>
  <polygon id="_40" class="fil1" points="26999.5,43654 27410.2,43654 27410.2,45501.5 28551.4,43654 28992.5,43654 28992.5,46076.3 28581.8,46076.3 28581.8,44240.5 27442.1,46076.3 26999.5,46076.3 "/>
  <path id="_41" class="fil1" d="M31516 43654l0 2422.3 -410.7 0 0 -942.8 -236.5 0c-143.9,0 -251.3,18.7 -322.1,56.8 -70.7,38.1 -174.2,157.1 -310.4,358.6l-360.9 527.4 -508.7 0 443.4 -650.3c135.3,-199.1 270.7,-311.1 405.2,-336.8 -234.1,-31.9 -408.3,-116.7 -521.9,-253.6 -113.6,-136.9 -170.4,-294.8 -170.4,-473 0,-210.8 73.9,-381.1 222.5,-511.8 148.6,-131.5 364,-196.8 645.7,-196.8l1124.8 0zm-410.7 340.7l-583.5 0c-244.2,0 -402.1,38.1 -472.9,114.3 -70.8,76.3 -105.8,165.7 -105.8,267.6 0,144.7 52.1,251.3 156.4,319 103.4,67.7 287.8,101.9 552.3,101.9l453.5 0 0 -802.8z"/>
  <path id="_42" class="fil1" d="M33412.5 47007.5l-46.7 -379.6c90.3,24.1 168.1,36.5 235,36.5 91.8,0 164.9,-15.5 219.4,-45.8 55.2,-30.4 100.3,-73.2 135.3,-127.6 25.7,-41.3 67.7,-143.2 125.2,-306.5 7.8,-22.6 19.5,-56 36.6,-100.4l-919.5 -2430.1 438.8 0 505.6 1398.6c66.1,176.6 124.5,363.3 176.6,559.3 47.4,-184.3 103.4,-366.4 168.8,-545.3l516.5 -1412.6 410 0 -915.6 2464.4c-98.8,265.2 -175.8,447.2 -231.1,547.6 -73.1,134.6 -157.1,233.4 -251.2,296.4 -94.9,63 -207.7,94.1 -338.4,94.1 -79.4,0 -168,-16.3 -265.3,-49z"/>
  <path id="_43" class="fil1" d="M37295 45189.5l401.4 56c-44.3,276.2 -156.3,491.7 -337.6,648 -181.2,156.4 -404.5,234.2 -668.2,234.2 -330.6,0 -596.7,-108.1 -797.4,-324.4 -201.4,-216.2 -301.8,-525.9 -301.8,-928.8 0,-261.4 43.6,-489.3 129.9,-685.4 86.4,-195.2 217.8,-342.2 395.2,-439.5 176.6,-98 368.7,-147 577.2,-147 262.2,0 477.6,66.1 644.1,199.2 167.3,133 274.6,322 321.3,566.3l-396.7 60.6c-38.2,-162.5 -105.1,-284.7 -202.3,-367.1 -96.5,-81.7 -213.1,-122.9 -350,-122.9 -207,0 -375,73.9 -504.9,221.7 -129.1,148.5 -193.7,381.9 -193.7,702.4 0,325.2 62.2,560.9 186.7,707.9 125.2,147 287.8,220.9 487.7,220.9 161.8,0 296.4,-49 403.8,-147.8 108.1,-98 176.5,-249.7 205.3,-454.3z"/>
  <path id="_44" class="fil1" d="M38247.2 43654l1909 0 0 2420 -410.8 0 0 -2079.3 -1087.5 0 0 1204.9c0,280.9 -9.3,466 -27.2,556.3 -18.7,89.4 -68.5,167.2 -150.2,234.1 -82.4,66.9 -200.7,100.3 -355.5,100.3 -95.6,0 -206.1,-6.2 -330.6,-17.8l0 -341.6 179.7 0c84.8,0 145.5,-8.5 182.1,-26.4 36.5,-17.1 60.6,-45.1 73.1,-83.2 11.7,-38.2 17.9,-161.8 17.9,-371.1l0 -1596.2z"/>
  <path id="_45" class="fil1" d="M40751.3 47007.5l-46.7 -379.6c90.2,24.1 168,36.5 234.9,36.5 91.8,0 164.9,-15.5 219.4,-45.8 55.2,-30.4 100.3,-73.2 135.3,-127.6 25.7,-41.3 67.7,-143.2 125.3,-306.5 7.7,-22.6 19.4,-56 36.5,-100.4l-919.5 -2430.1 438.8 0 505.6 1398.6c66.2,176.6 124.5,363.3 176.6,559.3 47.5,-184.3 103.5,-366.4 168.8,-545.3l516.5 -1412.6 410 0 -915.6 2464.4c-98.8,265.2 -175.8,447.2 -231,547.6 -73.1,134.6 -157.2,233.4 -251.3,296.4 -94.9,63 -207.7,94.1 -338.4,94.1 -79.3,0 -168,-16.3 -265.2,-49z"/>
  <polygon id="_46" class="fil1" points="43103.6,43654 44499.2,43654 44499.2,43994.7 43514.4,43994.7 43514.4,46076.3 43103.6,46076.3 "/>
  <path id="_47" class="fil1" d="M46083.8 47007.5l-46.7 -379.6c90.2,24.1 168,36.5 234.9,36.5 91.8,0 165,-15.5 219.4,-45.8 55.2,-30.4 100.4,-73.2 135.4,-127.6 25.6,-41.3 67.6,-143.2 125.2,-306.5 7.8,-22.6 19.5,-56 36.6,-100.4l-919.5 -2430.1 438.7 0 505.7 1398.6c66.1,176.6 124.4,363.3 176.5,559.3 47.5,-184.3 103.5,-366.4 168.8,-545.3l516.6 -1412.6 409.9 0 -915.5 2464.4c-98.9,265.2 -175.9,447.2 -231.1,547.6 -73.1,134.6 -157.1,233.4 -251.3,296.4 -94.9,63 -207.7,94.1 -338.3,94.1 -79.4,0 -168.1,-16.3 -265.3,-49z"/>
  <path id="_48" class="fil1" d="M48282.2 43654l410.7 0 0 457.4c0,197.5 11.6,340.7 35.8,429.4 23.3,88.7 80.1,166.4 170.3,232.6 89.5,66.1 202.3,98.8 338.4,98.8 155.6,0 356.3,-41.3 603.7,-123l0 -1095.2 410.7 0 0 2422.3 -410.7 0 0 -977.8c-252.9,79.4 -489.4,119 -708.7,119 -184.4,0 -347,-46.6 -487.8,-140 -140.8,-93.3 -236.4,-207.7 -287,-343 -50.6,-135.4 -75.4,-284 -75.4,-446.6l0 -633.9z"/>
  <path id="_49" class="fil1" d="M50867.9 47005.2l0 -3351.2 373.4 0 0 318.1c87.9,-122.9 187.4,-215.5 298.7,-276.9 110.5,-61.5 245,-92.6 403,-92.6 206.9,0 388.9,52.9 546.8,159.5 157.9,105.8 277,255.9 357.9,448.8 80.1,193.7 120.5,405.3 120.5,636.4 0,246.6 -44.3,469 -133,667.4 -88.7,197.6 -217.8,349.3 -387.4,455.1 -168.8,105 -346.9,157.9 -533.6,157.9 -136.9,0 -259.8,-28.8 -368,-86.4 -108.9,-57.5 -197.6,-129.9 -267.6,-217.8l0 1181.7 -410.7 0zm373.4 -2125.3c0,310.4 63,539.9 188.2,688.5 126.1,148.5 278.5,223.2 457.4,223.2 182.1,0 337.6,-77 466.8,-231 129.9,-154 194.5,-392.1 194.5,-714.9 0,-308.1 -63,-538.3 -189.9,-691.6 -126.8,-153.2 -277.7,-229.4 -453.5,-229.4 -174.2,0 -328.2,81.6 -462,244.2 -134.6,163.4 -201.5,399.9 -201.5,711z"/>
  <path id="_50" class="fil1" d="M55116 45292.2l424.7 56c-66.1,246.6 -189.8,438.8 -370.2,574.9 -180.5,136.1 -410.8,204.6 -691.6,204.6 -353.2,0 -633.2,-108.9 -840.1,-326.7 -206.9,-217.1 -310.4,-522.8 -310.4,-915.6 0,-406.1 104.2,-721.9 313.5,-946 209.3,-224.8 480.7,-336.8 814.4,-336.8 322.9,0 586.6,109.7 791.2,329.8 204.6,220.2 307.2,529.8 307.2,928.9 0,24.1 -0.7,60.6 -2.3,108.9l-1803.9 0c15.5,265.2 90.2,469 225.6,609.9 134.5,140.8 303.3,211.5 504.8,211.5 150.1,0 278.5,-39.7 384.3,-119 106.6,-79.3 190.6,-206.1 252.8,-380.4zm-1344.2 -658.1l1348.9 0c-17.9,-203.8 -70,-356.3 -154.8,-458.2 -129.9,-157.9 -299.5,-237.2 -507.2,-237.2 -188.3,0 -346.2,63 -474.5,189 -127.6,126 -198.4,294.8 -212.4,506.4z"/>
  <path id="_51" class="fil1" d="M57473 43654l0 1045.4c132.3,0 225.6,-24.8 279.3,-73.9 53.7,-49.7 130.7,-195.2 230.3,-437.9 93.3,-230.3 178.1,-376.5 254.3,-440.3 74.7,-62.2 193,-93.3 355.5,-93.3l150.2 0 0 338.3 -111.3 -2.3c-109.6,0 -178.9,16.3 -209.2,48.2 -31.9,33.5 -80.9,133.1 -146.3,298.7 -60.6,158.8 -116.6,267.6 -168,329.1 -51.3,60.7 -132.2,115.9 -241.1,166.5 177.3,47.4 350,211.6 518.8,493.2l450.4 750.6 -451.2 0 -438.7 -749.9c-89.4,-152.4 -168,-252 -234.1,-299.4 -66.9,-47.5 -146.3,-70.8 -238.9,-70.8l0 1120.1 -420 0 0 -1120.1c-91.1,0 -169.6,23.3 -235.7,70 -66.9,46.7 -144.7,147 -233.4,301l-442.6 749.1 -451.2 0 448.8 -750.6c170.4,-281.6 344.6,-445.8 522,-493.2 -121.3,-56 -206.9,-117.5 -255.1,-183.6 -49,-66.1 -121.4,-224 -218.6,-473.8 -33.5,-84 -69.3,-135.3 -107.4,-154 -39.6,-19.4 -98,-28.8 -175.8,-28.8 -19.4,0 -59.9,0.8 -120.6,2.4l0 -340.7 56.8 0c158.7,0 270,9.3 334.5,28.7 64.6,18.7 122.2,59.2 173.5,120.6 50.6,61.5 116.7,189 197.6,384.3 98.8,238.8 175,383.5 227.9,434.9 52.9,51.3 146.3,76.9 279.3,76.9l0 -1045.4 420 0z"/>
  <path id="_52" class="fil1" d="M59452 43654l1689.6 0 0 2086.3 261.4 0 0 1022.1 -336 0 0 -686.1 -1909 0 0 686.1 -336.1 0 0 -1022.1 214.7 0c289.4,-392.9 427.9,-1088.3 415.4,-2086.3zm340.7 340.7c-30.3,786.4 -151.6,1368.3 -364,1745.6l1302.2 0 0 -1745.6 -938.2 0z"/>
  <path id="_53" class="fil1" d="M63505.7 45292.2l424.7 56c-66.1,246.6 -189.8,438.8 -370.2,574.9 -180.5,136.1 -410.8,204.6 -691.6,204.6 -353.2,0 -633.2,-108.9 -840.1,-326.7 -207,-217.1 -310.4,-522.8 -310.4,-915.6 0,-406.1 104.2,-721.9 313.5,-946 209.2,-224.8 480.7,-336.8 814.4,-336.8 322.9,0 586.6,109.7 791.1,329.8 204.6,220.2 307.3,529.8 307.3,928.9 0,24.1 -0.7,60.6 -2.3,108.9l-1804 0c15.6,265.2 90.3,469 225.6,609.9 134.6,140.8 303.4,211.5 504.9,211.5 150.1,0 278.5,-39.7 384.3,-119 106.5,-79.3 190.6,-206.1 252.8,-380.4zm-1344.2 -658.1l1348.8 0c-17.8,-203.8 -70,-356.3 -154.8,-458.2 -129.9,-157.9 -299.4,-237.2 -507.2,-237.2 -188.2,0 -346.1,63 -474.5,189 -127.5,126 -198.3,294.8 -212.3,506.4z"/>
  <polygon id="_54" class="fil1" points="64449.3,43654 64860,43654 64860,44662.1 65998.9,44662.1 65998.9,43654 66409.6,43654 66409.6,46076.3 65998.9,46076.3 65998.9,45002.8 64860,45002.8 64860,46076.3 64449.3,46076.3 "/>
  <polygon id="_55" class="fil1" points="67026.5,43654 67437.2,43654 67437.2,45501.5 68578.4,43654 69019.5,43654 69019.5,46076.3 68608.7,46076.3 68608.7,44240.5 67469.1,46076.3 67026.5,46076.3 "/>
  <path id="_56" class="fil1" d="M71543 43654l0 2422.3 -410.7 0 0 -942.8 -236.5 0c-144,0 -251.3,18.7 -322.1,56.8 -70.8,38.1 -174.2,157.1 -310.4,358.6l-360.9 527.4 -508.7 0 443.4 -650.3c135.3,-199.1 270.7,-311.1 405.2,-336.8 -234.1,-31.9 -408.4,-116.7 -522,-253.6 -113.5,-136.9 -170.3,-294.8 -170.3,-473 0,-210.8 73.9,-381.1 222.5,-511.8 148.6,-131.5 364,-196.8 645.7,-196.8l1124.8 0zm-410.7 340.7l-583.5 0c-244.2,0 -402.1,38.1 -472.9,114.3 -70.8,76.3 -105.8,165.7 -105.8,267.6 0,144.7 52.1,251.3 156.3,319 103.5,67.7 287.8,101.9 552.3,101.9l453.6 0 0 -802.8z"/>
  <polygon id="_57" class="fil1" points="72175.4,43654 72807.1,43654 73447.3,45592.5 74155.9,43654 74742.5,43654 74742.5,46076.3 74331.8,46076.3 74331.8,44126.1 73618.4,46076.3 73251.2,46076.3 72576.8,44032.8 72576.8,46076.3 72175.4,46076.3 "/>
  <polygon id="_58" class="fil1" points="75370.3,43654 75781,43654 75781,45501.5 76922.2,43654 77363.2,43654 77363.2,46076.3 76952.5,46076.3 76952.5,44240.5 75812.9,46076.3 75370.3,46076.3 "/>
  <path id="_59" class="fil1" d="M79269.9 43654l410.7 0 0 1045.4c130.7,0 222.5,-24.8 275.4,-75.4 52.1,-49.8 129.1,-195.3 231.8,-437.2 80.9,-191.3 146.3,-317.4 196.1,-378 50.5,-60.7 108.1,-101.9 173.4,-122.9 66.1,-21 171.2,-31.9 315.1,-31.9l82.4 0 0 338.3 -114.3 -2.3c-108.1,0 -177.4,16.3 -207.7,48.2 -31.9,33.5 -80.9,133.1 -146.3,298.7 -62.2,158.8 -119,268.4 -171.1,329.1 -51.4,60.7 -131.5,115.9 -239.6,166.5 176.6,47.4 350.8,211.6 522,493.2l450.4 750.6 -451.2 0 -444.2 -748.3c-89.5,-151.7 -167.2,-251.3 -233.4,-299.5 -66.9,-48.2 -146.2,-72.3 -238.8,-72.3l0 1120.1 -410.7 0 0 -2422.3z"/>
  <path id="_60" class="fil1" d="M81350 47007.5l-46.7 -379.6c90.3,24.1 168.1,36.5 235,36.5 91.8,0 164.9,-15.5 219.3,-45.8 55.3,-30.4 100.4,-73.2 135.4,-127.6 25.7,-41.3 67.7,-143.2 125.2,-306.5 7.8,-22.6 19.5,-56 36.6,-100.4l-919.5 -2430.1 438.7 0 505.7 1398.6c66.1,176.6 124.5,363.3 176.6,559.3 47.4,-184.3 103.4,-366.4 168.8,-545.3l516.5 -1412.6 410 0 -915.6 2464.4c-98.8,265.2 -175.8,447.2 -231.1,547.6 -73.1,134.6 -157.1,233.4 -251.2,296.4 -94.9,63 -207.7,94.1 -338.4,94.1 -79.4,0 -168,-16.3 -265.3,-49z"/>
  <path id="_61" class="fil1" d="M83800.4 43654l1909 0 0 2420 -410.7 0 0 -2079.3 -1087.6 0 0 1204.9c0,280.9 -9.3,466 -27.2,556.3 -18.6,89.4 -68.4,167.2 -150.1,234.1 -82.5,66.9 -200.7,100.3 -355.5,100.3 -95.7,0 -206.1,-6.2 -330.6,-17.8l0 -341.6 179.7 0c84.8,0 145.4,-8.5 182,-26.4 36.6,-17.1 60.7,-45.1 73.1,-83.2 11.7,-38.2 17.9,-161.8 17.9,-371.1l0 -1596.2z"/>
  <path id="_62" class="fil1" d="M86313.8 43654l410.8 0 0 947.4 519.6 0c339.2,0 599.8,65.4 783.3,196.9 182.8,131.4 274.6,312.7 274.6,543.7 0,202.3 -76.2,374.9 -229.4,518.9 -152.5,143.9 -396.8,215.4 -732.8,215.4l-1026.1 0 0 -2422.3zm410.8 2086.3l432.5 0c260.6,0 446.5,-31.9 557.7,-95.7 111.3,-63.8 167.3,-163.4 167.3,-298.7 0,-105 -41.2,-198.4 -123.7,-280.8 -82.5,-81.7 -264.5,-122.9 -546.9,-122.9l-486.9 0 0 798.1z"/>
  <polygon id="_63" class="fil1" points="88175.3,43654 90135.7,43654 90135.7,43994.7 89360.9,43994.7 89360.9,46076.3 88950.1,46076.3 88950.1,43994.7 88175.3,43994.7 "/>
  <path id="_64" class="fil1" d="M90561.2 47007.5l-46.7 -379.6c90.2,24.1 168,36.5 234.9,36.5 91.8,0 164.9,-15.5 219.4,-45.8 55.2,-30.4 100.3,-73.2 135.4,-127.6 25.6,-41.3 67.6,-143.2 125.2,-306.5 7.8,-22.6 19.4,-56 36.6,-100.4l-919.5 -2430.1 438.7 0 505.6 1398.6c66.2,176.6 124.5,363.3 176.6,559.3 47.5,-184.3 103.5,-366.4 168.8,-545.3l516.5 -1412.6 410 0 -915.6 2464.4c-98.8,265.2 -175.8,447.2 -231,547.6 -73.1,134.6 -157.1,233.4 -251.3,296.4 -94.9,63 -207.7,94.1 -338.4,94.1 -79.3,0 -168,-16.3 -265.2,-49z"/>
  <path id="_65" class="fil1" d="M92861.4 47005.2l0 -3351.2 373.4 0 0 318.1c87.9,-122.9 187.5,-215.5 298.7,-276.9 110.5,-61.5 245.1,-92.6 403,-92.6 206.9,0 388.9,52.9 546.8,159.5 158,105.8 277,255.9 357.9,448.8 80.1,193.7 120.5,405.3 120.5,636.4 0,246.6 -44.3,469 -133,667.4 -88.7,197.6 -217.8,349.3 -387.4,455.1 -168.8,105 -346.9,157.9 -533.6,157.9 -136.9,0 -259.8,-28.8 -368,-86.4 -108.9,-57.5 -197.5,-129.9 -267.6,-217.8l0 1181.7 -410.7 0zm373.4 -2125.3c0,310.4 63,539.9 188.3,688.5 126,148.5 278.4,223.2 457.4,223.2 182,0 337.6,-77 466.7,-231 129.9,-154 194.5,-392.1 194.5,-714.9 0,-308.1 -63,-538.3 -189.8,-691.6 -126.8,-153.2 -277.7,-229.4 -453.6,-229.4 -174.2,0 -328.2,81.6 -462,244.2 -134.6,163.4 -201.5,399.9 -201.5,711z"/>
  <path id="_66" class="fil1" d="M97763 43654l410.7 0 0 2422.3 -410.7 0 0 -2422.3zm-2291.7 0l410.7 0 0 947.4 518.1 0c338.4,0 598.2,65.4 781,196.9 182.8,131.4 273.8,312.7 273.8,543.7 0,202.3 -76.2,374.9 -228.7,518.9 -152.5,143.9 -395.9,215.4 -731.2,215.4l-1023.7 0 0 -2422.3zm410.7 2086.3l431 0c259,0 444.9,-31.9 555.4,-95.7 111.2,-63.8 166.5,-163.4 166.5,-298.7 0,-105 -41.3,-198.4 -123,-280.8 -82.4,-81.7 -263.7,-122.9 -544.5,-122.9l-485.4 0 0 798.1z"/>
 </g>
</svg>
