<?xml version="1.0" encoding="UTF-8" standalone="no"?>
<!DOCTYPE svg PUBLIC "-//W3C//DTD SVG 1.1//EN" "http://www.w3.org/Graphics/SVG/1.1/DTD/svg11.dtd">
<svg width="100%" height="100%" viewBox="0 0 109 105" version="1.1" xmlns="http://www.w3.org/2000/svg" xmlns:xlink="http://www.w3.org/1999/xlink" xml:space="preserve" xmlns:serif="http://www.serif.com/" style="fill-rule:evenodd;clip-rule:evenodd;stroke-linejoin:round;stroke-miterlimit:2;">
    <g transform="matrix(0.24,0,0,0.24,-381.524,-445.428)">
        <g id="Слой-1" serif:id="Слой 1" transform="matrix(4.16667,0,0,4.16667,0,0)">
            <g transform="matrix(1,0,0,1,476.782,445.428)">
                <path d="M0,104.4L-82.275,104.4C-89.445,104.4 -95.258,98.588 -95.258,91.418L-95.258,12.982C-95.258,5.812 -89.445,0 -82.275,0L0,0C7.17,0 12.982,5.812 12.982,12.982L12.982,91.418C12.982,98.588 7.17,104.4 0,104.4" style="fill:rgb(46,42,103);fill-rule:nonzero;"/>
            </g>
            <g transform="matrix(98.7368,94.0071,94.0071,-98.7368,386.71,451.036)">
                <path d="M0.021,0.061C-0.012,0.029 -0.013,-0.024 0.019,-0.057L0.416,-0.474C0.447,-0.507 0.5,-0.508 0.533,-0.477L0.97,-0.061C1.003,-0.029 1.004,0.024 0.973,0.057L0.576,0.474C0.544,0.507 0.491,0.508 0.458,0.477L0.021,0.061Z" style="fill:url(#_Linear1);fill-rule:nonzero;"/>
            </g>
            <g transform="matrix(82.4731,0,0,-82.4731,398.373,533.476)">
                <path d="M0.137,0.079C0.118,0.062 0.107,0.04 0.104,0.012L0.07,0.012L0.07,0.073C0.07,0.078 0.071,0.081 0.073,0.083C0.075,0.085 0.078,0.087 0.082,0.087L0.103,0.087L0.103,0.1L0.001,0.1L0.001,0.087L0.021,0.087C0.026,0.087 0.029,0.085 0.032,0.083C0.034,0.081 0.035,0.078 0.035,0.073L0.035,-0.074C0.035,-0.079 0.034,-0.082 0.031,-0.084C0.029,-0.086 0.024,-0.087 0.018,-0.087L0.001,-0.087L0.001,-0.1L0.103,-0.1L0.103,-0.087L0.086,-0.087C0.08,-0.087 0.075,-0.086 0.073,-0.084C0.071,-0.082 0.07,-0.079 0.07,-0.074L0.07,-0.002L0.104,-0.003C0.104,-0.033 0.114,-0.058 0.133,-0.076C0.153,-0.095 0.178,-0.105 0.208,-0.105C0.239,-0.105 0.264,-0.095 0.283,-0.076C0.303,-0.056 0.313,-0.031 0.313,-0C0.313,0.03 0.303,0.056 0.283,0.075C0.264,0.095 0.239,0.105 0.208,0.105C0.18,0.105 0.156,0.096 0.137,0.079ZM0.161,-0.07C0.15,-0.054 0.145,-0.031 0.145,-0C0.145,0.031 0.15,0.054 0.161,0.069C0.171,0.084 0.187,0.092 0.208,0.092C0.23,0.092 0.246,0.084 0.256,0.069C0.266,0.054 0.272,0.031 0.272,-0C0.272,-0.031 0.266,-0.054 0.256,-0.069C0.245,-0.085 0.229,-0.092 0.208,-0.092C0.187,-0.092 0.171,-0.085 0.161,-0.07Z" style="fill:url(#_Linear2);fill-rule:nonzero;"/>
            </g>
            <g transform="matrix(82.473,0,0,-82.473,398.373,533.526)">
                <path d="M0.371,0.075C0.352,0.055 0.342,0.03 0.342,-0.001C0.342,-0.031 0.352,-0.055 0.372,-0.075C0.392,-0.095 0.417,-0.105 0.448,-0.105C0.472,-0.105 0.493,-0.098 0.509,-0.085C0.525,-0.072 0.535,-0.054 0.538,-0.031L0.523,-0.029C0.519,-0.049 0.51,-0.065 0.498,-0.075C0.486,-0.086 0.471,-0.091 0.452,-0.091C0.429,-0.091 0.411,-0.084 0.4,-0.069C0.389,-0.054 0.383,-0.031 0.383,0C0.383,0.031 0.389,0.054 0.4,0.069C0.411,0.085 0.428,0.092 0.45,0.092C0.468,0.092 0.483,0.086 0.495,0.074C0.507,0.062 0.515,0.045 0.52,0.023L0.532,0.023L0.528,0.103L0.516,0.103L0.504,0.086C0.495,0.093 0.486,0.097 0.477,0.1C0.467,0.103 0.457,0.105 0.446,0.105C0.416,0.105 0.391,0.095 0.371,0.075Z" style="fill:url(#_Linear3);fill-rule:nonzero;"/>
            </g>
            <g transform="matrix(82.4735,0,0,-82.4735,398.373,533.526)">
                <path d="M0.593,0.075C0.574,0.055 0.564,0.03 0.564,-0.001C0.564,-0.031 0.574,-0.055 0.594,-0.075C0.614,-0.095 0.639,-0.105 0.67,-0.105C0.695,-0.105 0.715,-0.098 0.731,-0.085C0.747,-0.072 0.757,-0.054 0.761,-0.031L0.745,-0.029C0.741,-0.049 0.732,-0.065 0.72,-0.075C0.708,-0.086 0.693,-0.091 0.674,-0.091C0.651,-0.091 0.634,-0.084 0.622,-0.069C0.611,-0.054 0.606,-0.031 0.606,0C0.606,0.031 0.611,0.054 0.622,0.069C0.633,0.085 0.65,0.092 0.672,0.092C0.69,0.092 0.705,0.086 0.717,0.074C0.729,0.062 0.737,0.045 0.742,0.023L0.754,0.023L0.75,0.103L0.738,0.103L0.726,0.086C0.718,0.093 0.709,0.097 0.699,0.1C0.69,0.103 0.679,0.105 0.668,0.105C0.638,0.105 0.613,0.095 0.593,0.075Z" style="fill:url(#_Linear4);fill-rule:nonzero;"/>
            </g>
            <g transform="matrix(82.4734,0,0,-82.4734,398.373,533.476)">
                <path d="M0.817,0.075C0.796,0.055 0.786,0.03 0.786,-0C0.786,-0.031 0.796,-0.056 0.817,-0.075C0.838,-0.095 0.864,-0.105 0.896,-0.105C0.928,-0.105 0.955,-0.095 0.975,-0.075C0.996,-0.056 1.006,-0.031 1.006,-0C1.006,0.03 0.996,0.056 0.975,0.075C0.955,0.095 0.928,0.105 0.896,0.105C0.864,0.105 0.838,0.095 0.817,0.075ZM0.845,-0.069C0.833,-0.054 0.828,-0.031 0.828,-0C0.828,0.031 0.833,0.054 0.845,0.069C0.856,0.084 0.873,0.092 0.896,0.092C0.919,0.092 0.937,0.084 0.948,0.069C0.959,0.054 0.965,0.031 0.965,-0C0.965,-0.031 0.959,-0.054 0.948,-0.069C0.936,-0.085 0.919,-0.092 0.896,-0.092C0.873,-0.092 0.856,-0.085 0.845,-0.069Z" style="fill:url(#_Linear5);fill-rule:nonzero;"/>
            </g>
            <g transform="matrix(94.1087,0,0,-94.1087,388.591,516.616)">
                <path d="M-0,-0.001L0.048,-0.022C0.287,0.009 1,-0.007 1,-0.007L1,0.005C1,0.005 0.287,-0.004 0.049,0.022L-0,-0.001Z" style="fill:url(#_Linear6);fill-rule:nonzero;"/>
            </g>
            <g transform="matrix(-39.1304,32.9348,32.9348,39.1304,473.802,478.248)">
                <path d="M0.169,-0.406C0.243,-0.4 0.307,-0.243 0.319,-0.228C0.431,-0.096 0.813,-0.074 0.834,-0.072C0.854,-0.071 0.87,-0.053 0.923,-0.059C0.976,-0.066 1.028,-0.096 1.028,-0.096L1.004,-0.041C0.883,-0.016 0.508,0.099 0.426,0.168C0.38,0.206 0.299,0.306 0.342,0.338C0.386,0.37 0.815,0.12 0.85,0.101C0.884,0.082 0.886,0.09 0.908,0.091C0.87,0.124 0.678,0.232 0.639,0.251C0.601,0.27 0.524,0.326 0.467,0.355C0.409,0.383 0.323,0.396 0.292,0.36C0.262,0.324 0.264,0.239 0.377,0.142C0.49,0.045 0.63,0.034 0.668,0.027C0.705,0.021 0.766,0.013 0.801,-0.016C0.784,-0.027 0.67,0 0.629,0.01C0.589,0.019 0.422,0.052 0.351,0.112C0.28,0.172 0.284,0.3 0.158,0.308C0.066,0.313 -0.001,0.164 0,-0.039C0.001,-0.195 0.047,-0.332 0.109,-0.384C0.128,-0.4 0.148,-0.408 0.169,-0.406Z" style="fill:url(#_Linear7);fill-rule:nonzero;"/>
            </g>
            <g transform="matrix(-7.04348,-13.7609,-13.7609,7.04348,472.961,494.778)">
                <path d="M1.818,0.21C1.763,0.453 1.301,0.556 0.787,0.44C0.272,0.325 -0.101,0.034 -0.046,-0.21C0.009,-0.453 0.47,-0.556 0.985,-0.44C1.379,-0.352 1.69,-0.16 1.79,0.034C1.82,0.093 1.831,0.153 1.818,0.21Z" style="fill:url(#_Linear8);fill-rule:nonzero;"/>
            </g>
            <g transform="matrix(30.3413,27.2525,27.2525,-30.3413,421.328,476.269)">
                <path d="M0.593,-0.537C0.696,-0.353 0.724,-0.145 0.712,0.046C0.699,0.237 0.593,0.434 0.593,0.434L0.36,0.534C0.756,0.104 0.668,-0.268 0.593,-0.537Z" style="fill:url(#_Linear9);fill-rule:nonzero;"/>
            </g>
            <g transform="matrix(42.2379,22.2643,22.2643,-42.2379,407.513,469.045)">
                <path d="M0.611,-0.628C0.787,-0.408 0.816,-0.165 0.786,0.057C0.756,0.278 0.611,0.482 0.611,0.482L0.294,0.532C0.675,0.26 0.883,-0.233 0.611,-0.628Z" style="fill:url(#_Linear10);fill-rule:nonzero;"/>
            </g>
            <g transform="matrix(-15.4565,51.3587,51.3587,15.4565,427.095,457.26)">
                <path d="M0.406,0.196C0.735,0.295 0.953,0.121 0.995,-0.018C1.037,-0.156 0.984,-0.315 0.854,-0.354C0.723,-0.393 0.617,-0.317 0.591,-0.233C0.566,-0.15 0.612,-0.024 0.711,0.006C0.81,0.036 0.872,-0.032 0.891,-0.095C0.91,-0.158 0.867,-0.224 0.817,-0.239C0.77,-0.253 0.718,-0.242 0.701,-0.183C0.683,-0.123 0.732,-0.078 0.778,-0.085C0.753,-0.098 0.74,-0.119 0.749,-0.148C0.756,-0.173 0.793,-0.185 0.813,-0.179C0.828,-0.174 0.858,-0.149 0.846,-0.11C0.835,-0.072 0.791,-0.059 0.747,-0.072C0.688,-0.09 0.672,-0.148 0.684,-0.189C0.696,-0.23 0.746,-0.283 0.824,-0.26C0.902,-0.236 0.925,-0.139 0.911,-0.092C0.88,0.01 0.783,0.046 0.713,0.025C0.588,-0.012 0.544,-0.145 0.572,-0.235C0.613,-0.373 0.752,-0.411 0.855,-0.38C1.013,-0.332 1.064,-0.153 1.018,-0.002C0.971,0.156 0.691,0.354 0.329,0.245C0.155,0.193 -0,0.075 -0,0.075L-0.037,-0.11C-0.037,-0.11 0.145,0.118 0.406,0.196Z" style="fill:url(#_Linear11);fill-rule:nonzero;"/>
            </g>
        </g>
    </g>
    <defs>
        <linearGradient id="_Linear1" x1="0" y1="0" x2="1" y2="0" gradientUnits="userSpaceOnUse" gradientTransform="matrix(1,0,0,-1,0,-7.01125e-06)"><stop offset="0" style="stop-color:rgb(201,153,23);stop-opacity:1"/><stop offset="0.51" style="stop-color:rgb(250,244,173);stop-opacity:1"/><stop offset="1" style="stop-color:rgb(190,150,59);stop-opacity:1"/></linearGradient>
        <linearGradient id="_Linear2" x1="0" y1="0" x2="1" y2="0" gradientUnits="userSpaceOnUse" gradientTransform="matrix(1,0,0,-1,0,-7.06897e-06)"><stop offset="0" style="stop-color:rgb(46,45,68);stop-opacity:1"/><stop offset="1" style="stop-color:rgb(54,48,132);stop-opacity:1"/></linearGradient>
        <linearGradient id="_Linear3" x1="0" y1="0" x2="1" y2="0" gradientUnits="userSpaceOnUse" gradientTransform="matrix(1,0,0,-1,0,-2.33289e-06)"><stop offset="0" style="stop-color:rgb(46,45,68);stop-opacity:1"/><stop offset="1" style="stop-color:rgb(54,48,132);stop-opacity:1"/></linearGradient>
        <linearGradient id="_Linear4" x1="0" y1="0" x2="1" y2="0" gradientUnits="userSpaceOnUse" gradientTransform="matrix(1,0,0,-1,0,-2.33287e-06)"><stop offset="0" style="stop-color:rgb(46,45,68);stop-opacity:1"/><stop offset="1" style="stop-color:rgb(54,48,132);stop-opacity:1"/></linearGradient>
        <linearGradient id="_Linear5" x1="0" y1="0" x2="1" y2="0" gradientUnits="userSpaceOnUse" gradientTransform="matrix(1,0,0,-1,0,-7.06895e-06)"><stop offset="0" style="stop-color:rgb(46,45,68);stop-opacity:1"/><stop offset="1" style="stop-color:rgb(54,48,132);stop-opacity:1"/></linearGradient>
        <linearGradient id="_Linear6" x1="0" y1="0" x2="1" y2="0" gradientUnits="userSpaceOnUse" gradientTransform="matrix(1,0,0,-1,0,3.62134e-06)"><stop offset="0" style="stop-color:rgb(46,45,68);stop-opacity:1"/><stop offset="1" style="stop-color:rgb(54,48,132);stop-opacity:1"/></linearGradient>
        <linearGradient id="_Linear7" x1="0" y1="0" x2="1" y2="0" gradientUnits="userSpaceOnUse" gradientTransform="matrix(1,0,0,-1,0,-0.0123469)"><stop offset="0" style="stop-color:rgb(36,37,71);stop-opacity:1"/><stop offset="0.68" style="stop-color:rgb(52,47,130);stop-opacity:1"/><stop offset="1" style="stop-color:rgb(52,47,130);stop-opacity:1"/></linearGradient>
        <linearGradient id="_Linear8" x1="0" y1="0" x2="1" y2="0" gradientUnits="userSpaceOnUse" gradientTransform="matrix(1,0,0,-1,0,-1.22981e-05)"><stop offset="0" style="stop-color:rgb(35,36,60);stop-opacity:1"/><stop offset="1" style="stop-color:rgb(50,49,131);stop-opacity:1"/></linearGradient>
        <linearGradient id="_Linear9" x1="0" y1="0" x2="1" y2="0" gradientUnits="userSpaceOnUse" gradientTransform="matrix(-0.138891,-0.990308,-0.990308,0.138891,0.578812,0.503299)"><stop offset="0" style="stop-color:rgb(36,37,71);stop-opacity:1"/><stop offset="0.68" style="stop-color:rgb(52,47,130);stop-opacity:1"/><stop offset="1" style="stop-color:rgb(52,47,130);stop-opacity:1"/></linearGradient>
        <linearGradient id="_Linear10" x1="0" y1="0" x2="1" y2="0" gradientUnits="userSpaceOnUse" gradientTransform="matrix(-0.376537,-0.926401,-0.926401,0.376537,0.67648,0.455267)"><stop offset="0" style="stop-color:rgb(36,37,71);stop-opacity:1"/><stop offset="0.68" style="stop-color:rgb(52,47,130);stop-opacity:1"/><stop offset="1" style="stop-color:rgb(52,47,130);stop-opacity:1"/></linearGradient>
        <linearGradient id="_Linear11" x1="0" y1="0" x2="1" y2="0" gradientUnits="userSpaceOnUse" gradientTransform="matrix(1,0,0,-1,0,-0.056796)"><stop offset="0" style="stop-color:rgb(36,37,71);stop-opacity:1"/><stop offset="0.68" style="stop-color:rgb(52,47,130);stop-opacity:1"/><stop offset="1" style="stop-color:rgb(52,47,130);stop-opacity:1"/></linearGradient>
    </defs>
</svg>
