<svg id="a6620d4c-f6e5-47a1-9921-95989feadcf1" data-name="Layer 1" xmlns="http://www.w3.org/2000/svg" viewBox="0 0 28 28"><circle cx="14" cy="14" r="14" style="fill:#005ff9"/><path d="M16.629,14A2.629,2.629,0,1,1,14,11.371,2.632,2.632,0,0,1,16.629,14ZM14,5.259a8.741,8.741,0,1,0,4.924,15.962l.025-.018-1.178-1.369-.019.013a6.96,6.96,0,1,1,3.033-4.353,1.3,1.3,0,0,1-1.325,1.141,1.119,1.119,0,0,1-1.039-1.21V14a4.427,4.427,0,1,0-1.288,3.116,2.836,2.836,0,0,0,2.183,1.3c.078.007.157.01.236.01a2.946,2.946,0,0,0,1.774-.6,3.289,3.289,0,0,0,1.131-1.664c.034-.111.1-.367.1-.368l0-.01A7.744,7.744,0,0,0,22.741,14,8.751,8.751,0,0,0,14,5.259" style="fill:#ff9e00"/></svg>