<?xml version="1.0" encoding="UTF-8" standalone="no"?>
<!DOCTYPE svg PUBLIC "-//W3C//DTD SVG 1.1//EN" "http://www.w3.org/Graphics/SVG/1.1/DTD/svg11.dtd">
<svg width="203px" height="142px" version="1.1" xmlns="http://www.w3.org/2000/svg" xmlns:xlink="http://www.w3.org/1999/xlink" xml:space="preserve" xmlns:serif="http://www.serif.com/" style="fill-rule:evenodd;clip-rule:evenodd;stroke-linejoin:round;stroke-miterlimit:2;">
    <g transform="matrix(1,0,0,1,-48.8632,-79.2225)">
        <g transform="matrix(0.75,0,0,0.75,0,0)">
            <path d="M199.917,105.63C199.917,105.63 115.625,105.63 94.469,111.128C83.141,114.293 73.814,123.62 70.648,135.115C65.151,156.271 65.151,200.083 65.151,200.083C65.151,200.083 65.151,244.062 70.648,264.885C73.814,276.38 82.974,285.541 94.469,288.706C115.791,294.37 199.917,294.37 199.917,294.37C199.917,294.37 284.376,294.37 305.531,288.872C317.026,285.707 326.186,276.713 329.185,265.052C334.849,244.062 334.849,200.25 334.849,200.25C334.849,200.25 335.015,156.271 329.185,135.115C326.186,123.62 317.026,114.46 305.531,111.461C284.376,105.631 199.917,105.63 199.917,105.63ZM173.096,159.604L243.229,200.083L173.096,240.396L173.096,159.604Z" style="fill:rgb(255,0,0);fill-rule:nonzero;"/>
        </g>
    </g>
</svg>
