<?xml version="1.0" encoding="UTF-8" standalone="no"?>
<!DOCTYPE svg PUBLIC "-//W3C//DTD SVG 1.1//EN" "http://www.w3.org/Graphics/SVG/1.1/DTD/svg11.dtd">
<svg width="100%" height="100%" viewBox="0 0 3508 1287" version="1.1" xmlns="http://www.w3.org/2000/svg" xmlns:xlink="http://www.w3.org/1999/xlink" xml:space="preserve" xmlns:serif="http://www.serif.com/" style="fill-rule:evenodd;clip-rule:evenodd;stroke-linejoin:round;stroke-miterlimit:2;">
    <g id="Artboard1" transform="matrix(1,0,0,0.976238,0,-889.771)">
        <rect x="0" y="911.429" width="3507.87" height="1317.93" style="fill:none;"/>
        <g transform="matrix(1.75072,0,0,1.29361,0,-571.695)">
            <g transform="matrix(321.712,0,0,321.712,0,1791.75)">
                <path d="M0.08,-0.7L0.77,-0.7C0.777,-0.7 0.784,-0.697 0.789,-0.692C0.794,-0.687 0.797,-0.68 0.797,-0.673L0.797,-0.512C0.797,-0.505 0.794,-0.498 0.789,-0.493C0.784,-0.488 0.777,-0.485 0.77,-0.485L0.555,-0.485L0.555,-0.027C0.555,-0.02 0.552,-0.013 0.547,-0.008C0.542,-0.003 0.535,-0 0.528,-0L0.322,-0C0.315,-0 0.308,-0.003 0.303,-0.008C0.298,-0.013 0.295,-0.02 0.295,-0.027L0.295,-0.485L0.08,-0.485C0.073,-0.485 0.066,-0.488 0.061,-0.493C0.056,-0.498 0.053,-0.505 0.053,-0.512L0.053,-0.673C0.053,-0.68 0.056,-0.687 0.061,-0.692C0.066,-0.697 0.073,-0.7 0.08,-0.7Z" style="fill:white;fill-rule:nonzero;"/>
            </g>
            <g transform="matrix(321.712,0,0,321.712,273.455,1791.75)">
                <path d="M0.106,-0.7L0.292,-0.7C0.299,-0.7 0.306,-0.697 0.311,-0.692C0.316,-0.687 0.319,-0.68 0.319,-0.673L0.319,-0.379L0.537,-0.68C0.547,-0.693 0.56,-0.7 0.576,-0.7L0.738,-0.7C0.745,-0.7 0.752,-0.697 0.757,-0.692C0.762,-0.687 0.765,-0.68 0.765,-0.673L0.765,-0.027C0.765,-0.02 0.762,-0.013 0.757,-0.008C0.752,-0.003 0.745,-0 0.738,-0L0.552,-0C0.545,-0 0.538,-0.003 0.533,-0.008C0.528,-0.013 0.525,-0.02 0.525,-0.027L0.525,-0.299L0.307,-0.021C0.296,-0.007 0.283,-0 0.267,-0L0.106,-0C0.099,-0 0.092,-0.003 0.087,-0.008C0.082,-0.013 0.079,-0.02 0.079,-0.027L0.079,-0.673C0.079,-0.68 0.082,-0.687 0.087,-0.692C0.092,-0.697 0.099,-0.7 0.106,-0.7Z" style="fill:white;fill-rule:nonzero;"/>
            </g>
            <g transform="matrix(321.712,0,0,321.712,546.91,1791.75)">
                <path d="M0.426,-0L0.22,-0C0.213,-0 0.206,-0.003 0.201,-0.008C0.196,-0.013 0.193,-0.02 0.193,-0.027L0.193,-0.673C0.193,-0.68 0.196,-0.687 0.201,-0.692C0.206,-0.697 0.213,-0.7 0.22,-0.7L0.763,-0.7C0.77,-0.7 0.777,-0.697 0.782,-0.692C0.787,-0.687 0.79,-0.68 0.79,-0.673L0.79,-0.512C0.79,-0.505 0.787,-0.498 0.782,-0.493C0.777,-0.488 0.77,-0.485 0.763,-0.485L0.452,-0.485L0.453,-0.027C0.453,-0.02 0.45,-0.013 0.445,-0.008C0.44,-0.003 0.433,-0 0.426,-0Z" style="fill:white;fill-rule:nonzero;"/>
            </g>
            <g transform="matrix(321.712,0,0,321.712,820.366,1791.75)">
                <path d="M0.153,-0.7L0.527,-0.7C0.622,-0.7 0.697,-0.677 0.752,-0.631C0.807,-0.585 0.835,-0.526 0.835,-0.454C0.835,-0.382 0.812,-0.325 0.765,-0.282C0.718,-0.24 0.639,-0.219 0.527,-0.219L0.395,-0.219L0.395,-0.027C0.395,-0.02 0.392,-0.013 0.387,-0.008C0.382,-0.003 0.375,-0 0.368,-0L0.153,-0C0.146,-0 0.139,-0.003 0.134,-0.008C0.129,-0.013 0.126,-0.02 0.126,-0.027L0.126,-0.673C0.126,-0.68 0.129,-0.687 0.134,-0.692C0.139,-0.697 0.146,-0.7 0.153,-0.7ZM0.396,-0.514L0.396,-0.404L0.523,-0.404C0.538,-0.404 0.551,-0.409 0.561,-0.418C0.57,-0.427 0.575,-0.44 0.575,-0.457C0.575,-0.474 0.57,-0.487 0.561,-0.498C0.552,-0.509 0.539,-0.514 0.523,-0.514L0.396,-0.514Z" style="fill:white;fill-rule:nonzero;"/>
            </g>
            <g transform="matrix(321.712,0,0,321.712,1093.82,1791.75)">
                <path d="M0.236,-0L0.047,-0C0.041,-0 0.036,-0.002 0.032,-0.007C0.027,-0.011 0.025,-0.015 0.025,-0.019C0.025,-0.023 0.025,-0.026 0.026,-0.028L0.244,-0.667C0.25,-0.689 0.265,-0.7 0.289,-0.7L0.567,-0.7C0.591,-0.7 0.606,-0.689 0.612,-0.667L0.83,-0.028C0.831,-0.026 0.831,-0.023 0.831,-0.019C0.831,-0.015 0.829,-0.011 0.825,-0.007C0.82,-0.002 0.815,-0 0.809,-0L0.62,-0C0.599,-0 0.584,-0.011 0.575,-0.034L0.55,-0.104L0.306,-0.104L0.281,-0.034C0.272,-0.011 0.257,-0 0.236,-0ZM0.499,-0.299L0.428,-0.507L0.357,-0.299L0.499,-0.299Z" style="fill:white;fill-rule:nonzero;"/>
            </g>
            <g transform="matrix(321.712,0,0,321.712,1367.28,1791.75)">
                <path d="M0.552,-0.7L0.758,-0.7C0.765,-0.7 0.772,-0.697 0.777,-0.692C0.782,-0.687 0.785,-0.68 0.785,-0.673L0.785,-0.027C0.785,-0.02 0.782,-0.013 0.777,-0.008C0.772,-0.003 0.765,-0 0.758,-0L0.552,-0C0.545,-0 0.538,-0.003 0.533,-0.008C0.528,-0.013 0.525,-0.02 0.525,-0.027L0.525,-0.24L0.325,-0.24L0.325,-0.027C0.325,-0.02 0.322,-0.013 0.317,-0.008C0.312,-0.003 0.305,-0 0.298,-0L0.092,-0C0.085,-0 0.078,-0.003 0.073,-0.008C0.068,-0.013 0.065,-0.019 0.065,-0.027L0.065,-0.673C0.065,-0.68 0.068,-0.687 0.073,-0.692C0.078,-0.697 0.085,-0.7 0.092,-0.7L0.298,-0.7C0.305,-0.7 0.312,-0.697 0.317,-0.692C0.322,-0.687 0.325,-0.68 0.325,-0.673L0.325,-0.468L0.525,-0.468L0.525,-0.673C0.525,-0.68 0.528,-0.687 0.533,-0.692C0.538,-0.697 0.545,-0.7 0.552,-0.7Z" style="fill:white;fill-rule:nonzero;"/>
            </g>
        </g>
        <g transform="matrix(5.80027,0,0,5.94145,0,-5364.54)">
            <g transform="matrix(41.6667,0,0,41.6667,0,1088.36)">
                <path d="M0.004,-0L0.281,-0.373L0.037,-0.716L0.15,-0.716L0.28,-0.532C0.307,-0.494 0.326,-0.465 0.337,-0.444C0.353,-0.47 0.372,-0.498 0.394,-0.526L0.538,-0.716L0.641,-0.716L0.39,-0.378L0.661,-0L0.543,-0L0.363,-0.255C0.353,-0.27 0.343,-0.286 0.332,-0.303C0.316,-0.277 0.305,-0.259 0.298,-0.25L0.118,-0L0.004,-0Z" style="fill:rgb(211,211,211);fill-rule:nonzero;"/>
            </g>
            <g transform="matrix(41.6667,0,0,41.6667,26.8758,1088.36)">
                <path d="M0.062,0.2L0.052,0.117C0.071,0.122 0.088,0.125 0.103,0.125C0.122,0.125 0.138,0.122 0.149,0.115C0.161,0.109 0.171,0.1 0.178,0.088C0.184,0.079 0.193,0.057 0.205,0.022C0.207,0.018 0.209,0.01 0.213,0.001L0.016,-0.519L0.111,-0.519L0.219,-0.218C0.233,-0.18 0.245,-0.14 0.256,-0.098C0.266,-0.139 0.278,-0.178 0.292,-0.216L0.403,-0.519L0.491,-0.519L0.294,0.009C0.273,0.066 0.256,0.105 0.245,0.126C0.229,0.155 0.211,0.177 0.191,0.19C0.171,0.204 0.147,0.21 0.119,0.21C0.102,0.21 0.083,0.207 0.062,0.2Z" style="fill:rgb(211,211,211);fill-rule:nonzero;"/>
            </g>
            <g transform="matrix(41.6667,0,0,41.6667,46.3257,1088.36)">
                <path d="M0.135,-0.519L0.497,-0.519L0.497,-0.072L0.553,-0.072L0.553,0.147L0.48,0.147L0.48,-0L0.072,-0L0.072,0.147L0,0.147L0,-0.072L0.046,-0.072C0.108,-0.156 0.138,-0.305 0.135,-0.519ZM0.208,-0.446C0.202,-0.278 0.176,-0.153 0.13,-0.072L0.409,-0.072L0.409,-0.446L0.208,-0.446Z" style="fill:rgb(211,211,211);fill-rule:nonzero;"/>
            </g>
            <g transform="matrix(41.6667,0,0,41.6667,70.638,1088.36)">
                <path d="M0.033,-0.259C0.033,-0.355 0.06,-0.426 0.113,-0.473C0.158,-0.511 0.212,-0.53 0.276,-0.53C0.348,-0.53 0.406,-0.507 0.451,-0.46C0.496,-0.413 0.519,-0.349 0.519,-0.267C0.519,-0.2 0.509,-0.147 0.489,-0.109C0.469,-0.071 0.44,-0.041 0.402,-0.02C0.363,0.001 0.322,0.012 0.276,0.012C0.204,0.012 0.145,-0.012 0.1,-0.058C0.056,-0.105 0.033,-0.172 0.033,-0.259ZM0.124,-0.259C0.124,-0.193 0.138,-0.143 0.167,-0.11C0.196,-0.077 0.232,-0.061 0.276,-0.061C0.32,-0.061 0.356,-0.077 0.385,-0.11C0.414,-0.144 0.429,-0.194 0.429,-0.262C0.429,-0.326 0.414,-0.375 0.385,-0.408C0.356,-0.441 0.32,-0.458 0.276,-0.458C0.232,-0.458 0.196,-0.441 0.167,-0.408C0.138,-0.375 0.124,-0.326 0.124,-0.259Z" style="fill:rgb(211,211,211);fill-rule:nonzero;"/>
            </g>
            <g transform="matrix(41.6667,0,0,41.6667,93.3431,1088.36)">
                <path d="M0.379,-0.519L0.379,-0.294C0.407,-0.294 0.427,-0.3 0.438,-0.311C0.45,-0.321 0.466,-0.353 0.488,-0.404C0.509,-0.453 0.527,-0.485 0.543,-0.499C0.559,-0.512 0.585,-0.519 0.62,-0.519L0.652,-0.519L0.652,-0.446L0.628,-0.446C0.604,-0.446 0.59,-0.443 0.583,-0.436C0.576,-0.429 0.566,-0.408 0.552,-0.372C0.539,-0.338 0.527,-0.315 0.516,-0.302C0.505,-0.289 0.487,-0.277 0.464,-0.266C0.502,-0.256 0.539,-0.221 0.575,-0.161L0.672,-0L0.575,-0L0.481,-0.161C0.462,-0.193 0.445,-0.215 0.431,-0.225C0.416,-0.235 0.399,-0.24 0.379,-0.24L0.379,-0L0.29,-0L0.29,-0.24C0.27,-0.24 0.253,-0.235 0.239,-0.225C0.224,-0.215 0.208,-0.194 0.188,-0.161L0.094,-0L-0.002,-0L0.094,-0.161C0.13,-0.221 0.167,-0.256 0.206,-0.266C0.18,-0.278 0.161,-0.291 0.151,-0.305C0.14,-0.32 0.125,-0.353 0.104,-0.407C0.097,-0.425 0.089,-0.436 0.081,-0.44C0.073,-0.444 0.06,-0.446 0.043,-0.446C0.039,-0.446 0.031,-0.446 0.018,-0.446L0.018,-0.519L0.03,-0.519C0.064,-0.519 0.087,-0.517 0.101,-0.512C0.115,-0.508 0.128,-0.5 0.138,-0.487C0.149,-0.473 0.164,-0.446 0.181,-0.404C0.203,-0.353 0.219,-0.322 0.23,-0.311C0.241,-0.3 0.261,-0.294 0.29,-0.294L0.29,-0.519L0.379,-0.519Z" style="fill:rgb(211,211,211);fill-rule:nonzero;"/>
            </g>
            <g transform="matrix(41.6667,0,0,41.6667,121.216,1088.36)">
                <path d="M0.421,-0.167L0.512,-0.156C0.497,-0.103 0.471,-0.062 0.432,-0.032C0.393,-0.003 0.344,0.012 0.284,0.012C0.208,0.012 0.148,-0.012 0.103,-0.058C0.059,-0.105 0.037,-0.171 0.037,-0.255C0.037,-0.342 0.059,-0.41 0.104,-0.458C0.149,-0.506 0.207,-0.53 0.279,-0.53C0.348,-0.53 0.405,-0.507 0.449,-0.459C0.493,-0.412 0.515,-0.346 0.515,-0.26C0.515,-0.255 0.514,-0.247 0.514,-0.237L0.127,-0.237C0.131,-0.18 0.147,-0.136 0.176,-0.106C0.205,-0.076 0.241,-0.061 0.284,-0.061C0.316,-0.061 0.344,-0.069 0.367,-0.086C0.389,-0.103 0.408,-0.13 0.421,-0.167ZM0.132,-0.309L0.422,-0.309C0.418,-0.353 0.407,-0.385 0.389,-0.407C0.361,-0.441 0.324,-0.458 0.28,-0.458C0.239,-0.458 0.205,-0.444 0.178,-0.417C0.15,-0.39 0.135,-0.354 0.132,-0.309Z" style="fill:rgb(211,211,211);fill-rule:nonzero;"/>
            </g>
            <g transform="matrix(41.6667,0,0,41.6667,144.389,1088.36)">
                <path d="M0.404,-0.19L0.491,-0.179C0.481,-0.119 0.457,-0.073 0.418,-0.039C0.379,-0.005 0.332,0.012 0.275,0.012C0.204,0.012 0.147,-0.011 0.104,-0.058C0.061,-0.104 0.039,-0.171 0.039,-0.257C0.039,-0.313 0.048,-0.362 0.067,-0.404C0.085,-0.446 0.114,-0.478 0.152,-0.499C0.19,-0.52 0.231,-0.53 0.275,-0.53C0.332,-0.53 0.378,-0.516 0.414,-0.488C0.449,-0.459 0.472,-0.419 0.482,-0.366L0.397,-0.353C0.389,-0.388 0.374,-0.414 0.354,-0.432C0.333,-0.449 0.308,-0.458 0.279,-0.458C0.235,-0.458 0.199,-0.442 0.171,-0.41C0.143,-0.379 0.129,-0.328 0.129,-0.26C0.129,-0.19 0.143,-0.139 0.169,-0.108C0.196,-0.076 0.231,-0.061 0.274,-0.061C0.308,-0.061 0.337,-0.071 0.36,-0.092C0.383,-0.113 0.398,-0.146 0.404,-0.19Z" style="fill:rgb(211,211,211);fill-rule:nonzero;"/>
            </g>
            <g transform="matrix(41.6667,0,0,41.6667,165.222,1088.36)">
                <path d="M0.019,-0.519L0.44,-0.519L0.44,-0.446L0.273,-0.446L0.273,-0L0.186,-0L0.186,-0.446L0.019,-0.446L0.019,-0.519Z" style="fill:rgb(211,211,211);fill-rule:nonzero;"/>
            </g>
            <g transform="matrix(41.6667,0,0,41.6667,184.306,1088.36)">
                <path d="M0.066,-0.519L0.269,-0.519C0.319,-0.519 0.356,-0.514 0.38,-0.506C0.404,-0.498 0.425,-0.483 0.443,-0.46C0.46,-0.438 0.469,-0.412 0.469,-0.381C0.469,-0.356 0.464,-0.335 0.453,-0.316C0.443,-0.298 0.428,-0.282 0.407,-0.27C0.432,-0.262 0.452,-0.247 0.468,-0.224C0.484,-0.202 0.492,-0.176 0.492,-0.145C0.489,-0.096 0.471,-0.059 0.439,-0.036C0.408,-0.012 0.361,-0 0.3,-0L0.066,-0L0.066,-0.519ZM0.154,-0.3L0.248,-0.3C0.285,-0.3 0.311,-0.302 0.325,-0.306C0.339,-0.31 0.352,-0.318 0.363,-0.33C0.374,-0.342 0.379,-0.356 0.379,-0.373C0.379,-0.4 0.37,-0.419 0.35,-0.43C0.331,-0.44 0.298,-0.446 0.251,-0.446L0.154,-0.446L0.154,-0.3ZM0.154,-0.072L0.27,-0.072C0.32,-0.072 0.354,-0.078 0.373,-0.09C0.391,-0.101 0.401,-0.121 0.402,-0.149C0.402,-0.166 0.396,-0.181 0.386,-0.196C0.375,-0.21 0.361,-0.219 0.344,-0.222C0.326,-0.226 0.299,-0.228 0.261,-0.228L0.154,-0.228L0.154,-0.072Z" style="fill:rgb(211,211,211);fill-rule:nonzero;"/>
            </g>
            <g transform="matrix(41.6667,0,0,41.6667,205.973,1088.36)">
                <path d="M0.421,-0.167L0.512,-0.156C0.497,-0.103 0.471,-0.062 0.432,-0.032C0.393,-0.003 0.344,0.012 0.284,0.012C0.208,0.012 0.148,-0.012 0.103,-0.058C0.059,-0.105 0.037,-0.171 0.037,-0.255C0.037,-0.342 0.059,-0.41 0.104,-0.458C0.149,-0.506 0.207,-0.53 0.279,-0.53C0.348,-0.53 0.405,-0.507 0.449,-0.459C0.493,-0.412 0.515,-0.346 0.515,-0.26C0.515,-0.255 0.514,-0.247 0.514,-0.237L0.127,-0.237C0.131,-0.18 0.147,-0.136 0.176,-0.106C0.205,-0.076 0.241,-0.061 0.284,-0.061C0.316,-0.061 0.344,-0.069 0.367,-0.086C0.389,-0.103 0.408,-0.13 0.421,-0.167ZM0.132,-0.309L0.422,-0.309C0.418,-0.353 0.407,-0.385 0.389,-0.407C0.361,-0.441 0.324,-0.458 0.28,-0.458C0.239,-0.458 0.205,-0.444 0.178,-0.417C0.15,-0.39 0.135,-0.354 0.132,-0.309Z" style="fill:rgb(211,211,211);fill-rule:nonzero;"/>
            </g>
            <g transform="matrix(41.6667,0,0,41.6667,229.146,1088.36)">
                <path d="M0.066,-0.519L0.154,-0.519L0.154,-0.303L0.398,-0.303L0.398,-0.519L0.486,-0.519L0.486,-0L0.398,-0L0.398,-0.23L0.154,-0.23L0.154,-0L0.066,-0L0.066,-0.519Z" style="fill:rgb(211,211,211);fill-rule:nonzero;"/>
            </g>
            <g transform="matrix(41.6667,0,0,41.6667,252.157,1088.36)">
                <path d="M0.066,-0.519L0.154,-0.519L0.154,-0.303L0.398,-0.303L0.398,-0.519L0.486,-0.519L0.486,-0L0.398,-0L0.398,-0.23L0.154,-0.23L0.154,-0L0.066,-0L0.066,-0.519Z" style="fill:rgb(211,211,211);fill-rule:nonzero;"/>
            </g>
            <g transform="matrix(41.6667,0,0,41.6667,275.167,1088.36)">
                <path d="M0.56,-0.519L0.647,-0.519L0.647,-0L0.56,-0L0.56,-0.519ZM0.068,-0.519L0.156,-0.519L0.156,-0.316L0.267,-0.316C0.34,-0.316 0.396,-0.302 0.435,-0.274C0.474,-0.246 0.494,-0.207 0.494,-0.157C0.494,-0.114 0.477,-0.077 0.445,-0.046C0.412,-0.015 0.36,-0 0.288,-0L0.068,-0L0.068,-0.519ZM0.156,-0.072L0.248,-0.072C0.304,-0.072 0.343,-0.079 0.367,-0.093C0.391,-0.106 0.403,-0.128 0.403,-0.157C0.403,-0.179 0.394,-0.199 0.376,-0.217C0.359,-0.234 0.32,-0.243 0.26,-0.243L0.156,-0.243L0.156,-0.072Z" style="fill:rgb(211,211,211);fill-rule:nonzero;"/>
            </g>
            <g transform="matrix(41.6667,0,0,41.6667,305.115,1088.36)">
                <path d="M0.066,-0.519L0.154,-0.519L0.154,-0.123L0.397,-0.519L0.492,-0.519L0.492,-0L0.404,-0L0.404,-0.393L0.161,-0L0.066,-0L0.066,-0.519ZM0.371,-0.715L0.431,-0.715C0.426,-0.674 0.411,-0.643 0.386,-0.621C0.362,-0.599 0.328,-0.588 0.287,-0.588C0.245,-0.588 0.212,-0.599 0.187,-0.621C0.162,-0.642 0.147,-0.674 0.143,-0.715L0.203,-0.715C0.207,-0.693 0.216,-0.676 0.23,-0.665C0.243,-0.654 0.261,-0.649 0.284,-0.649C0.311,-0.649 0.33,-0.654 0.344,-0.665C0.358,-0.675 0.367,-0.692 0.371,-0.715Z" style="fill:rgb(211,211,211);fill-rule:nonzero;"/>
            </g>
            <g transform="matrix(41.6667,0,0,41.6667,339.966,1088.36)">
                <path d="M0.066,0.199L0.066,-0.519L0.146,-0.519L0.146,-0.451C0.165,-0.478 0.186,-0.497 0.21,-0.51C0.234,-0.524 0.263,-0.53 0.296,-0.53C0.341,-0.53 0.38,-0.519 0.414,-0.496C0.447,-0.473 0.473,-0.441 0.49,-0.4C0.507,-0.358 0.516,-0.313 0.516,-0.263C0.516,-0.21 0.507,-0.162 0.488,-0.12C0.469,-0.077 0.441,-0.045 0.405,-0.022C0.368,0 0.33,0.012 0.29,0.012C0.261,0.012 0.234,0.006 0.211,-0.007C0.188,-0.019 0.169,-0.035 0.154,-0.054L0.154,0.199L0.066,0.199ZM0.146,-0.256C0.146,-0.19 0.159,-0.14 0.186,-0.108C0.213,-0.076 0.246,-0.061 0.284,-0.061C0.323,-0.061 0.357,-0.077 0.385,-0.11C0.412,-0.143 0.426,-0.194 0.426,-0.264C0.426,-0.33 0.413,-0.379 0.385,-0.412C0.358,-0.445 0.326,-0.461 0.288,-0.461C0.251,-0.461 0.218,-0.444 0.189,-0.409C0.16,-0.374 0.146,-0.323 0.146,-0.256Z" style="fill:rgb(211,211,211);fill-rule:nonzero;"/>
            </g>
            <g transform="matrix(41.6667,0,0,41.6667,362.671,1088.36)">
                <path d="M0.062,0.2L0.052,0.117C0.071,0.122 0.088,0.125 0.103,0.125C0.122,0.125 0.138,0.122 0.149,0.115C0.161,0.109 0.171,0.1 0.178,0.088C0.184,0.079 0.193,0.057 0.205,0.022C0.207,0.018 0.209,0.01 0.213,0.001L0.016,-0.519L0.111,-0.519L0.219,-0.218C0.233,-0.18 0.245,-0.14 0.256,-0.098C0.266,-0.139 0.278,-0.178 0.292,-0.216L0.403,-0.519L0.491,-0.519L0.294,0.009C0.273,0.066 0.256,0.105 0.245,0.126C0.229,0.155 0.211,0.177 0.191,0.19C0.171,0.204 0.147,0.21 0.119,0.21C0.102,0.21 0.083,0.207 0.062,0.2Z" style="fill:rgb(211,211,211);fill-rule:nonzero;"/>
            </g>
            <g transform="matrix(41.6667,0,0,41.6667,383.504,1088.36)">
                <path d="M0.065,-0.519L0.153,-0.519L0.153,-0.294C0.181,-0.294 0.201,-0.3 0.212,-0.311C0.223,-0.321 0.24,-0.353 0.262,-0.404C0.279,-0.445 0.293,-0.472 0.304,-0.485C0.314,-0.498 0.327,-0.507 0.341,-0.512C0.355,-0.516 0.377,-0.519 0.408,-0.519L0.426,-0.519L0.426,-0.446L0.401,-0.446C0.378,-0.446 0.363,-0.443 0.357,-0.436C0.35,-0.429 0.34,-0.408 0.326,-0.372C0.312,-0.338 0.3,-0.315 0.289,-0.302C0.278,-0.289 0.261,-0.277 0.238,-0.266C0.276,-0.256 0.313,-0.221 0.349,-0.161L0.445,-0L0.349,-0L0.255,-0.161C0.236,-0.193 0.219,-0.214 0.205,-0.224C0.19,-0.235 0.173,-0.24 0.153,-0.24L0.153,-0L0.065,-0L0.065,-0.519Z" style="fill:rgb(211,211,211);fill-rule:nonzero;"/>
            </g>
            <g transform="matrix(41.6667,0,0,41.6667,402.201,1088.36)">
                <path d="M0.033,-0.259C0.033,-0.355 0.06,-0.426 0.113,-0.473C0.158,-0.511 0.212,-0.53 0.276,-0.53C0.348,-0.53 0.406,-0.507 0.451,-0.46C0.496,-0.413 0.519,-0.349 0.519,-0.267C0.519,-0.2 0.509,-0.147 0.489,-0.109C0.469,-0.071 0.44,-0.041 0.402,-0.02C0.363,0.001 0.322,0.012 0.276,0.012C0.204,0.012 0.145,-0.012 0.1,-0.058C0.056,-0.105 0.033,-0.172 0.033,-0.259ZM0.124,-0.259C0.124,-0.193 0.138,-0.143 0.167,-0.11C0.196,-0.077 0.232,-0.061 0.276,-0.061C0.32,-0.061 0.356,-0.077 0.385,-0.11C0.414,-0.144 0.429,-0.194 0.429,-0.262C0.429,-0.326 0.414,-0.375 0.385,-0.408C0.356,-0.441 0.32,-0.458 0.276,-0.458C0.232,-0.458 0.196,-0.441 0.167,-0.408C0.138,-0.375 0.124,-0.326 0.124,-0.259Z" style="fill:rgb(211,211,211);fill-rule:nonzero;"/>
            </g>
            <g transform="matrix(41.6667,0,0,41.6667,425.374,1088.36)">
                <path d="M0.066,-0.519L0.269,-0.519C0.319,-0.519 0.356,-0.514 0.38,-0.506C0.404,-0.498 0.425,-0.483 0.443,-0.46C0.46,-0.438 0.469,-0.412 0.469,-0.381C0.469,-0.356 0.464,-0.335 0.453,-0.316C0.443,-0.298 0.428,-0.282 0.407,-0.27C0.432,-0.262 0.452,-0.247 0.468,-0.224C0.484,-0.202 0.492,-0.176 0.492,-0.145C0.489,-0.096 0.471,-0.059 0.439,-0.036C0.408,-0.012 0.361,-0 0.3,-0L0.066,-0L0.066,-0.519ZM0.154,-0.3L0.248,-0.3C0.285,-0.3 0.311,-0.302 0.325,-0.306C0.339,-0.31 0.352,-0.318 0.363,-0.33C0.374,-0.342 0.379,-0.356 0.379,-0.373C0.379,-0.4 0.37,-0.419 0.35,-0.43C0.331,-0.44 0.298,-0.446 0.251,-0.446L0.154,-0.446L0.154,-0.3ZM0.154,-0.072L0.27,-0.072C0.32,-0.072 0.354,-0.078 0.373,-0.09C0.391,-0.101 0.401,-0.121 0.402,-0.149C0.402,-0.166 0.396,-0.181 0.386,-0.196C0.375,-0.21 0.361,-0.219 0.344,-0.222C0.326,-0.226 0.299,-0.228 0.261,-0.228L0.154,-0.228L0.154,-0.072Z" style="fill:rgb(211,211,211);fill-rule:nonzero;"/>
            </g>
            <g transform="matrix(41.6667,0,0,41.6667,447.042,1088.36)">
                <path d="M0.033,-0.259C0.033,-0.355 0.06,-0.426 0.113,-0.473C0.158,-0.511 0.212,-0.53 0.276,-0.53C0.348,-0.53 0.406,-0.507 0.451,-0.46C0.496,-0.413 0.519,-0.349 0.519,-0.267C0.519,-0.2 0.509,-0.147 0.489,-0.109C0.469,-0.071 0.44,-0.041 0.402,-0.02C0.363,0.001 0.322,0.012 0.276,0.012C0.204,0.012 0.145,-0.012 0.1,-0.058C0.056,-0.105 0.033,-0.172 0.033,-0.259ZM0.124,-0.259C0.124,-0.193 0.138,-0.143 0.167,-0.11C0.196,-0.077 0.232,-0.061 0.276,-0.061C0.32,-0.061 0.356,-0.077 0.385,-0.11C0.414,-0.144 0.429,-0.194 0.429,-0.262C0.429,-0.326 0.414,-0.375 0.385,-0.408C0.356,-0.441 0.32,-0.458 0.276,-0.458C0.232,-0.458 0.196,-0.441 0.167,-0.408C0.138,-0.375 0.124,-0.326 0.124,-0.259Z" style="fill:rgb(211,211,211);fill-rule:nonzero;"/>
            </g>
            <g transform="matrix(41.6667,0,0,41.6667,469.299,1088.36)">
                <path d="M0.135,-0.519L0.497,-0.519L0.497,-0.072L0.553,-0.072L0.553,0.147L0.48,0.147L0.48,-0L0.072,-0L0.072,0.147L0,0.147L0,-0.072L0.046,-0.072C0.108,-0.156 0.138,-0.305 0.135,-0.519ZM0.208,-0.446C0.202,-0.278 0.176,-0.153 0.13,-0.072L0.409,-0.072L0.409,-0.446L0.208,-0.446Z" style="fill:rgb(211,211,211);fill-rule:nonzero;"/>
            </g>
            <g transform="matrix(41.6667,0,0,41.6667,493.612,1088.36)">
                <path d="M0.066,-0.519L0.154,-0.519L0.154,-0.123L0.397,-0.519L0.492,-0.519L0.492,-0L0.404,-0L0.404,-0.393L0.161,-0L0.066,-0L0.066,-0.519Z" style="fill:rgb(211,211,211);fill-rule:nonzero;"/>
            </g>
            <g transform="matrix(41.6667,0,0,41.6667,516.886,1088.36)">
                <path d="M0.019,-0.519L0.44,-0.519L0.44,-0.446L0.273,-0.446L0.273,-0L0.186,-0L0.186,-0.446L0.019,-0.446L0.019,-0.519Z" style="fill:rgb(211,211,211);fill-rule:nonzero;"/>
            </g>
            <g transform="matrix(41.6667,0,0,41.6667,535.502,1088.36)">
                <path d="M0.421,-0.167L0.512,-0.156C0.497,-0.103 0.471,-0.062 0.432,-0.032C0.393,-0.003 0.344,0.012 0.284,0.012C0.208,0.012 0.148,-0.012 0.103,-0.058C0.059,-0.105 0.037,-0.171 0.037,-0.255C0.037,-0.342 0.059,-0.41 0.104,-0.458C0.149,-0.506 0.207,-0.53 0.279,-0.53C0.348,-0.53 0.405,-0.507 0.449,-0.459C0.493,-0.412 0.515,-0.346 0.515,-0.26C0.515,-0.255 0.514,-0.247 0.514,-0.237L0.127,-0.237C0.131,-0.18 0.147,-0.136 0.176,-0.106C0.205,-0.076 0.241,-0.061 0.284,-0.061C0.316,-0.061 0.344,-0.069 0.367,-0.086C0.389,-0.103 0.408,-0.13 0.421,-0.167ZM0.132,-0.309L0.422,-0.309C0.418,-0.353 0.407,-0.385 0.389,-0.407C0.361,-0.441 0.324,-0.458 0.28,-0.458C0.239,-0.458 0.205,-0.444 0.178,-0.417C0.15,-0.39 0.135,-0.354 0.132,-0.309Z" style="fill:rgb(211,211,211);fill-rule:nonzero;"/>
            </g>
            <g transform="matrix(41.6667,0,0,41.6667,557.292,1088.36)">
                <path d="M0.109,-0.519L0.517,-0.519L0.517,-0L0.43,-0L0.43,-0.446L0.197,-0.446L0.197,-0.188C0.197,-0.127 0.195,-0.088 0.191,-0.068C0.187,-0.049 0.176,-0.032 0.159,-0.018C0.141,-0.004 0.116,0.003 0.083,0.003C0.062,0.003 0.038,0.002 0.012,-0L0.012,-0.074L0.05,-0.074C0.069,-0.074 0.082,-0.076 0.089,-0.079C0.097,-0.083 0.102,-0.089 0.105,-0.097C0.108,-0.105 0.109,-0.132 0.109,-0.177L0.109,-0.519Z" style="fill:rgb(211,211,211);fill-rule:nonzero;"/>
            </g>
            <g transform="matrix(41.6667,0,0,41.6667,581.604,1088.36)">
                <path d="M0.064,-0.519L0.152,-0.519L0.152,-0.316L0.264,-0.316C0.336,-0.316 0.392,-0.302 0.431,-0.274C0.471,-0.246 0.49,-0.207 0.49,-0.157C0.49,-0.114 0.474,-0.077 0.441,-0.046C0.408,-0.015 0.356,-0 0.284,-0L0.064,-0L0.064,-0.519ZM0.152,-0.072L0.245,-0.072C0.3,-0.072 0.34,-0.079 0.364,-0.093C0.388,-0.106 0.399,-0.128 0.399,-0.157C0.399,-0.179 0.391,-0.199 0.373,-0.217C0.355,-0.234 0.317,-0.243 0.256,-0.243L0.152,-0.243L0.152,-0.072Z" style="fill:rgb(211,211,211);fill-rule:nonzero;"/>
            </g>
        </g>
        <g transform="matrix(5.80027,0,0,5.94145,0,-5122.79)">
            <g transform="matrix(41.6667,0,0,41.6667,0,1088.36)">
                <path d="M0.066,-0.519L0.154,-0.519L0.154,-0.123L0.397,-0.519L0.492,-0.519L0.492,-0L0.404,-0L0.404,-0.393L0.161,-0L0.066,-0L0.066,-0.519Z" style="fill:rgb(211,211,211);fill-rule:nonzero;"/>
            </g>
            <g transform="matrix(41.6667,0,0,41.6667,34.8511,1088.36)">
                <path d="M0.066,-0.519L0.365,-0.519L0.365,-0.446L0.154,-0.446L0.154,-0L0.066,-0L0.066,-0.519Z" style="fill:rgb(211,211,211);fill-rule:nonzero;"/>
            </g>
            <g transform="matrix(41.6667,0,0,41.6667,49.1333,1088.36)">
                <path d="M0.109,-0.519L0.517,-0.519L0.517,-0L0.43,-0L0.43,-0.446L0.197,-0.446L0.197,-0.188C0.197,-0.127 0.195,-0.088 0.191,-0.068C0.187,-0.049 0.176,-0.032 0.159,-0.018C0.141,-0.004 0.116,0.003 0.083,0.003C0.062,0.003 0.038,0.002 0.012,-0L0.012,-0.074L0.05,-0.074C0.069,-0.074 0.082,-0.076 0.089,-0.079C0.097,-0.083 0.102,-0.089 0.105,-0.097C0.108,-0.105 0.109,-0.132 0.109,-0.177L0.109,-0.519Z" style="fill:rgb(211,211,211);fill-rule:nonzero;"/>
            </g>
            <g transform="matrix(41.6667,0,0,41.6667,73.4456,1088.36)">
                <path d="M0.404,-0.064C0.372,-0.036 0.34,-0.017 0.31,-0.005C0.28,0.006 0.248,0.012 0.213,0.012C0.156,0.012 0.113,-0.002 0.082,-0.03C0.051,-0.058 0.036,-0.093 0.036,-0.137C0.036,-0.162 0.042,-0.185 0.053,-0.206C0.065,-0.227 0.08,-0.244 0.099,-0.257C0.118,-0.27 0.139,-0.279 0.162,-0.286C0.179,-0.29 0.205,-0.295 0.24,-0.299C0.311,-0.307 0.363,-0.317 0.397,-0.329C0.397,-0.341 0.397,-0.349 0.397,-0.352C0.397,-0.388 0.389,-0.413 0.373,-0.428C0.35,-0.448 0.317,-0.458 0.272,-0.458C0.231,-0.458 0.201,-0.45 0.181,-0.436C0.161,-0.421 0.147,-0.396 0.137,-0.359L0.051,-0.371C0.059,-0.407 0.072,-0.437 0.09,-0.46C0.108,-0.482 0.134,-0.5 0.167,-0.512C0.201,-0.524 0.241,-0.53 0.285,-0.53C0.329,-0.53 0.365,-0.525 0.393,-0.515C0.421,-0.504 0.441,-0.491 0.454,-0.475C0.467,-0.46 0.476,-0.44 0.481,-0.416C0.484,-0.401 0.486,-0.374 0.486,-0.334L0.486,-0.217C0.486,-0.136 0.488,-0.084 0.491,-0.062C0.495,-0.041 0.503,-0.02 0.514,-0L0.422,-0C0.413,-0.018 0.407,-0.04 0.404,-0.064ZM0.397,-0.26C0.365,-0.247 0.317,-0.236 0.253,-0.227C0.217,-0.222 0.192,-0.216 0.177,-0.209C0.162,-0.203 0.15,-0.193 0.142,-0.181C0.134,-0.168 0.13,-0.154 0.13,-0.139C0.13,-0.116 0.139,-0.096 0.156,-0.081C0.174,-0.065 0.2,-0.057 0.234,-0.057C0.268,-0.057 0.298,-0.065 0.325,-0.079C0.351,-0.094 0.37,-0.114 0.383,-0.14C0.392,-0.16 0.397,-0.189 0.397,-0.228L0.397,-0.26Z" style="fill:rgb(211,211,211);fill-rule:nonzero;"/>
            </g>
            <g transform="matrix(41.6667,0,0,41.6667,96.6187,1088.36)">
                <path d="M0.066,-0.519L0.269,-0.519C0.319,-0.519 0.356,-0.514 0.38,-0.506C0.404,-0.498 0.425,-0.483 0.443,-0.46C0.46,-0.438 0.469,-0.412 0.469,-0.381C0.469,-0.356 0.464,-0.335 0.453,-0.316C0.443,-0.298 0.428,-0.282 0.407,-0.27C0.432,-0.262 0.452,-0.247 0.468,-0.224C0.484,-0.202 0.492,-0.176 0.492,-0.145C0.489,-0.096 0.471,-0.059 0.439,-0.036C0.408,-0.012 0.361,-0 0.3,-0L0.066,-0L0.066,-0.519ZM0.154,-0.3L0.248,-0.3C0.285,-0.3 0.311,-0.302 0.325,-0.306C0.339,-0.31 0.352,-0.318 0.363,-0.33C0.374,-0.342 0.379,-0.356 0.379,-0.373C0.379,-0.4 0.37,-0.419 0.35,-0.43C0.331,-0.44 0.298,-0.446 0.251,-0.446L0.154,-0.446L0.154,-0.3ZM0.154,-0.072L0.27,-0.072C0.32,-0.072 0.354,-0.078 0.373,-0.09C0.391,-0.101 0.401,-0.121 0.402,-0.149C0.402,-0.166 0.396,-0.181 0.386,-0.196C0.375,-0.21 0.361,-0.219 0.344,-0.222C0.326,-0.226 0.299,-0.228 0.261,-0.228L0.154,-0.228L0.154,-0.072Z" style="fill:rgb(211,211,211);fill-rule:nonzero;"/>
            </g>
            <g transform="matrix(41.6667,0,0,41.6667,118.754,1088.36)">
                <path d="M0.066,-0.519L0.154,-0.519L0.154,-0.303L0.398,-0.303L0.398,-0.519L0.486,-0.519L0.486,-0L0.398,-0L0.398,-0.23L0.154,-0.23L0.154,-0L0.066,-0L0.066,-0.519Z" style="fill:rgb(211,211,211);fill-rule:nonzero;"/>
            </g>
            <g transform="matrix(41.6667,0,0,41.6667,141.764,1088.36)">
                <path d="M0.56,-0.519L0.647,-0.519L0.647,-0L0.56,-0L0.56,-0.519ZM0.068,-0.519L0.156,-0.519L0.156,-0.316L0.267,-0.316C0.34,-0.316 0.396,-0.302 0.435,-0.274C0.474,-0.246 0.494,-0.207 0.494,-0.157C0.494,-0.114 0.477,-0.077 0.445,-0.046C0.412,-0.015 0.36,-0 0.288,-0L0.068,-0L0.068,-0.519ZM0.156,-0.072L0.248,-0.072C0.304,-0.072 0.343,-0.079 0.367,-0.093C0.391,-0.106 0.403,-0.128 0.403,-0.157C0.403,-0.179 0.394,-0.199 0.376,-0.217C0.359,-0.234 0.32,-0.243 0.26,-0.243L0.156,-0.243L0.156,-0.072Z" style="fill:rgb(211,211,211);fill-rule:nonzero;"/>
            </g>
            <g transform="matrix(41.6667,0,0,41.6667,171.712,1088.36)">
                <path d="M0.066,-0.519L0.154,-0.519L0.154,-0.123L0.397,-0.519L0.492,-0.519L0.492,-0L0.404,-0L0.404,-0.393L0.161,-0L0.066,-0L0.066,-0.519ZM0.371,-0.715L0.431,-0.715C0.426,-0.674 0.411,-0.643 0.386,-0.621C0.362,-0.599 0.328,-0.588 0.287,-0.588C0.245,-0.588 0.212,-0.599 0.187,-0.621C0.162,-0.642 0.147,-0.674 0.143,-0.715L0.203,-0.715C0.207,-0.693 0.216,-0.676 0.23,-0.665C0.243,-0.654 0.261,-0.649 0.284,-0.649C0.311,-0.649 0.33,-0.654 0.344,-0.665C0.358,-0.675 0.367,-0.692 0.371,-0.715Z" style="fill:rgb(211,211,211);fill-rule:nonzero;"/>
            </g>
            <g transform="matrix(41.6667,0,0,41.6667,206.563,1088.36)">
                <path d="M0.135,-0.519L0.497,-0.519L0.497,-0.072L0.553,-0.072L0.553,0.147L0.48,0.147L0.48,-0L0.072,-0L0.072,0.147L0,0.147L0,-0.072L0.046,-0.072C0.108,-0.156 0.138,-0.305 0.135,-0.519ZM0.208,-0.446C0.202,-0.278 0.176,-0.153 0.13,-0.072L0.409,-0.072L0.409,-0.446L0.208,-0.446Z" style="fill:rgb(211,211,211);fill-rule:nonzero;"/>
            </g>
            <g transform="matrix(41.6667,0,0,41.6667,230.876,1088.36)">
                <path d="M0.066,-0.519L0.154,-0.519L0.154,-0.123L0.397,-0.519L0.492,-0.519L0.492,-0L0.404,-0L0.404,-0.393L0.161,-0L0.066,-0L0.066,-0.519Z" style="fill:rgb(211,211,211);fill-rule:nonzero;"/>
            </g>
            <g transform="matrix(41.6667,0,0,41.6667,254.15,1088.36)">
                <path d="M0.066,0.199L0.066,-0.519L0.146,-0.519L0.146,-0.451C0.165,-0.478 0.186,-0.497 0.21,-0.51C0.234,-0.524 0.263,-0.53 0.296,-0.53C0.341,-0.53 0.38,-0.519 0.414,-0.496C0.447,-0.473 0.473,-0.441 0.49,-0.4C0.507,-0.358 0.516,-0.313 0.516,-0.263C0.516,-0.21 0.507,-0.162 0.488,-0.12C0.469,-0.077 0.441,-0.045 0.405,-0.022C0.368,0 0.33,0.012 0.29,0.012C0.261,0.012 0.234,0.006 0.211,-0.007C0.188,-0.019 0.169,-0.035 0.154,-0.054L0.154,0.199L0.066,0.199ZM0.146,-0.256C0.146,-0.19 0.159,-0.14 0.186,-0.108C0.213,-0.076 0.246,-0.061 0.284,-0.061C0.323,-0.061 0.357,-0.077 0.385,-0.11C0.412,-0.143 0.426,-0.194 0.426,-0.264C0.426,-0.33 0.413,-0.379 0.385,-0.412C0.358,-0.445 0.326,-0.461 0.288,-0.461C0.251,-0.461 0.218,-0.444 0.189,-0.409C0.16,-0.374 0.146,-0.323 0.146,-0.256Z" style="fill:rgb(211,211,211);fill-rule:nonzero;"/>
            </g>
            <g transform="matrix(41.6667,0,0,41.6667,277.323,1088.36)">
                <path d="M0.066,-0.519L0.154,-0.519L0.154,-0.123L0.397,-0.519L0.492,-0.519L0.492,-0L0.404,-0L0.404,-0.393L0.161,-0L0.066,-0L0.066,-0.519Z" style="fill:rgb(211,211,211);fill-rule:nonzero;"/>
            </g>
            <g transform="matrix(41.6667,0,0,41.6667,300.598,1088.36)">
                <path d="M0.379,-0.519L0.379,-0.294C0.407,-0.294 0.427,-0.3 0.438,-0.311C0.45,-0.321 0.466,-0.353 0.488,-0.404C0.509,-0.453 0.527,-0.485 0.543,-0.499C0.559,-0.512 0.585,-0.519 0.62,-0.519L0.652,-0.519L0.652,-0.446L0.628,-0.446C0.604,-0.446 0.59,-0.443 0.583,-0.436C0.576,-0.429 0.566,-0.408 0.552,-0.372C0.539,-0.338 0.527,-0.315 0.516,-0.302C0.505,-0.289 0.487,-0.277 0.464,-0.266C0.502,-0.256 0.539,-0.221 0.575,-0.161L0.672,-0L0.575,-0L0.481,-0.161C0.462,-0.193 0.445,-0.215 0.431,-0.225C0.416,-0.235 0.399,-0.24 0.379,-0.24L0.379,-0L0.29,-0L0.29,-0.24C0.27,-0.24 0.253,-0.235 0.239,-0.225C0.224,-0.215 0.208,-0.194 0.188,-0.161L0.094,-0L-0.002,-0L0.094,-0.161C0.13,-0.221 0.167,-0.256 0.206,-0.266C0.18,-0.278 0.161,-0.291 0.151,-0.305C0.14,-0.32 0.125,-0.353 0.104,-0.407C0.097,-0.425 0.089,-0.436 0.081,-0.44C0.073,-0.444 0.06,-0.446 0.043,-0.446C0.039,-0.446 0.031,-0.446 0.018,-0.446L0.018,-0.519L0.03,-0.519C0.064,-0.519 0.087,-0.517 0.101,-0.512C0.115,-0.508 0.128,-0.5 0.138,-0.487C0.149,-0.473 0.164,-0.446 0.181,-0.404C0.203,-0.353 0.219,-0.322 0.23,-0.311C0.241,-0.3 0.261,-0.294 0.29,-0.294L0.29,-0.519L0.379,-0.519Z" style="fill:rgb(211,211,211);fill-rule:nonzero;"/>
            </g>
            <g transform="matrix(41.6667,0,0,41.6667,328.471,1088.36)">
                <path d="M0.421,-0.167L0.512,-0.156C0.497,-0.103 0.471,-0.062 0.432,-0.032C0.393,-0.003 0.344,0.012 0.284,0.012C0.208,0.012 0.148,-0.012 0.103,-0.058C0.059,-0.105 0.037,-0.171 0.037,-0.255C0.037,-0.342 0.059,-0.41 0.104,-0.458C0.149,-0.506 0.207,-0.53 0.279,-0.53C0.348,-0.53 0.405,-0.507 0.449,-0.459C0.493,-0.412 0.515,-0.346 0.515,-0.26C0.515,-0.255 0.514,-0.247 0.514,-0.237L0.127,-0.237C0.131,-0.18 0.147,-0.136 0.176,-0.106C0.205,-0.076 0.241,-0.061 0.284,-0.061C0.316,-0.061 0.344,-0.069 0.367,-0.086C0.389,-0.103 0.408,-0.13 0.421,-0.167ZM0.132,-0.309L0.422,-0.309C0.418,-0.353 0.407,-0.385 0.389,-0.407C0.361,-0.441 0.324,-0.458 0.28,-0.458C0.239,-0.458 0.205,-0.444 0.178,-0.417C0.15,-0.39 0.135,-0.354 0.132,-0.309Z" style="fill:rgb(211,211,211);fill-rule:nonzero;"/>
            </g>
            <g transform="matrix(41.6667,0,0,41.6667,351.644,1088.36)">
                <path d="M0.066,0.199L0.066,-0.519L0.146,-0.519L0.146,-0.451C0.165,-0.478 0.186,-0.497 0.21,-0.51C0.234,-0.524 0.263,-0.53 0.296,-0.53C0.341,-0.53 0.38,-0.519 0.414,-0.496C0.447,-0.473 0.473,-0.441 0.49,-0.4C0.507,-0.358 0.516,-0.313 0.516,-0.263C0.516,-0.21 0.507,-0.162 0.488,-0.12C0.469,-0.077 0.441,-0.045 0.405,-0.022C0.368,0 0.33,0.012 0.29,0.012C0.261,0.012 0.234,0.006 0.211,-0.007C0.188,-0.019 0.169,-0.035 0.154,-0.054L0.154,0.199L0.066,0.199ZM0.146,-0.256C0.146,-0.19 0.159,-0.14 0.186,-0.108C0.213,-0.076 0.246,-0.061 0.284,-0.061C0.323,-0.061 0.357,-0.077 0.385,-0.11C0.412,-0.143 0.426,-0.194 0.426,-0.264C0.426,-0.33 0.413,-0.379 0.385,-0.412C0.358,-0.445 0.326,-0.461 0.288,-0.461C0.251,-0.461 0.218,-0.444 0.189,-0.409C0.16,-0.374 0.146,-0.323 0.146,-0.256Z" style="fill:rgb(211,211,211);fill-rule:nonzero;"/>
            </g>
        </g>
        <g transform="matrix(1.42306,0,0,1.4577,0,-1021.06)">
            <g transform="matrix(321.712,0,0,321.712,0,2205.14)">
                <path d="M0.236,-0L0.047,-0C0.041,-0 0.036,-0.002 0.032,-0.007C0.027,-0.011 0.025,-0.015 0.025,-0.019C0.025,-0.023 0.025,-0.026 0.026,-0.028L0.244,-0.667C0.25,-0.689 0.265,-0.7 0.289,-0.7L0.567,-0.7C0.591,-0.7 0.606,-0.689 0.612,-0.667L0.83,-0.028C0.831,-0.026 0.831,-0.023 0.831,-0.019C0.831,-0.015 0.829,-0.011 0.825,-0.007C0.82,-0.002 0.815,-0 0.809,-0L0.62,-0C0.599,-0 0.584,-0.011 0.575,-0.034L0.55,-0.104L0.306,-0.104L0.281,-0.034C0.272,-0.011 0.257,-0 0.236,-0ZM0.499,-0.299L0.428,-0.507L0.357,-0.299L0.499,-0.299Z" style="fill:white;fill-rule:nonzero;"/>
            </g>
            <g transform="matrix(321.712,0,0,321.712,273.455,2205.14)">
                <path d="M0.796,-0.033C0.798,-0.03 0.799,-0.026 0.799,-0.021C0.799,-0.016 0.797,-0.011 0.793,-0.007C0.788,-0.002 0.783,-0 0.777,-0L0.562,-0C0.544,-0 0.53,-0.008 0.521,-0.023L0.424,-0.172L0.329,-0.023C0.319,-0.008 0.305,-0 0.288,-0L0.072,-0C0.066,-0 0.061,-0.002 0.057,-0.007C0.052,-0.011 0.05,-0.016 0.05,-0.021C0.05,-0.026 0.051,-0.03 0.053,-0.033L0.274,-0.371L0.077,-0.667C0.075,-0.67 0.074,-0.674 0.074,-0.679C0.074,-0.684 0.076,-0.689 0.081,-0.694C0.085,-0.698 0.09,-0.7 0.096,-0.7L0.312,-0.7C0.329,-0.7 0.343,-0.692 0.354,-0.675L0.432,-0.547L0.516,-0.677C0.527,-0.692 0.541,-0.7 0.557,-0.7L0.772,-0.7C0.778,-0.7 0.783,-0.698 0.788,-0.694C0.792,-0.689 0.794,-0.684 0.794,-0.679C0.794,-0.674 0.793,-0.67 0.791,-0.667L0.582,-0.358L0.796,-0.033Z" style="fill:white;fill-rule:nonzero;"/>
            </g>
            <g transform="matrix(321.712,0,0,321.712,546.91,2205.14)">
                <path d="M0.552,-0.7L0.758,-0.7C0.765,-0.7 0.772,-0.697 0.777,-0.692C0.782,-0.687 0.785,-0.68 0.785,-0.673L0.785,-0.027C0.785,-0.02 0.782,-0.013 0.777,-0.008C0.772,-0.003 0.765,-0 0.758,-0L0.552,-0C0.545,-0 0.538,-0.003 0.533,-0.008C0.528,-0.013 0.525,-0.02 0.525,-0.027L0.525,-0.24L0.325,-0.24L0.325,-0.027C0.325,-0.02 0.322,-0.013 0.317,-0.008C0.312,-0.003 0.305,-0 0.298,-0L0.092,-0C0.085,-0 0.078,-0.003 0.073,-0.008C0.068,-0.013 0.065,-0.019 0.065,-0.027L0.065,-0.673C0.065,-0.68 0.068,-0.687 0.073,-0.692C0.078,-0.697 0.085,-0.7 0.092,-0.7L0.298,-0.7C0.305,-0.7 0.312,-0.697 0.317,-0.692C0.322,-0.687 0.325,-0.68 0.325,-0.673L0.325,-0.468L0.525,-0.468L0.525,-0.673C0.525,-0.68 0.528,-0.687 0.533,-0.692C0.538,-0.697 0.545,-0.7 0.552,-0.7Z" style="fill:white;fill-rule:nonzero;"/>
            </g>
            <g transform="matrix(321.712,0,0,321.712,820.366,2205.14)">
                <path d="M0.236,-0L0.047,-0C0.041,-0 0.036,-0.002 0.032,-0.007C0.027,-0.011 0.025,-0.015 0.025,-0.019C0.025,-0.023 0.025,-0.026 0.026,-0.028L0.244,-0.667C0.25,-0.689 0.265,-0.7 0.289,-0.7L0.567,-0.7C0.591,-0.7 0.606,-0.689 0.612,-0.667L0.83,-0.028C0.831,-0.026 0.831,-0.023 0.831,-0.019C0.831,-0.015 0.829,-0.011 0.825,-0.007C0.82,-0.002 0.815,-0 0.809,-0L0.62,-0C0.599,-0 0.584,-0.011 0.575,-0.034L0.55,-0.104L0.306,-0.104L0.281,-0.034C0.272,-0.011 0.257,-0 0.236,-0ZM0.499,-0.299L0.428,-0.507L0.357,-0.299L0.499,-0.299Z" style="fill:white;fill-rule:nonzero;"/>
            </g>
            <g transform="matrix(321.712,0,0,321.712,1093.82,2205.14)">
                <path d="M0.741,-0.219C0.741,-0.151 0.709,-0.097 0.645,-0.058C0.58,-0.019 0.497,0.001 0.394,0.001C0.257,0.001 0.158,-0.032 0.097,-0.099C0.065,-0.134 0.049,-0.17 0.049,-0.207C0.049,-0.214 0.051,-0.219 0.056,-0.223C0.06,-0.227 0.065,-0.229 0.071,-0.229L0.29,-0.229C0.297,-0.229 0.305,-0.226 0.312,-0.219C0.319,-0.212 0.325,-0.207 0.328,-0.204C0.339,-0.197 0.358,-0.193 0.386,-0.193C0.443,-0.193 0.471,-0.207 0.471,-0.236C0.471,-0.259 0.445,-0.27 0.394,-0.27L0.261,-0.27C0.254,-0.27 0.247,-0.273 0.242,-0.278C0.237,-0.283 0.234,-0.29 0.234,-0.297L0.234,-0.42C0.234,-0.427 0.237,-0.434 0.242,-0.439C0.247,-0.444 0.254,-0.447 0.261,-0.447L0.394,-0.447C0.445,-0.447 0.471,-0.456 0.471,-0.473C0.471,-0.484 0.464,-0.492 0.45,-0.498C0.436,-0.503 0.419,-0.506 0.398,-0.506C0.377,-0.506 0.362,-0.505 0.35,-0.503C0.34,-0.502 0.332,-0.5 0.329,-0.498C0.325,-0.496 0.319,-0.492 0.312,-0.486C0.305,-0.481 0.297,-0.478 0.29,-0.478L0.071,-0.478C0.065,-0.478 0.06,-0.48 0.056,-0.484C0.051,-0.488 0.049,-0.493 0.049,-0.5C0.049,-0.543 0.074,-0.586 0.125,-0.629C0.15,-0.65 0.186,-0.667 0.233,-0.681C0.28,-0.694 0.333,-0.701 0.394,-0.701C0.496,-0.701 0.579,-0.682 0.644,-0.644C0.709,-0.606 0.741,-0.555 0.741,-0.49C0.741,-0.457 0.73,-0.428 0.707,-0.404C0.684,-0.38 0.663,-0.365 0.642,-0.359C0.662,-0.354 0.684,-0.338 0.707,-0.311C0.73,-0.284 0.741,-0.254 0.741,-0.219Z" style="fill:white;fill-rule:nonzero;"/>
            </g>
            <g transform="matrix(321.712,0,0,321.712,1367.28,2205.14)">
                <path d="M0.236,-0L0.047,-0C0.041,-0 0.036,-0.002 0.032,-0.007C0.027,-0.011 0.025,-0.015 0.025,-0.019C0.025,-0.023 0.025,-0.026 0.026,-0.028L0.244,-0.667C0.25,-0.689 0.265,-0.7 0.289,-0.7L0.567,-0.7C0.591,-0.7 0.606,-0.689 0.612,-0.667L0.83,-0.028C0.831,-0.026 0.831,-0.023 0.831,-0.019C0.831,-0.015 0.829,-0.011 0.825,-0.007C0.82,-0.002 0.815,-0 0.809,-0L0.62,-0C0.599,-0 0.584,-0.011 0.575,-0.034L0.55,-0.104L0.306,-0.104L0.281,-0.034C0.272,-0.011 0.257,-0 0.236,-0ZM0.499,-0.299L0.428,-0.507L0.357,-0.299L0.499,-0.299Z" style="fill:white;fill-rule:nonzero;"/>
            </g>
            <g transform="matrix(321.712,0,0,321.712,1640.73,2205.14)">
                <path d="M0.153,-0.7L0.527,-0.7C0.622,-0.7 0.697,-0.677 0.752,-0.631C0.807,-0.585 0.835,-0.526 0.835,-0.454C0.835,-0.382 0.812,-0.325 0.765,-0.282C0.718,-0.24 0.639,-0.219 0.527,-0.219L0.395,-0.219L0.395,-0.027C0.395,-0.02 0.392,-0.013 0.387,-0.008C0.382,-0.003 0.375,-0 0.368,-0L0.153,-0C0.146,-0 0.139,-0.003 0.134,-0.008C0.129,-0.013 0.126,-0.02 0.126,-0.027L0.126,-0.673C0.126,-0.68 0.129,-0.687 0.134,-0.692C0.139,-0.697 0.146,-0.7 0.153,-0.7ZM0.396,-0.514L0.396,-0.404L0.523,-0.404C0.538,-0.404 0.551,-0.409 0.561,-0.418C0.57,-0.427 0.575,-0.44 0.575,-0.457C0.575,-0.474 0.57,-0.487 0.561,-0.498C0.552,-0.509 0.539,-0.514 0.523,-0.514L0.396,-0.514Z" style="fill:white;fill-rule:nonzero;"/>
            </g>
            <g transform="matrix(321.712,0,0,321.712,1914.19,2205.14)">
                <path d="M0.046,-0.458C0.046,-0.533 0.073,-0.592 0.126,-0.635C0.179,-0.678 0.252,-0.7 0.343,-0.7L0.732,-0.7C0.739,-0.7 0.746,-0.697 0.751,-0.692C0.756,-0.687 0.759,-0.68 0.759,-0.673L0.759,-0.027C0.759,-0.02 0.756,-0.013 0.751,-0.008C0.746,-0.003 0.739,-0 0.732,-0L0.516,-0C0.509,-0 0.502,-0.003 0.497,-0.008C0.492,-0.013 0.489,-0.02 0.489,-0.027L0.489,-0.223L0.405,-0.223L0.317,-0.025C0.309,-0.008 0.295,-0 0.275,-0L0.048,-0C0.042,-0 0.037,-0.002 0.033,-0.007C0.028,-0.011 0.026,-0.015 0.026,-0.02C0.026,-0.025 0.027,-0.028 0.028,-0.031L0.151,-0.261C0.081,-0.302 0.046,-0.367 0.046,-0.458ZM0.489,-0.408L0.489,-0.514L0.364,-0.514C0.349,-0.514 0.337,-0.508 0.33,-0.498C0.322,-0.487 0.318,-0.474 0.318,-0.459C0.318,-0.444 0.322,-0.432 0.33,-0.423C0.338,-0.413 0.349,-0.408 0.364,-0.408L0.489,-0.408Z" style="fill:white;fill-rule:nonzero;"/>
            </g>
            <g transform="matrix(321.712,0,0,321.712,2187.64,2205.14)">
                <path d="M0.552,-0.7L0.758,-0.7C0.765,-0.7 0.772,-0.697 0.777,-0.692C0.782,-0.687 0.785,-0.68 0.785,-0.673L0.785,-0.027C0.785,-0.02 0.782,-0.013 0.777,-0.008C0.772,-0.003 0.765,-0 0.758,-0L0.552,-0C0.545,-0 0.538,-0.003 0.533,-0.008C0.528,-0.013 0.525,-0.02 0.525,-0.027L0.525,-0.24L0.325,-0.24L0.325,-0.027C0.325,-0.02 0.322,-0.013 0.317,-0.008C0.312,-0.003 0.305,-0 0.298,-0L0.092,-0C0.085,-0 0.078,-0.003 0.073,-0.008C0.068,-0.013 0.065,-0.019 0.065,-0.027L0.065,-0.673C0.065,-0.68 0.068,-0.687 0.073,-0.692C0.078,-0.697 0.085,-0.7 0.092,-0.7L0.298,-0.7C0.305,-0.7 0.312,-0.697 0.317,-0.692C0.322,-0.687 0.325,-0.68 0.325,-0.673L0.325,-0.468L0.525,-0.468L0.525,-0.673C0.525,-0.68 0.528,-0.687 0.533,-0.692C0.538,-0.697 0.545,-0.7 0.552,-0.7Z" style="fill:white;fill-rule:nonzero;"/>
            </g>
        </g>
    </g>
</svg>
