<?xml version="1.0" encoding="UTF-8" standalone="no"?>
<!DOCTYPE svg PUBLIC "-//W3C//DTD SVG 1.1//EN" "http://www.w3.org/Graphics/SVG/1.1/DTD/svg11.dtd">
<svg width="100%" height="100%" viewBox="0 0 3508 882" version="1.1" xmlns="http://www.w3.org/2000/svg" xmlns:xlink="http://www.w3.org/1999/xlink" xml:space="preserve" xmlns:serif="http://www.serif.com/" style="fill-rule:evenodd;clip-rule:evenodd;stroke-linejoin:round;stroke-miterlimit:2;">
    <rect id="Artboard1" x="0" y="0" width="3507.87" height="881.664" style="fill:none;"/>
    <clipPath id="_clip1">
        <rect id="Artboard11" serif:id="Artboard1" x="0" y="0" width="3507.87" height="881.664"/>
    </clipPath>
    <g clip-path="url(#_clip1)">
        <g transform="matrix(10.0663,0,0,10.0663,0,43.844)">
            <g transform="matrix(25.8021,0,0,25.8021,0.239408,18.0615)">
                <path d="M0.222,-0.674L0.222,-0.472L0.293,-0.472C0.304,-0.55 0.332,-0.608 0.377,-0.645C0.421,-0.682 0.485,-0.701 0.568,-0.701C0.67,-0.701 0.743,-0.672 0.786,-0.613C0.829,-0.555 0.85,-0.467 0.85,-0.349C0.85,-0.231 0.829,-0.144 0.786,-0.086C0.743,-0.028 0.67,0.001 0.568,0.001C0.485,0.001 0.422,-0.02 0.378,-0.063C0.333,-0.105 0.305,-0.168 0.293,-0.252L0.222,-0.252L0.222,-0.028C0.222,-0.02 0.219,-0.014 0.214,-0.008C0.209,-0.003 0.202,-0 0.195,-0L0.034,-0C0.027,-0 0.02,-0.003 0.015,-0.008C0.01,-0.013 0.007,-0.019 0.007,-0.027L0.007,-0.673C0.007,-0.68 0.01,-0.687 0.015,-0.692C0.02,-0.697 0.027,-0.7 0.034,-0.7L0.195,-0.7C0.202,-0.7 0.209,-0.697 0.214,-0.692C0.219,-0.687 0.222,-0.681 0.222,-0.674ZM0.516,-0.424L0.516,-0.276C0.516,-0.221 0.533,-0.194 0.568,-0.194C0.603,-0.194 0.62,-0.222 0.62,-0.277L0.62,-0.423C0.62,-0.478 0.603,-0.506 0.568,-0.506C0.533,-0.506 0.516,-0.479 0.516,-0.424Z" style="fill:rgb(236,216,114);fill-rule:nonzero;"/>
            </g>
            <g transform="matrix(25.8021,0,0,25.8021,22.1712,18.0615)">
                <path d="M0.51,-0L0.338,-0C0.331,-0 0.324,-0.003 0.319,-0.008C0.314,-0.013 0.311,-0.02 0.311,-0.027L0.311,-0.251L0.218,-0.02C0.211,-0.007 0.199,-0 0.182,-0L0.006,-0C-0.007,-0 -0.013,-0.007 -0.013,-0.02C-0.013,-0.021 -0.012,-0.025 -0.009,-0.033L0.133,-0.365L0.008,-0.667C0.005,-0.675 0.004,-0.68 0.004,-0.681C0.004,-0.694 0.01,-0.7 0.022,-0.7L0.2,-0.7C0.213,-0.7 0.223,-0.693 0.228,-0.678L0.311,-0.465L0.311,-0.673C0.311,-0.68 0.314,-0.687 0.319,-0.692C0.324,-0.697 0.331,-0.7 0.338,-0.7L0.51,-0.7C0.517,-0.7 0.524,-0.697 0.529,-0.692C0.534,-0.687 0.537,-0.68 0.537,-0.673L0.537,-0.465L0.62,-0.678C0.625,-0.693 0.635,-0.7 0.648,-0.7L0.826,-0.7C0.838,-0.7 0.844,-0.694 0.844,-0.681C0.844,-0.68 0.843,-0.675 0.84,-0.667L0.715,-0.365L0.857,-0.033C0.86,-0.025 0.861,-0.021 0.861,-0.02C0.861,-0.007 0.855,-0 0.842,-0L0.666,-0C0.649,-0 0.637,-0.007 0.63,-0.02L0.537,-0.251L0.537,-0.027C0.537,-0.02 0.534,-0.013 0.529,-0.008C0.524,-0.003 0.517,-0 0.51,-0Z" style="fill:rgb(236,216,114);fill-rule:nonzero;"/>
            </g>
            <g transform="matrix(25.8021,0,0,25.8021,44.1031,18.0615)">
                <path d="M0.552,-0.7L0.758,-0.7C0.765,-0.7 0.772,-0.697 0.777,-0.692C0.782,-0.687 0.785,-0.68 0.785,-0.673L0.785,-0.027C0.785,-0.02 0.782,-0.013 0.777,-0.008C0.772,-0.003 0.765,-0 0.758,-0L0.552,-0C0.545,-0 0.538,-0.003 0.533,-0.008C0.528,-0.013 0.525,-0.02 0.525,-0.027L0.525,-0.24L0.325,-0.24L0.325,-0.027C0.325,-0.02 0.322,-0.013 0.317,-0.008C0.312,-0.003 0.305,-0 0.298,-0L0.092,-0C0.085,-0 0.078,-0.003 0.073,-0.008C0.068,-0.013 0.065,-0.019 0.065,-0.027L0.065,-0.673C0.065,-0.68 0.068,-0.687 0.073,-0.692C0.078,-0.697 0.085,-0.7 0.092,-0.7L0.298,-0.7C0.305,-0.7 0.312,-0.697 0.317,-0.692C0.322,-0.687 0.325,-0.68 0.325,-0.673L0.325,-0.468L0.525,-0.468L0.525,-0.673C0.525,-0.68 0.528,-0.687 0.533,-0.692C0.538,-0.697 0.545,-0.7 0.552,-0.7Z" style="fill:rgb(236,216,114);fill-rule:nonzero;"/>
            </g>
            <g transform="matrix(25.8021,0,0,25.8021,66.0349,18.0615)">
                <path d="M0.797,-0.409L0.797,-0.291C0.797,-0.224 0.78,-0.168 0.747,-0.123C0.714,-0.078 0.67,-0.046 0.616,-0.027C0.562,-0.008 0.498,0.001 0.425,0.001C0.352,0.001 0.288,-0.008 0.234,-0.027C0.18,-0.046 0.136,-0.078 0.103,-0.123C0.07,-0.168 0.053,-0.224 0.053,-0.292L0.053,-0.408C0.053,-0.506 0.087,-0.579 0.157,-0.628C0.226,-0.677 0.315,-0.701 0.425,-0.701C0.535,-0.701 0.625,-0.677 0.694,-0.628C0.762,-0.579 0.797,-0.506 0.797,-0.409ZM0.323,-0.426L0.323,-0.274C0.323,-0.249 0.332,-0.229 0.35,-0.215C0.369,-0.201 0.394,-0.194 0.425,-0.194C0.456,-0.194 0.481,-0.201 0.5,-0.215C0.518,-0.229 0.527,-0.249 0.527,-0.275L0.527,-0.425C0.527,-0.451 0.518,-0.471 0.5,-0.485C0.481,-0.499 0.456,-0.506 0.425,-0.506C0.394,-0.506 0.369,-0.499 0.35,-0.485C0.332,-0.471 0.323,-0.451 0.323,-0.426Z" style="fill:rgb(236,216,114);fill-rule:nonzero;"/>
            </g>
            <g transform="matrix(25.8021,0,0,25.8021,87.9667,18.0615)">
                <path d="M0.234,-0.43L0.617,-0.43C0.624,-0.43 0.631,-0.427 0.636,-0.422C0.641,-0.417 0.644,-0.41 0.644,-0.403L0.644,-0.261C0.644,-0.254 0.641,-0.247 0.636,-0.242C0.631,-0.237 0.624,-0.234 0.617,-0.234L0.234,-0.234C0.227,-0.234 0.22,-0.237 0.215,-0.242C0.21,-0.247 0.207,-0.254 0.207,-0.261L0.207,-0.403C0.207,-0.41 0.21,-0.417 0.215,-0.422C0.22,-0.427 0.227,-0.43 0.234,-0.43Z" style="fill:rgb(236,216,114);fill-rule:nonzero;"/>
            </g>
            <g transform="matrix(25.8021,0,0,25.8021,109.899,18.0615)">
                <path d="M0.333,-0.426L0.333,-0.274C0.333,-0.249 0.342,-0.229 0.361,-0.215C0.379,-0.201 0.403,-0.194 0.433,-0.194C0.462,-0.194 0.484,-0.198 0.497,-0.207C0.51,-0.216 0.522,-0.229 0.531,-0.246C0.54,-0.263 0.551,-0.272 0.566,-0.272L0.782,-0.272C0.788,-0.272 0.793,-0.269 0.798,-0.265C0.802,-0.261 0.804,-0.256 0.804,-0.25C0.804,-0.189 0.775,-0.133 0.716,-0.083C0.687,-0.058 0.648,-0.038 0.599,-0.022C0.55,-0.007 0.493,0.001 0.427,0.001C0.361,0.001 0.301,-0.009 0.247,-0.029C0.192,-0.049 0.148,-0.081 0.114,-0.126C0.08,-0.171 0.063,-0.227 0.063,-0.292L0.063,-0.408C0.063,-0.473 0.08,-0.529 0.114,-0.574C0.178,-0.659 0.285,-0.701 0.435,-0.701C0.496,-0.701 0.55,-0.693 0.599,-0.678C0.648,-0.662 0.687,-0.642 0.716,-0.617C0.775,-0.567 0.804,-0.511 0.804,-0.45C0.804,-0.444 0.802,-0.439 0.798,-0.435C0.793,-0.431 0.788,-0.428 0.782,-0.428L0.566,-0.428C0.551,-0.428 0.54,-0.437 0.531,-0.454C0.522,-0.471 0.51,-0.484 0.497,-0.493C0.484,-0.502 0.462,-0.506 0.433,-0.506C0.403,-0.506 0.379,-0.499 0.361,-0.485C0.342,-0.471 0.333,-0.451 0.333,-0.426Z" style="fill:rgb(236,216,114);fill-rule:nonzero;"/>
            </g>
            <g transform="matrix(25.8021,0,0,25.8021,131.83,18.0615)">
                <path d="M0.236,-0L0.047,-0C0.041,-0 0.036,-0.002 0.032,-0.007C0.027,-0.011 0.025,-0.015 0.025,-0.019C0.025,-0.023 0.025,-0.026 0.026,-0.028L0.244,-0.667C0.25,-0.689 0.265,-0.7 0.289,-0.7L0.567,-0.7C0.591,-0.7 0.606,-0.689 0.612,-0.667L0.83,-0.028C0.831,-0.026 0.831,-0.023 0.831,-0.019C0.831,-0.015 0.829,-0.011 0.825,-0.007C0.82,-0.002 0.815,-0 0.809,-0L0.62,-0C0.599,-0 0.584,-0.011 0.575,-0.034L0.55,-0.104L0.306,-0.104L0.281,-0.034C0.272,-0.011 0.257,-0 0.236,-0ZM0.499,-0.299L0.428,-0.507L0.357,-0.299L0.499,-0.299Z" style="fill:rgb(236,216,114);fill-rule:nonzero;"/>
            </g>
            <g transform="matrix(25.8021,0,0,25.8021,153.762,18.0615)">
                <path d="M0.796,-0.033C0.798,-0.03 0.799,-0.026 0.799,-0.021C0.799,-0.016 0.797,-0.011 0.793,-0.007C0.788,-0.002 0.783,-0 0.777,-0L0.562,-0C0.544,-0 0.53,-0.008 0.521,-0.023L0.424,-0.172L0.329,-0.023C0.319,-0.008 0.305,-0 0.288,-0L0.072,-0C0.066,-0 0.061,-0.002 0.057,-0.007C0.052,-0.011 0.05,-0.016 0.05,-0.021C0.05,-0.026 0.051,-0.03 0.053,-0.033L0.274,-0.371L0.077,-0.667C0.075,-0.67 0.074,-0.674 0.074,-0.679C0.074,-0.684 0.076,-0.689 0.081,-0.694C0.085,-0.698 0.09,-0.7 0.096,-0.7L0.312,-0.7C0.329,-0.7 0.343,-0.692 0.354,-0.675L0.432,-0.547L0.516,-0.677C0.527,-0.692 0.541,-0.7 0.557,-0.7L0.772,-0.7C0.778,-0.7 0.783,-0.698 0.788,-0.694C0.792,-0.689 0.794,-0.684 0.794,-0.679C0.794,-0.674 0.793,-0.67 0.791,-0.667L0.582,-0.358L0.796,-0.033Z" style="fill:rgb(236,216,114);fill-rule:nonzero;"/>
            </g>
            <g transform="matrix(25.8021,0,0,25.8021,175.694,18.0615)">
                <path d="M0.236,-0L0.047,-0C0.041,-0 0.036,-0.002 0.032,-0.007C0.027,-0.011 0.025,-0.015 0.025,-0.019C0.025,-0.023 0.025,-0.026 0.026,-0.028L0.244,-0.667C0.25,-0.689 0.265,-0.7 0.289,-0.7L0.567,-0.7C0.591,-0.7 0.606,-0.689 0.612,-0.667L0.83,-0.028C0.831,-0.026 0.831,-0.023 0.831,-0.019C0.831,-0.015 0.829,-0.011 0.825,-0.007C0.82,-0.002 0.815,-0 0.809,-0L0.62,-0C0.599,-0 0.584,-0.011 0.575,-0.034L0.55,-0.104L0.306,-0.104L0.281,-0.034C0.272,-0.011 0.257,-0 0.236,-0ZM0.499,-0.299L0.428,-0.507L0.357,-0.299L0.499,-0.299Z" style="fill:rgb(236,216,114);fill-rule:nonzero;"/>
            </g>
            <g transform="matrix(25.8021,0,0,25.8021,197.626,18.0615)">
                <path d="M0.065,0.001C0.058,0.001 0.051,-0.002 0.046,-0.007C0.04,-0.012 0.037,-0.019 0.037,-0.026L0.037,-0.186C0.037,-0.193 0.04,-0.2 0.045,-0.205C0.05,-0.21 0.057,-0.213 0.064,-0.213C0.092,-0.213 0.111,-0.219 0.122,-0.231C0.133,-0.243 0.138,-0.262 0.138,-0.289L0.138,-0.673C0.138,-0.681 0.141,-0.687 0.146,-0.692C0.151,-0.697 0.158,-0.7 0.165,-0.7L0.733,-0.7C0.74,-0.7 0.747,-0.697 0.752,-0.692C0.757,-0.687 0.76,-0.68 0.76,-0.673L0.76,-0.027C0.76,-0.02 0.757,-0.013 0.752,-0.008C0.747,-0.003 0.74,-0 0.733,-0L0.547,-0C0.54,-0 0.533,-0.003 0.528,-0.008C0.523,-0.013 0.52,-0.02 0.52,-0.027L0.52,-0.485L0.378,-0.485L0.378,-0.288C0.378,-0.191 0.35,-0.118 0.296,-0.071C0.241,-0.023 0.164,0.001 0.065,0.001Z" style="fill:rgb(236,216,114);fill-rule:nonzero;"/>
            </g>
            <g transform="matrix(25.8021,0,0,25.8021,219.558,18.0615)">
                <path d="M0.106,-0.7L0.292,-0.7C0.299,-0.7 0.306,-0.697 0.311,-0.692C0.316,-0.687 0.319,-0.68 0.319,-0.673L0.319,-0.379L0.537,-0.68C0.547,-0.693 0.56,-0.7 0.576,-0.7L0.738,-0.7C0.745,-0.7 0.752,-0.697 0.757,-0.692C0.762,-0.687 0.765,-0.68 0.765,-0.673L0.765,-0.027C0.765,-0.02 0.762,-0.013 0.757,-0.008C0.752,-0.003 0.745,-0 0.738,-0L0.552,-0C0.545,-0 0.538,-0.003 0.533,-0.008C0.528,-0.013 0.525,-0.02 0.525,-0.027L0.525,-0.299L0.307,-0.021C0.296,-0.007 0.283,-0 0.267,-0L0.106,-0C0.099,-0 0.092,-0.003 0.087,-0.008C0.082,-0.013 0.079,-0.02 0.079,-0.027L0.079,-0.673C0.079,-0.68 0.082,-0.687 0.087,-0.692C0.092,-0.697 0.099,-0.7 0.106,-0.7Z" style="fill:rgb(236,216,114);fill-rule:nonzero;"/>
            </g>
            <g transform="matrix(25.8021,0,0,25.8021,241.489,18.0615)">
                <path d="M0.552,-0.7L0.758,-0.7C0.765,-0.7 0.772,-0.697 0.777,-0.692C0.782,-0.687 0.785,-0.68 0.785,-0.673L0.785,-0.027C0.785,-0.02 0.782,-0.013 0.777,-0.008C0.772,-0.003 0.765,-0 0.758,-0L0.552,-0C0.545,-0 0.538,-0.003 0.533,-0.008C0.528,-0.013 0.525,-0.02 0.525,-0.027L0.525,-0.24L0.325,-0.24L0.325,-0.027C0.325,-0.02 0.322,-0.013 0.317,-0.008C0.312,-0.003 0.305,-0 0.298,-0L0.092,-0C0.085,-0 0.078,-0.003 0.073,-0.008C0.068,-0.013 0.065,-0.019 0.065,-0.027L0.065,-0.673C0.065,-0.68 0.068,-0.687 0.073,-0.692C0.078,-0.697 0.085,-0.7 0.092,-0.7L0.298,-0.7C0.305,-0.7 0.312,-0.697 0.317,-0.692C0.322,-0.687 0.325,-0.68 0.325,-0.673L0.325,-0.468L0.525,-0.468L0.525,-0.673C0.525,-0.68 0.528,-0.687 0.533,-0.692C0.538,-0.697 0.545,-0.7 0.552,-0.7Z" style="fill:rgb(236,216,114);fill-rule:nonzero;"/>
            </g>
            <g transform="matrix(25.8021,0,0,25.8021,263.421,18.0615)">
                <path d="M0.333,-0.426L0.333,-0.274C0.333,-0.249 0.342,-0.229 0.361,-0.215C0.379,-0.201 0.403,-0.194 0.433,-0.194C0.462,-0.194 0.484,-0.198 0.497,-0.207C0.51,-0.216 0.522,-0.229 0.531,-0.246C0.54,-0.263 0.551,-0.272 0.566,-0.272L0.782,-0.272C0.788,-0.272 0.793,-0.269 0.798,-0.265C0.802,-0.261 0.804,-0.256 0.804,-0.25C0.804,-0.189 0.775,-0.133 0.716,-0.083C0.687,-0.058 0.648,-0.038 0.599,-0.022C0.55,-0.007 0.493,0.001 0.427,0.001C0.361,0.001 0.301,-0.009 0.247,-0.029C0.192,-0.049 0.148,-0.081 0.114,-0.126C0.08,-0.171 0.063,-0.227 0.063,-0.292L0.063,-0.408C0.063,-0.473 0.08,-0.529 0.114,-0.574C0.178,-0.659 0.285,-0.701 0.435,-0.701C0.496,-0.701 0.55,-0.693 0.599,-0.678C0.648,-0.662 0.687,-0.642 0.716,-0.617C0.775,-0.567 0.804,-0.511 0.804,-0.45C0.804,-0.444 0.802,-0.439 0.798,-0.435C0.793,-0.431 0.788,-0.428 0.782,-0.428L0.566,-0.428C0.551,-0.428 0.54,-0.437 0.531,-0.454C0.522,-0.471 0.51,-0.484 0.497,-0.493C0.484,-0.502 0.462,-0.506 0.433,-0.506C0.403,-0.506 0.379,-0.499 0.361,-0.485C0.342,-0.471 0.333,-0.451 0.333,-0.426Z" style="fill:rgb(236,216,114);fill-rule:nonzero;"/>
            </g>
            <g transform="matrix(25.8021,0,0,25.8021,285.353,18.0615)">
                <path d="M0.838,-0.035C0.841,-0.031 0.842,-0.026 0.842,-0.021C0.842,-0.016 0.84,-0.011 0.836,-0.007C0.831,-0.002 0.826,-0 0.82,-0L0.562,-0C0.547,-0 0.535,-0.005 0.526,-0.016L0.352,-0.231L0.352,-0.027C0.352,-0.02 0.349,-0.013 0.344,-0.008C0.339,-0.003 0.332,-0 0.325,-0L0.119,-0C0.112,-0 0.105,-0.003 0.1,-0.008C0.095,-0.013 0.092,-0.02 0.092,-0.027L0.092,-0.673C0.092,-0.68 0.095,-0.687 0.1,-0.692C0.105,-0.697 0.112,-0.7 0.119,-0.7L0.325,-0.7C0.332,-0.7 0.339,-0.697 0.344,-0.692C0.349,-0.687 0.352,-0.68 0.352,-0.673L0.352,-0.485L0.51,-0.683C0.52,-0.694 0.532,-0.7 0.547,-0.7L0.788,-0.7C0.794,-0.7 0.799,-0.698 0.804,-0.694C0.808,-0.689 0.81,-0.684 0.81,-0.679C0.81,-0.673 0.808,-0.668 0.805,-0.664L0.568,-0.375L0.838,-0.035Z" style="fill:rgb(236,216,114);fill-rule:nonzero;"/>
            </g>
            <g transform="matrix(25.8021,0,0,25.8021,307.285,18.0615)">
                <path d="M0.106,-0.7L0.292,-0.7C0.299,-0.7 0.306,-0.697 0.311,-0.692C0.316,-0.687 0.319,-0.68 0.319,-0.673L0.319,-0.379L0.537,-0.68C0.547,-0.693 0.56,-0.7 0.576,-0.7L0.738,-0.7C0.745,-0.7 0.752,-0.697 0.757,-0.692C0.762,-0.687 0.765,-0.68 0.765,-0.673L0.765,-0.027C0.765,-0.02 0.762,-0.013 0.757,-0.008C0.752,-0.003 0.745,-0 0.738,-0L0.552,-0C0.545,-0 0.538,-0.003 0.533,-0.008C0.528,-0.013 0.525,-0.02 0.525,-0.027L0.525,-0.299L0.307,-0.021C0.296,-0.007 0.283,-0 0.267,-0L0.106,-0C0.099,-0 0.092,-0.003 0.087,-0.008C0.082,-0.013 0.079,-0.02 0.079,-0.027L0.079,-0.673C0.079,-0.68 0.082,-0.687 0.087,-0.692C0.092,-0.697 0.099,-0.7 0.106,-0.7Z" style="fill:rgb(236,216,114);fill-rule:nonzero;"/>
            </g>
            <g transform="matrix(25.8021,0,0,25.8021,329.217,18.0615)">
                <path d="M0.491,-0.855L0.59,-0.855C0.603,-0.855 0.609,-0.851 0.609,-0.842C0.609,-0.811 0.594,-0.784 0.563,-0.762C0.532,-0.741 0.489,-0.73 0.432,-0.73C0.375,-0.73 0.331,-0.741 0.3,-0.762C0.269,-0.784 0.254,-0.811 0.254,-0.842C0.254,-0.851 0.26,-0.855 0.273,-0.855L0.372,-0.855C0.382,-0.855 0.388,-0.851 0.391,-0.842C0.395,-0.825 0.408,-0.817 0.429,-0.817C0.45,-0.817 0.465,-0.825 0.472,-0.842C0.476,-0.851 0.482,-0.855 0.491,-0.855ZM0.106,-0.7L0.292,-0.7C0.299,-0.7 0.306,-0.697 0.311,-0.692C0.316,-0.687 0.319,-0.68 0.319,-0.673L0.319,-0.379L0.537,-0.68C0.547,-0.693 0.56,-0.7 0.576,-0.7L0.738,-0.7C0.745,-0.7 0.752,-0.697 0.757,-0.692C0.762,-0.687 0.765,-0.68 0.765,-0.673L0.765,-0.027C0.765,-0.02 0.762,-0.013 0.757,-0.008C0.752,-0.003 0.745,-0 0.738,-0L0.552,-0C0.545,-0 0.538,-0.003 0.533,-0.008C0.528,-0.013 0.525,-0.02 0.525,-0.027L0.525,-0.299L0.307,-0.021C0.296,-0.007 0.283,-0 0.267,-0L0.106,-0C0.099,-0 0.092,-0.003 0.087,-0.008C0.082,-0.013 0.079,-0.02 0.079,-0.027L0.079,-0.673C0.079,-0.68 0.082,-0.687 0.087,-0.692C0.092,-0.697 0.099,-0.7 0.106,-0.7Z" style="fill:rgb(236,216,114);fill-rule:nonzero;"/>
            </g>
        </g>
        <g transform="matrix(1.24898,0,0,1.24898,-63.1367,323.432)">
            <g transform="matrix(257.58,0,0,257.58,32.5185,180.306)">
                <path d="M0.333,-0.426L0.333,-0.274C0.333,-0.249 0.342,-0.229 0.361,-0.215C0.379,-0.201 0.403,-0.194 0.433,-0.194C0.462,-0.194 0.484,-0.198 0.497,-0.207C0.51,-0.216 0.522,-0.229 0.531,-0.246C0.54,-0.263 0.551,-0.272 0.566,-0.272L0.782,-0.272C0.788,-0.272 0.793,-0.269 0.798,-0.265C0.802,-0.261 0.804,-0.256 0.804,-0.25C0.804,-0.189 0.775,-0.133 0.716,-0.083C0.687,-0.058 0.648,-0.038 0.599,-0.022C0.55,-0.007 0.493,0.001 0.427,0.001C0.361,0.001 0.301,-0.009 0.247,-0.029C0.192,-0.049 0.148,-0.081 0.114,-0.126C0.08,-0.171 0.063,-0.227 0.063,-0.292L0.063,-0.408C0.063,-0.473 0.08,-0.529 0.114,-0.574C0.178,-0.659 0.285,-0.701 0.435,-0.701C0.496,-0.701 0.55,-0.693 0.599,-0.678C0.648,-0.662 0.687,-0.642 0.716,-0.617C0.775,-0.567 0.804,-0.511 0.804,-0.45C0.804,-0.444 0.802,-0.439 0.798,-0.435C0.793,-0.431 0.788,-0.428 0.782,-0.428L0.566,-0.428C0.551,-0.428 0.54,-0.437 0.531,-0.454C0.522,-0.471 0.51,-0.484 0.497,-0.493C0.484,-0.502 0.462,-0.506 0.433,-0.506C0.403,-0.506 0.379,-0.499 0.361,-0.485C0.342,-0.471 0.333,-0.451 0.333,-0.426Z" style="fill:rgb(236,216,114);fill-rule:nonzero;"/>
            </g>
            <g transform="matrix(257.58,0,0,257.58,251.462,180.306)">
                <path d="M0.106,-0.7L0.292,-0.7C0.299,-0.7 0.306,-0.697 0.311,-0.692C0.316,-0.687 0.319,-0.68 0.319,-0.673L0.319,-0.379L0.537,-0.68C0.547,-0.693 0.56,-0.7 0.576,-0.7L0.738,-0.7C0.745,-0.7 0.752,-0.697 0.757,-0.692C0.762,-0.687 0.765,-0.68 0.765,-0.673L0.765,-0.027C0.765,-0.02 0.762,-0.013 0.757,-0.008C0.752,-0.003 0.745,-0 0.738,-0L0.552,-0C0.545,-0 0.538,-0.003 0.533,-0.008C0.528,-0.013 0.525,-0.02 0.525,-0.027L0.525,-0.299L0.307,-0.021C0.296,-0.007 0.283,-0 0.267,-0L0.106,-0C0.099,-0 0.092,-0.003 0.087,-0.008C0.082,-0.013 0.079,-0.02 0.079,-0.027L0.079,-0.673C0.079,-0.68 0.082,-0.687 0.087,-0.692C0.092,-0.697 0.099,-0.7 0.106,-0.7Z" style="fill:rgb(236,216,114);fill-rule:nonzero;"/>
            </g>
            <g transform="matrix(257.58,0,0,257.58,470.405,180.306)">
                <path d="M0.599,-0.7L0.782,-0.7C0.789,-0.7 0.796,-0.697 0.801,-0.692C0.806,-0.687 0.809,-0.68 0.809,-0.673L0.809,-0.027C0.809,-0.02 0.806,-0.013 0.801,-0.008C0.796,-0.003 0.789,-0 0.782,-0L0.601,-0C0.594,-0 0.587,-0.003 0.582,-0.008C0.577,-0.013 0.574,-0.02 0.574,-0.027L0.574,-0.337L0.501,-0.193C0.497,-0.185 0.491,-0.179 0.483,-0.174C0.475,-0.17 0.467,-0.168 0.459,-0.168L0.391,-0.168C0.38,-0.168 0.37,-0.171 0.363,-0.177C0.356,-0.183 0.351,-0.188 0.349,-0.193L0.276,-0.337L0.276,-0.027C0.276,-0.02 0.273,-0.013 0.268,-0.008C0.263,-0.003 0.256,-0 0.249,-0L0.068,-0C0.061,-0 0.054,-0.003 0.049,-0.008C0.044,-0.013 0.041,-0.02 0.041,-0.027L0.041,-0.673C0.041,-0.68 0.044,-0.687 0.049,-0.692C0.054,-0.697 0.061,-0.7 0.068,-0.7L0.251,-0.7C0.27,-0.7 0.284,-0.691 0.294,-0.673L0.425,-0.433L0.556,-0.673C0.566,-0.691 0.58,-0.7 0.599,-0.7Z" style="fill:rgb(236,216,114);fill-rule:nonzero;"/>
            </g>
            <g transform="matrix(257.58,0,0,257.58,689.349,180.306)">
                <path d="M0.53,-0.619C0.617,-0.606 0.686,-0.577 0.739,-0.531C0.791,-0.485 0.817,-0.424 0.817,-0.349C0.817,-0.274 0.791,-0.213 0.739,-0.165C0.687,-0.118 0.617,-0.087 0.53,-0.074L0.53,-0.025C0.53,-0.018 0.527,-0.012 0.522,-0.007C0.517,-0.002 0.51,0.001 0.503,0.001L0.347,0.001C0.34,0.001 0.333,-0.002 0.328,-0.007C0.323,-0.012 0.32,-0.018 0.32,-0.025L0.32,-0.075C0.235,-0.089 0.166,-0.12 0.115,-0.169C0.064,-0.217 0.038,-0.278 0.038,-0.352C0.038,-0.425 0.064,-0.485 0.116,-0.53C0.167,-0.576 0.235,-0.605 0.32,-0.619L0.32,-0.673C0.32,-0.681 0.323,-0.687 0.328,-0.693C0.333,-0.698 0.34,-0.701 0.347,-0.701L0.503,-0.701C0.51,-0.701 0.517,-0.698 0.522,-0.693C0.527,-0.687 0.53,-0.681 0.53,-0.673L0.53,-0.619ZM0.525,-0.258C0.573,-0.274 0.597,-0.303 0.597,-0.347C0.597,-0.39 0.573,-0.42 0.525,-0.436L0.525,-0.258ZM0.325,-0.436C0.277,-0.421 0.253,-0.392 0.253,-0.348C0.253,-0.304 0.277,-0.274 0.325,-0.258L0.325,-0.436Z" style="fill:rgb(236,216,114);fill-rule:nonzero;"/>
            </g>
            <g transform="matrix(257.58,0,0,257.58,908.292,180.306)">
                <path d="M0.797,-0.409L0.797,-0.291C0.797,-0.224 0.78,-0.168 0.747,-0.123C0.714,-0.078 0.67,-0.046 0.616,-0.027C0.562,-0.008 0.498,0.001 0.425,0.001C0.352,0.001 0.288,-0.008 0.234,-0.027C0.18,-0.046 0.136,-0.078 0.103,-0.123C0.07,-0.168 0.053,-0.224 0.053,-0.292L0.053,-0.408C0.053,-0.506 0.087,-0.579 0.157,-0.628C0.226,-0.677 0.315,-0.701 0.425,-0.701C0.535,-0.701 0.625,-0.677 0.694,-0.628C0.762,-0.579 0.797,-0.506 0.797,-0.409ZM0.323,-0.426L0.323,-0.274C0.323,-0.249 0.332,-0.229 0.35,-0.215C0.369,-0.201 0.394,-0.194 0.425,-0.194C0.456,-0.194 0.481,-0.201 0.5,-0.215C0.518,-0.229 0.527,-0.249 0.527,-0.275L0.527,-0.425C0.527,-0.451 0.518,-0.471 0.5,-0.485C0.481,-0.499 0.456,-0.506 0.425,-0.506C0.394,-0.506 0.369,-0.499 0.35,-0.485C0.332,-0.471 0.323,-0.451 0.323,-0.426Z" style="fill:rgb(236,216,114);fill-rule:nonzero;"/>
            </g>
            <g transform="matrix(257.58,0,0,257.58,1127.24,180.306)">
                <path d="M0.552,-0.7L0.758,-0.7C0.765,-0.7 0.772,-0.697 0.777,-0.692C0.782,-0.687 0.785,-0.68 0.785,-0.673L0.785,-0.027C0.785,-0.02 0.782,-0.013 0.777,-0.008C0.772,-0.003 0.765,-0 0.758,-0L0.552,-0C0.545,-0 0.538,-0.003 0.533,-0.008C0.528,-0.013 0.525,-0.02 0.525,-0.027L0.525,-0.24L0.325,-0.24L0.325,-0.027C0.325,-0.02 0.322,-0.013 0.317,-0.008C0.312,-0.003 0.305,-0 0.298,-0L0.092,-0C0.085,-0 0.078,-0.003 0.073,-0.008C0.068,-0.013 0.065,-0.019 0.065,-0.027L0.065,-0.673C0.065,-0.68 0.068,-0.687 0.073,-0.692C0.078,-0.697 0.085,-0.7 0.092,-0.7L0.298,-0.7C0.305,-0.7 0.312,-0.697 0.317,-0.692C0.322,-0.687 0.325,-0.68 0.325,-0.673L0.325,-0.468L0.525,-0.468L0.525,-0.673C0.525,-0.68 0.528,-0.687 0.533,-0.692C0.538,-0.697 0.545,-0.7 0.552,-0.7Z" style="fill:rgb(236,216,114);fill-rule:nonzero;"/>
            </g>
            <g transform="matrix(257.58,0,0,257.58,1346.18,180.306)">
                <path d="M0.106,-0.7L0.292,-0.7C0.299,-0.7 0.306,-0.697 0.311,-0.692C0.316,-0.687 0.319,-0.68 0.319,-0.673L0.319,-0.379L0.537,-0.68C0.547,-0.693 0.56,-0.7 0.576,-0.7L0.738,-0.7C0.745,-0.7 0.752,-0.697 0.757,-0.692C0.762,-0.687 0.765,-0.68 0.765,-0.673L0.765,-0.027C0.765,-0.02 0.762,-0.013 0.757,-0.008C0.752,-0.003 0.745,-0 0.738,-0L0.552,-0C0.545,-0 0.538,-0.003 0.533,-0.008C0.528,-0.013 0.525,-0.02 0.525,-0.027L0.525,-0.299L0.307,-0.021C0.296,-0.007 0.283,-0 0.267,-0L0.106,-0C0.099,-0 0.092,-0.003 0.087,-0.008C0.082,-0.013 0.079,-0.02 0.079,-0.027L0.079,-0.673C0.079,-0.68 0.082,-0.687 0.087,-0.692C0.092,-0.697 0.099,-0.7 0.106,-0.7Z" style="fill:rgb(236,216,114);fill-rule:nonzero;"/>
            </g>
            <g transform="matrix(257.58,0,0,257.58,1565.12,180.306)">
                <path d="M0.275,-0.673L0.275,-0.522C0.275,-0.491 0.283,-0.469 0.3,-0.455C0.317,-0.441 0.337,-0.434 0.362,-0.434L0.476,-0.434L0.476,-0.673C0.476,-0.68 0.479,-0.687 0.484,-0.692C0.489,-0.697 0.496,-0.7 0.503,-0.7L0.709,-0.7C0.716,-0.7 0.723,-0.697 0.728,-0.692C0.733,-0.687 0.736,-0.68 0.736,-0.673L0.736,-0.027C0.736,-0.02 0.733,-0.013 0.728,-0.008C0.723,-0.003 0.716,-0 0.709,-0L0.503,-0C0.496,-0 0.489,-0.003 0.484,-0.008C0.479,-0.013 0.476,-0.02 0.476,-0.027L0.476,-0.206L0.359,-0.206C0.218,-0.206 0.118,-0.253 0.06,-0.346C0.03,-0.395 0.015,-0.455 0.015,-0.526L0.016,-0.673C0.016,-0.68 0.019,-0.687 0.024,-0.692C0.029,-0.697 0.036,-0.7 0.043,-0.7L0.248,-0.7C0.255,-0.7 0.262,-0.697 0.267,-0.692C0.272,-0.687 0.275,-0.68 0.275,-0.673Z" style="fill:rgb(236,216,114);fill-rule:nonzero;"/>
            </g>
            <g transform="matrix(257.58,0,0,257.58,1784.07,180.306)">
                <path d="M0.35,-0.195L0.749,-0.195C0.756,-0.195 0.763,-0.192 0.768,-0.187C0.773,-0.182 0.776,-0.175 0.776,-0.168L0.776,-0.027C0.776,-0.02 0.773,-0.013 0.768,-0.008C0.763,-0.003 0.756,-0 0.749,-0L0.117,-0C0.11,-0 0.103,-0.003 0.098,-0.008C0.093,-0.013 0.09,-0.02 0.09,-0.027L0.09,-0.673C0.09,-0.68 0.093,-0.687 0.098,-0.692C0.103,-0.697 0.11,-0.7 0.117,-0.7L0.739,-0.7C0.746,-0.7 0.753,-0.697 0.758,-0.692C0.763,-0.687 0.766,-0.68 0.766,-0.673L0.766,-0.532C0.766,-0.525 0.763,-0.518 0.758,-0.513C0.753,-0.508 0.746,-0.505 0.739,-0.505L0.35,-0.505L0.35,-0.442L0.684,-0.442C0.691,-0.442 0.698,-0.439 0.703,-0.434C0.708,-0.429 0.711,-0.422 0.711,-0.415L0.711,-0.285C0.711,-0.278 0.708,-0.271 0.703,-0.266C0.698,-0.261 0.691,-0.258 0.684,-0.258L0.35,-0.258L0.35,-0.195Z" style="fill:rgb(236,216,114);fill-rule:nonzero;"/>
            </g>
            <g transform="matrix(257.58,0,0,257.58,2003.01,180.306)">
                <path d="M0.333,-0.426L0.333,-0.274C0.333,-0.249 0.342,-0.229 0.361,-0.215C0.379,-0.201 0.403,-0.194 0.433,-0.194C0.462,-0.194 0.484,-0.198 0.497,-0.207C0.51,-0.216 0.522,-0.229 0.531,-0.246C0.54,-0.263 0.551,-0.272 0.566,-0.272L0.782,-0.272C0.788,-0.272 0.793,-0.269 0.798,-0.265C0.802,-0.261 0.804,-0.256 0.804,-0.25C0.804,-0.189 0.775,-0.133 0.716,-0.083C0.687,-0.058 0.648,-0.038 0.599,-0.022C0.55,-0.007 0.493,0.001 0.427,0.001C0.361,0.001 0.301,-0.009 0.247,-0.029C0.192,-0.049 0.148,-0.081 0.114,-0.126C0.08,-0.171 0.063,-0.227 0.063,-0.292L0.063,-0.408C0.063,-0.473 0.08,-0.529 0.114,-0.574C0.178,-0.659 0.285,-0.701 0.435,-0.701C0.496,-0.701 0.55,-0.693 0.599,-0.678C0.648,-0.662 0.687,-0.642 0.716,-0.617C0.775,-0.567 0.804,-0.511 0.804,-0.45C0.804,-0.444 0.802,-0.439 0.798,-0.435C0.793,-0.431 0.788,-0.428 0.782,-0.428L0.566,-0.428C0.551,-0.428 0.54,-0.437 0.531,-0.454C0.522,-0.471 0.51,-0.484 0.497,-0.493C0.484,-0.502 0.462,-0.506 0.433,-0.506C0.403,-0.506 0.379,-0.499 0.361,-0.485C0.342,-0.471 0.333,-0.451 0.333,-0.426Z" style="fill:rgb(236,216,114);fill-rule:nonzero;"/>
            </g>
            <g transform="matrix(257.58,0,0,257.58,2221.95,180.306)">
                <path d="M0.838,-0.035C0.841,-0.031 0.842,-0.026 0.842,-0.021C0.842,-0.016 0.84,-0.011 0.836,-0.007C0.831,-0.002 0.826,-0 0.82,-0L0.562,-0C0.547,-0 0.535,-0.005 0.526,-0.016L0.352,-0.231L0.352,-0.027C0.352,-0.02 0.349,-0.013 0.344,-0.008C0.339,-0.003 0.332,-0 0.325,-0L0.119,-0C0.112,-0 0.105,-0.003 0.1,-0.008C0.095,-0.013 0.092,-0.02 0.092,-0.027L0.092,-0.673C0.092,-0.68 0.095,-0.687 0.1,-0.692C0.105,-0.697 0.112,-0.7 0.119,-0.7L0.325,-0.7C0.332,-0.7 0.339,-0.697 0.344,-0.692C0.349,-0.687 0.352,-0.68 0.352,-0.673L0.352,-0.485L0.51,-0.683C0.52,-0.694 0.532,-0.7 0.547,-0.7L0.788,-0.7C0.794,-0.7 0.799,-0.698 0.804,-0.694C0.808,-0.689 0.81,-0.684 0.81,-0.679C0.81,-0.673 0.808,-0.668 0.805,-0.664L0.568,-0.375L0.838,-0.035Z" style="fill:rgb(236,216,114);fill-rule:nonzero;"/>
            </g>
            <g transform="matrix(257.58,0,0,257.58,2440.9,180.306)">
                <path d="M0.106,-0.7L0.292,-0.7C0.299,-0.7 0.306,-0.697 0.311,-0.692C0.316,-0.687 0.319,-0.68 0.319,-0.673L0.319,-0.379L0.537,-0.68C0.547,-0.693 0.56,-0.7 0.576,-0.7L0.738,-0.7C0.745,-0.7 0.752,-0.697 0.757,-0.692C0.762,-0.687 0.765,-0.68 0.765,-0.673L0.765,-0.027C0.765,-0.02 0.762,-0.013 0.757,-0.008C0.752,-0.003 0.745,-0 0.738,-0L0.552,-0C0.545,-0 0.538,-0.003 0.533,-0.008C0.528,-0.013 0.525,-0.02 0.525,-0.027L0.525,-0.299L0.307,-0.021C0.296,-0.007 0.283,-0 0.267,-0L0.106,-0C0.099,-0 0.092,-0.003 0.087,-0.008C0.082,-0.013 0.079,-0.02 0.079,-0.027L0.079,-0.673C0.079,-0.68 0.082,-0.687 0.087,-0.692C0.092,-0.697 0.099,-0.7 0.106,-0.7Z" style="fill:rgb(236,216,114);fill-rule:nonzero;"/>
            </g>
            <g transform="matrix(257.58,0,0,257.58,2659.84,180.306)">
                <path d="M0.491,-0.855L0.59,-0.855C0.603,-0.855 0.609,-0.851 0.609,-0.842C0.609,-0.811 0.594,-0.784 0.563,-0.762C0.532,-0.741 0.489,-0.73 0.432,-0.73C0.375,-0.73 0.331,-0.741 0.3,-0.762C0.269,-0.784 0.254,-0.811 0.254,-0.842C0.254,-0.851 0.26,-0.855 0.273,-0.855L0.372,-0.855C0.382,-0.855 0.388,-0.851 0.391,-0.842C0.395,-0.825 0.408,-0.817 0.429,-0.817C0.45,-0.817 0.465,-0.825 0.472,-0.842C0.476,-0.851 0.482,-0.855 0.491,-0.855ZM0.106,-0.7L0.292,-0.7C0.299,-0.7 0.306,-0.697 0.311,-0.692C0.316,-0.687 0.319,-0.68 0.319,-0.673L0.319,-0.379L0.537,-0.68C0.547,-0.693 0.56,-0.7 0.576,-0.7L0.738,-0.7C0.745,-0.7 0.752,-0.697 0.757,-0.692C0.762,-0.687 0.765,-0.68 0.765,-0.673L0.765,-0.027C0.765,-0.02 0.762,-0.013 0.757,-0.008C0.752,-0.003 0.745,-0 0.738,-0L0.552,-0C0.545,-0 0.538,-0.003 0.533,-0.008C0.528,-0.013 0.525,-0.02 0.525,-0.027L0.525,-0.299L0.307,-0.021C0.296,-0.007 0.283,-0 0.267,-0L0.106,-0C0.099,-0 0.092,-0.003 0.087,-0.008C0.082,-0.013 0.079,-0.02 0.079,-0.027L0.079,-0.673C0.079,-0.68 0.082,-0.687 0.087,-0.692C0.092,-0.697 0.099,-0.7 0.106,-0.7Z" style="fill:rgb(236,216,114);fill-rule:nonzero;"/>
            </g>
        </g>
        <g transform="matrix(12.5512,0,0,12.5512,-28.1854,636.366)">
            <g transform="matrix(25.8021,0,0,25.8021,0,18.0615)">
                <path d="M0.797,-0.409L0.797,-0.291C0.797,-0.224 0.78,-0.168 0.747,-0.123C0.714,-0.078 0.67,-0.046 0.616,-0.027C0.562,-0.008 0.498,0.001 0.425,0.001C0.352,0.001 0.288,-0.008 0.234,-0.027C0.18,-0.046 0.136,-0.078 0.103,-0.123C0.07,-0.168 0.053,-0.224 0.053,-0.292L0.053,-0.408C0.053,-0.506 0.087,-0.579 0.157,-0.628C0.226,-0.677 0.315,-0.701 0.425,-0.701C0.535,-0.701 0.625,-0.677 0.694,-0.628C0.762,-0.579 0.797,-0.506 0.797,-0.409ZM0.323,-0.426L0.323,-0.274C0.323,-0.249 0.332,-0.229 0.35,-0.215C0.369,-0.201 0.394,-0.194 0.425,-0.194C0.456,-0.194 0.481,-0.201 0.5,-0.215C0.518,-0.229 0.527,-0.249 0.527,-0.275L0.527,-0.425C0.527,-0.451 0.518,-0.471 0.5,-0.485C0.481,-0.499 0.456,-0.506 0.425,-0.506C0.394,-0.506 0.369,-0.499 0.35,-0.485C0.332,-0.471 0.323,-0.451 0.323,-0.426Z" style="fill:rgb(236,216,114);fill-rule:nonzero;"/>
            </g>
            <g transform="matrix(25.8021,0,0,25.8021,21.9318,18.0615)">
                <path d="M0.153,-0.7L0.527,-0.7C0.622,-0.7 0.697,-0.677 0.752,-0.631C0.807,-0.585 0.835,-0.526 0.835,-0.454C0.835,-0.382 0.812,-0.325 0.765,-0.282C0.718,-0.24 0.639,-0.219 0.527,-0.219L0.395,-0.219L0.395,-0.027C0.395,-0.02 0.392,-0.013 0.387,-0.008C0.382,-0.003 0.375,-0 0.368,-0L0.153,-0C0.146,-0 0.139,-0.003 0.134,-0.008C0.129,-0.013 0.126,-0.02 0.126,-0.027L0.126,-0.673C0.126,-0.68 0.129,-0.687 0.134,-0.692C0.139,-0.697 0.146,-0.7 0.153,-0.7ZM0.396,-0.514L0.396,-0.404L0.523,-0.404C0.538,-0.404 0.551,-0.409 0.561,-0.418C0.57,-0.427 0.575,-0.44 0.575,-0.457C0.575,-0.474 0.57,-0.487 0.561,-0.498C0.552,-0.509 0.539,-0.514 0.523,-0.514L0.396,-0.514Z" style="fill:rgb(236,216,114);fill-rule:nonzero;"/>
            </g>
            <g transform="matrix(25.8021,0,0,25.8021,43.8636,18.0615)">
                <path d="M0.838,-0.035C0.841,-0.031 0.842,-0.026 0.842,-0.021C0.842,-0.016 0.84,-0.011 0.836,-0.007C0.831,-0.002 0.826,-0 0.82,-0L0.562,-0C0.547,-0 0.535,-0.005 0.526,-0.016L0.352,-0.231L0.352,-0.027C0.352,-0.02 0.349,-0.013 0.344,-0.008C0.339,-0.003 0.332,-0 0.325,-0L0.119,-0C0.112,-0 0.105,-0.003 0.1,-0.008C0.095,-0.013 0.092,-0.02 0.092,-0.027L0.092,-0.673C0.092,-0.68 0.095,-0.687 0.1,-0.692C0.105,-0.697 0.112,-0.7 0.119,-0.7L0.325,-0.7C0.332,-0.7 0.339,-0.697 0.344,-0.692C0.349,-0.687 0.352,-0.68 0.352,-0.673L0.352,-0.485L0.51,-0.683C0.52,-0.694 0.532,-0.7 0.547,-0.7L0.788,-0.7C0.794,-0.7 0.799,-0.698 0.804,-0.694C0.808,-0.689 0.81,-0.684 0.81,-0.679C0.81,-0.673 0.808,-0.668 0.805,-0.664L0.568,-0.375L0.838,-0.035Z" style="fill:rgb(236,216,114);fill-rule:nonzero;"/>
            </g>
            <g transform="matrix(25.8021,0,0,25.8021,65.7955,18.0615)">
                <path d="M0.35,-0.195L0.749,-0.195C0.756,-0.195 0.763,-0.192 0.768,-0.187C0.773,-0.182 0.776,-0.175 0.776,-0.168L0.776,-0.027C0.776,-0.02 0.773,-0.013 0.768,-0.008C0.763,-0.003 0.756,-0 0.749,-0L0.117,-0C0.11,-0 0.103,-0.003 0.098,-0.008C0.093,-0.013 0.09,-0.02 0.09,-0.027L0.09,-0.673C0.09,-0.68 0.093,-0.687 0.098,-0.692C0.103,-0.697 0.11,-0.7 0.117,-0.7L0.739,-0.7C0.746,-0.7 0.753,-0.697 0.758,-0.692C0.763,-0.687 0.766,-0.68 0.766,-0.673L0.766,-0.532C0.766,-0.525 0.763,-0.518 0.758,-0.513C0.753,-0.508 0.746,-0.505 0.739,-0.505L0.35,-0.505L0.35,-0.442L0.684,-0.442C0.691,-0.442 0.698,-0.439 0.703,-0.434C0.708,-0.429 0.711,-0.422 0.711,-0.415L0.711,-0.285C0.711,-0.278 0.708,-0.271 0.703,-0.266C0.698,-0.261 0.691,-0.258 0.684,-0.258L0.35,-0.258L0.35,-0.195Z" style="fill:rgb(236,216,114);fill-rule:nonzero;"/>
            </g>
            <g transform="matrix(25.8021,0,0,25.8021,87.7273,18.0615)">
                <path d="M0.333,-0.426L0.333,-0.274C0.333,-0.249 0.342,-0.229 0.361,-0.215C0.379,-0.201 0.403,-0.194 0.433,-0.194C0.462,-0.194 0.484,-0.198 0.497,-0.207C0.51,-0.216 0.522,-0.229 0.531,-0.246C0.54,-0.263 0.551,-0.272 0.566,-0.272L0.782,-0.272C0.788,-0.272 0.793,-0.269 0.798,-0.265C0.802,-0.261 0.804,-0.256 0.804,-0.25C0.804,-0.189 0.775,-0.133 0.716,-0.083C0.687,-0.058 0.648,-0.038 0.599,-0.022C0.55,-0.007 0.493,0.001 0.427,0.001C0.361,0.001 0.301,-0.009 0.247,-0.029C0.192,-0.049 0.148,-0.081 0.114,-0.126C0.08,-0.171 0.063,-0.227 0.063,-0.292L0.063,-0.408C0.063,-0.473 0.08,-0.529 0.114,-0.574C0.178,-0.659 0.285,-0.701 0.435,-0.701C0.496,-0.701 0.55,-0.693 0.599,-0.678C0.648,-0.662 0.687,-0.642 0.716,-0.617C0.775,-0.567 0.804,-0.511 0.804,-0.45C0.804,-0.444 0.802,-0.439 0.798,-0.435C0.793,-0.431 0.788,-0.428 0.782,-0.428L0.566,-0.428C0.551,-0.428 0.54,-0.437 0.531,-0.454C0.522,-0.471 0.51,-0.484 0.497,-0.493C0.484,-0.502 0.462,-0.506 0.433,-0.506C0.403,-0.506 0.379,-0.499 0.361,-0.485C0.342,-0.471 0.333,-0.451 0.333,-0.426Z" style="fill:rgb(236,216,114);fill-rule:nonzero;"/>
            </g>
            <g transform="matrix(25.8021,0,0,25.8021,109.659,18.0615)">
                <path d="M0.08,-0.7L0.77,-0.7C0.777,-0.7 0.784,-0.697 0.789,-0.692C0.794,-0.687 0.797,-0.68 0.797,-0.673L0.797,-0.512C0.797,-0.505 0.794,-0.498 0.789,-0.493C0.784,-0.488 0.777,-0.485 0.77,-0.485L0.555,-0.485L0.555,-0.027C0.555,-0.02 0.552,-0.013 0.547,-0.008C0.542,-0.003 0.535,-0 0.528,-0L0.322,-0C0.315,-0 0.308,-0.003 0.303,-0.008C0.298,-0.013 0.295,-0.02 0.295,-0.027L0.295,-0.485L0.08,-0.485C0.073,-0.485 0.066,-0.488 0.061,-0.493C0.056,-0.498 0.053,-0.505 0.053,-0.512L0.053,-0.673C0.053,-0.68 0.056,-0.687 0.061,-0.692C0.066,-0.697 0.073,-0.7 0.08,-0.7Z" style="fill:rgb(236,216,114);fill-rule:nonzero;"/>
            </g>
            <g transform="matrix(25.8021,0,0,25.8021,131.591,18.0615)">
                <path d="M0.153,-0.7L0.527,-0.7C0.622,-0.7 0.697,-0.677 0.752,-0.631C0.807,-0.585 0.835,-0.526 0.835,-0.454C0.835,-0.382 0.812,-0.325 0.765,-0.282C0.718,-0.24 0.639,-0.219 0.527,-0.219L0.395,-0.219L0.395,-0.027C0.395,-0.02 0.392,-0.013 0.387,-0.008C0.382,-0.003 0.375,-0 0.368,-0L0.153,-0C0.146,-0 0.139,-0.003 0.134,-0.008C0.129,-0.013 0.126,-0.02 0.126,-0.027L0.126,-0.673C0.126,-0.68 0.129,-0.687 0.134,-0.692C0.139,-0.697 0.146,-0.7 0.153,-0.7ZM0.396,-0.514L0.396,-0.404L0.523,-0.404C0.538,-0.404 0.551,-0.409 0.561,-0.418C0.57,-0.427 0.575,-0.44 0.575,-0.457C0.575,-0.474 0.57,-0.487 0.561,-0.498C0.552,-0.509 0.539,-0.514 0.523,-0.514L0.396,-0.514Z" style="fill:rgb(236,216,114);fill-rule:nonzero;"/>
            </g>
        </g>
    </g>
</svg>
