<svg xmlns="http://www.w3.org/2000/svg" width="482" height="452" viewBox="0 0 482 452">
  <defs>
    <style>
      .cls-1 {
        fill-rule: evenodd;
      }
    </style>
  </defs>
  <path id="Фигура_1" data-name="Фигура 1" class="cls-1" d="M218.36,0.007l59.471,43.979c2.673,92.726-17.31,160.05-69.235,201.946-9.114,7.353-43,34.245-55.034,37.7,0.591-1.2,26.037-17.652,26.629-18.849,44.2-25.914,77.95-121.326,62.135-195.663C236.792,43.108,224.3,21.828,218.36.007Zm-50.6.9,44.382,24.234c12.876,32.042,22.278,87.541,16.865,120.27-12.093,73.131-41.594,109.379-70.123,125.655-38.811,22.143-74.235,11.278-80.776,8.976-11.86-4.176-34.628-13.829-45.27-38.595-17.514-40.761,8.388-87.527,42.607-91.548,65.747-7.728,96.821,80.827,32.843,99.626-13.7,4.027-29.793-4.973-33.73-8.078a37.211,37.211,0,0,1-13.315-23.336c-0.776-6.267.081-22.6,12.427-30.516,22.853-14.652,44.626,6.328,42.4,24.842-0.747,6.22-4.94,13.032-8.671,15.547-2.884,1.945-3.974,3.052-9.764,3.591-5.98.071-10.1-1.932-12.427-6.283-3.029-3.332-3.01-9.055-1.775-14.361,3.44-4.91,6.471-8.158,15.09-8.078,4.953,1.4,8.318,3.333,10.652,10.771,0.055,0.176.534-.432,0.887-0.9,2.85-20.445-21.938-34.144-36.393-18.848-18.9,20-.224,44.414,18.64,49.365,25.544,6.7,51.323-18.247,45.269-46.672-4.2-19.733-23.053-36.261-42.606-40.39-57.941-12.233-78.3,71-43.494,99.627,76.662,63.048,165.64-21.013,159.775-120.27-2.451-41.482-10.545-61.748-21.3-91.549ZM336.416,67.322c46.958-.643,92.062,54.4,109.18,86.164,7.117,13.208,18.771,38.088,7.1,54.75-21.217,30.291-51.979-5.294-82.551,0-29.685,5.139-89.262,29.907-103.854,49.364h2.663c32.968-12.032,54.243-34.185,92.315-40.389,27.733-4.519,62.888,4.552,67.46,24.233,4.972,21.4-18.01,26.644-31.067,31.414-6.4,2.34-88.613,17.085-133.146,24.234l-0.888-1.795,2.663-3.59c30.073-7.805,134.583-24.066,148.236-41.287v-2.693c-36.108-39.305-122.85,5.528-158.888,21.541l-33.73,16.156-12.427-5.385,0.888-1.795c42.257-9.86,100.181-88.564,112.73-130.144C332.689,116.332,304.119,86.347,336.416,67.322ZM292.034,85.273l21.3,43.979c2.894,14.88-11.746,37.427-16.865,47.57-20.766,41.146-68.885,90.941-116.281,104.114,0.592-1.2,12.723-7.779,13.315-8.975C252.7,248,290.079,167.423,292.034,85.273ZM474,324.018c-104.731,0-218.074-1.2-320.438.9C108,327.907,68.64,330,23.079,332.993L0,321.325l0.888-1.8,17.753-8.975,134.034,7.18H367.483c33.253,0,75.518.174,106.517,1.795v4.488Z"/>
  <path id="ЮСКО" class="cls-1" d="M128.575,359.8a57.211,57.211,0,0,0-37.931-.419A46.48,46.48,0,0,0,64.4,381.68a46.334,46.334,0,0,0-5.166,17.982H38.121V371.174a8.956,8.956,0,0,1,.867-3.932,5.193,5.193,0,0,1,3.431-2.578,41.6,41.6,0,0,1,4.562-.967,39.183,39.183,0,0,1,5.166-.58v-4.576H7.881v4.576a33.163,33.163,0,0,1,5.015.774,30.6,30.6,0,0,1,4.939,1.482,6.511,6.511,0,0,1,3.393,2.675,7.45,7.45,0,0,1,.98,3.77v66a7.234,7.234,0,0,1-1.056,4.093,6.25,6.25,0,0,1-3.318,2.353,18.084,18.084,0,0,1-4.713.773q-3.432.258-5.241,0.387V450H52.147v-4.576a39.043,39.043,0,0,1-5.166-.645,21.546,21.546,0,0,1-4.562-1.16,7.108,7.108,0,0,1-3.431-2.707,7.671,7.671,0,0,1-.867-3.8V405.4H59.085a49.786,49.786,0,0,0,3.884,18.885,44.672,44.672,0,0,0,10.293,14.76,47.959,47.959,0,0,0,15.685,9.668,58.1,58.1,0,0,0,39.251.129,48.727,48.727,0,0,0,15.949-9.539,44.538,44.538,0,0,0,10.972-15.243,48.019,48.019,0,0,0,3.96-19.691,48.515,48.515,0,0,0-3.96-19.884,44.669,44.669,0,0,0-10.745-15.114A47.879,47.879,0,0,0,128.575,359.8Zm-5.429,83.338a30.225,30.225,0,0,1-14.441,3.319,30.422,30.422,0,0,1-14.4-3.19,27.655,27.655,0,0,1-9.954-8.863A40.1,40.1,0,0,1,78.5,421.125a69.92,69.92,0,0,1-1.848-16.758,70.831,70.831,0,0,1,1.81-16.306,40.345,40.345,0,0,1,5.279-12.956,29.4,29.4,0,0,1,9.992-9.506q6.069-3.513,14.969-3.513a30.936,30.936,0,0,1,13.988,3.029,27.256,27.256,0,0,1,10.067,8.573,38.939,38.939,0,0,1,6.033,13.438,69.406,69.406,0,0,1,2.036,17.241,68.694,68.694,0,0,1-1.885,16.6,40.083,40.083,0,0,1-5.807,13.245A27.3,27.3,0,0,1,123.146,443.136Zm121.914,3.222q10.7-5.832,17.18-19.432l-5.656-2.321a34,34,0,0,1-4.671,7.864,36.226,36.226,0,0,1-6.628,6.445,31.73,31.73,0,0,1-8.889,4.351,36.583,36.583,0,0,1-11.223,1.643,34.2,34.2,0,0,1-14.727-3.1,34.645,34.645,0,0,1-11.411-8.579,39.593,39.593,0,0,1-7.421-12.868,47.825,47.825,0,0,1-2.6-16.093,60.988,60.988,0,0,1,2.485-18,37.836,37.836,0,0,1,6.856-13.288,30.006,30.006,0,0,1,10.882-8.192,33.318,33.318,0,0,1,13.6-2.774,25.134,25.134,0,0,1,11.373,2.482,26.22,26.22,0,0,1,8.586,6.864,38.246,38.246,0,0,1,5.649,9.443,68.755,68.755,0,0,1,3.616,10.344h6.184l-0.679-32.613h-6.033l-3.089,4.383a58.069,58.069,0,0,0-12.205-4.7,60.171,60.171,0,0,0-34.28,1.807,48.166,48.166,0,0,0-16.2,9.868,45.956,45.956,0,0,0-10.849,15.382,49.025,49.025,0,0,0-3.918,19.9,46.873,46.873,0,0,0,3.994,19.7,44.691,44.691,0,0,0,10.7,14.8,47.811,47.811,0,0,0,15.559,9.288,52.8,52.8,0,0,0,18.347,3.224Q234.362,452.191,245.06,446.358Zm128.183-.934q-1.659-.129-3.921-0.356t-4.223-.485a10.762,10.762,0,0,1-4.449-1.778q-2.188-1.454-4.525-5.78-1.659-3.162-4.185-7.713t-4.638-8.489a36.15,36.15,0,0,0-9.313-11.271,35.4,35.4,0,0,0-13.913-6.353v-0.9a32.64,32.64,0,0,0,5.316-5.087,48.139,48.139,0,0,0,3.884-5.412,35.655,35.655,0,0,0,2.79-5.446q1.206-2.932,2.112-5.318,1.131-2.835,2-5.156a33.378,33.378,0,0,1,2-4.383,25.593,25.593,0,0,1,2.6-3.867,12.932,12.932,0,0,1,3.582-3.029q0.98,1.675,2.074,3.319a15.045,15.045,0,0,0,2.451,2.868,10.149,10.149,0,0,0,3.205,1.934,12.067,12.067,0,0,0,4.336.709,8.589,8.589,0,0,0,3.619-.613,8.027,8.027,0,0,0,2.338-1.708,6.03,6.03,0,0,0,1.4-2.255,8.1,8.1,0,0,0,.49-2.772,7.018,7.018,0,0,0-.754-3.223,7.266,7.266,0,0,0-2.262-2.578,12.5,12.5,0,0,0-4.072-1.9,21.08,21.08,0,0,0-5.656-.677,24.745,24.745,0,0,0-8.671,1.483,22.028,22.028,0,0,0-6.938,4.06,27.667,27.667,0,0,0-6.632,8.443q-2.259,4.578-4.365,9.926-2.259,5.8-4.214,9.894a21.266,21.266,0,0,1-5.2,6.929,16.279,16.279,0,0,1-4.946,3.029,15.126,15.126,0,0,1-5.474,1.031h-7.022V371.174a8.655,8.655,0,0,1,.905-3.932,5.337,5.337,0,0,1,3.469-2.578,41.007,41.007,0,0,1,4.675-.967,42.067,42.067,0,0,1,5.279-.58v-4.576H271.968v4.576a30.61,30.61,0,0,1,4.9.774,31.412,31.412,0,0,1,4.826,1.482,6.394,6.394,0,0,1,3.432,2.643,7.922,7.922,0,0,1,.867,3.8v66a7.386,7.386,0,0,1-1.018,3.964,6.22,6.22,0,0,1-3.281,2.482,18.8,18.8,0,0,1-4.675.773q-3.319.258-5.052,0.387V450h44.416v-4.576a34.367,34.367,0,0,1-5.467-.71,33.11,33.11,0,0,1-4.487-1.1A6.653,6.653,0,0,1,303,440.9a7.639,7.639,0,0,1-.943-3.809V407.783h5.5q8.74,0,13.9,3.421t10.23,13.169q3.1,5.81,6.051,11.975T343.791,450h29.452v-4.576Zm75.863-85.658a59.93,59.93,0,0,0-39.7-.065,49.516,49.516,0,0,0-16.477,9.668,45.1,45.1,0,0,0-15.308,35,47.363,47.363,0,0,0,3.884,19.111,44.446,44.446,0,0,0,10.67,15.178,48.383,48.383,0,0,0,16.251,9.958,60.592,60.592,0,0,0,40.382.226,50.057,50.057,0,0,0,16.289-9.539A43.886,43.886,0,0,0,476.4,424.154a46.974,46.974,0,0,0,4.073-19.787,47.812,47.812,0,0,0-4-19.755A44.552,44.552,0,0,0,465.4,369.369,48.918,48.918,0,0,0,449.106,359.766Zm-5.5,83.466a32.238,32.238,0,0,1-14.554,3.223,31.872,31.872,0,0,1-14.781-3.19,28.591,28.591,0,0,1-10.255-8.863,39.2,39.2,0,0,1-6.184-13.277,66.069,66.069,0,0,1-1.961-16.758,67.434,67.434,0,0,1,1.848-15.984,41.422,41.422,0,0,1,5.618-13.278,29.855,29.855,0,0,1,10.331-9.474,31.073,31.073,0,0,1,15.384-3.545,32.223,32.223,0,0,1,14.328,3.061,28.668,28.668,0,0,1,10.406,8.541,39.525,39.525,0,0,1,6.3,13.406,71.369,71.369,0,0,1,.226,33.838,39.445,39.445,0,0,1-6.146,13.277A27.772,27.772,0,0,1,443.6,443.232Z"/>
</svg>
