<svg xmlns="http://www.w3.org/2000/svg" width="146.46" height="39.02" viewBox="0 0 144.36 39.04"><defs><style>.cls-1{fill:#FF4F02;}.cls-1,.cls-2{fill-rule:evenodd;}.cls-2{fill:#1299DD;}</style></defs><path class="cls-1" d="M110.59,9.34a10.18,10.18,0,1,0,10.19,10.18A10.18,10.18,0,0,0,110.59,9.34Zm-.06,16.17a6.05,6.05,0,1,1,6.06-6.05A6.05,6.05,0,0,1,110.53,25.51Z"/><path class="cls-1" d="M107.88.19c-.41-.4-1.78,0-1.78,0s-1.38.38-1.52.93c-.24.93,2.29,6,2.75,5.85l1.13-.3c.46-.13.11-5.76-.57-6.44"/><path class="cls-1" d="M100.64,3.45c-.53-.21-1.65.69-1.65.69s-1.1.9-1,1.47c.15,1,4.51,4.55,4.88,4.24l.91-.74c.37-.3-2.23-5.31-3.13-5.66"/><path class="cls-1" d="M113.25.19c.41-.4,1.78,0,1.78,0s1.38.38,1.52.93c.24.93-2.29,6-2.75,5.85l-1.13-.3c-.46-.13-.11-5.76.57-6.44"/><path class="cls-1" d="M120.48,3.45c.54-.21,1.65.69,1.65.69s1.11.9,1,1.47c-.15,1-4.51,4.55-4.88,4.24l-.91-.74c-.37-.3,2.23-5.31,3.13-5.66"/><path class="cls-1" d="M107.88,38.85c-.41.4-1.78,0-1.78,0s-1.38-.38-1.52-.93c-.24-.93,2.29-6,2.75-5.85l1.13.3c.46.13.11,5.76-.57,6.44"/><path class="cls-1" d="M100.64,35.59c-.53.21-1.65-.69-1.65-.69s-1.1-.9-1-1.47c.15-1,4.51-4.55,4.88-4.24l.91.74c.37.3-2.23,5.31-3.13,5.66"/><path class="cls-1" d="M113.25,38.85c.41.4,1.78,0,1.78,0s1.38-.38,1.52-.93c.24-.93-2.29-6-2.75-5.85l-1.13.3c-.46.13-.11,5.76.57,6.44"/><path class="cls-1" d="M120.48,35.59c.54.21,1.65-.69,1.65-.69s1.11-.9,1-1.47c-.15-1-4.51-4.55-4.88-4.24l-.91.74c-.37.3,2.23,5.31,3.13,5.66"/><path class="cls-2" d="M4.77,22.63c.1,2.15,1.44,2.84,3.46,2.84,1.44,0,2.92-.51,2.92-1.87,0-1.61-2.62-1.92-5.26-2.66S.54,19,.54,15.66c0-4,4-5.56,7.46-5.56,3.64,0,7.31,1.77,7.33,5.89H10.57c.08-1.67-1.49-2.2-2.95-2.2-1,0-2.31.36-2.31,1.56,0,1.41,2.64,1.67,5.31,2.41s5.31,2,5.31,5.28c0,4.64-3.95,6.12-8,6.12-4.21,0-7.92-1.84-8-6.53H4.77"/><path class="cls-2" d="M24.16,10.49H29l6.85,18.29h-5L29.75,25.5H23.36l-1.15,3.28h-4.9ZM24.47,22h4.15l-2-6.41h-.05Z"/><polyline class="cls-2" points="38.1 10.49 42.87 10.49 42.87 17.51 48.9 10.49 54.82 10.49 48.05 17.69 55.67 28.78 49.74 28.78 44.82 21.1 42.87 23.15 42.87 28.78 38.1 28.78 38.1 10.49"/><polyline class="cls-2" points="57.83 10.49 62.6 10.49 62.6 17.15 68.88 17.15 68.88 10.49 73.65 10.49 73.65 28.78 68.88 28.78 68.88 21.25 62.6 21.25 62.6 28.78 57.83 28.78 57.83 10.49"/><path class="cls-2" d="M77.78,24.92h0a1.94,1.94,0,0,1,1.94,1.94h0a1.94,1.94,0,0,1-1.94,1.94h0a1.94,1.94,0,0,1-1.94-1.94h0a1.94,1.94,0,0,1,1.94-1.94"/><path class="cls-2" d="M92.78,17c-.26-1.84-1.69-2.82-3.69-2.82-3.08,0-4.26,2.72-4.26,5.43s1.18,5.43,4.26,5.43a3.4,3.4,0,0,0,3.69-3.38h4.77c-.26,4.71-3.72,7.48-8.36,7.48-5.54,0-9.13-4.23-9.13-9.53s3.59-9.53,9.13-9.53c3.95,0,8.23,2.51,8.36,6.92H92.78"/><polyline class="cls-2" points="123.94 10.49 130.97 10.49 134.13 22.68 134.18 22.68 137.33 10.49 144.36 10.49 144.36 28.78 139.87 28.78 139.87 14.9 139.82 14.9 135.97 28.78 132.33 28.78 128.48 14.9 128.43 14.9 128.43 28.78 123.94 28.78 123.94 10.49"/></svg>