<svg id="Layer_2" data-name="Layer 2" xmlns="http://www.w3.org/2000/svg" width="154.47" height="74.4" viewBox="0 0 154.47 74.4"><defs><style>.cls-1{fill:#bdbdbd;}.cls-2{fill:#fafafa;}</style></defs><title>sakhalin-logo-footer</title><path class="cls-1" d="M74.47,37.27,42.87,5.68l-.52.49-8.28,8.29L34,60l8.33,8.37.56.54,31.56-31.6ZM50.8,44.14c.16.14,1.87,2.1,1,2.35.12,0-2.15-2.75-2.41-3.1-.56-.75-1.67-.63-2.09-1.22-.17,0-2-.43-1.92-.23a1.69,1.69,0,0,0,.95.4c-.83.36-1.81.49-2,1.55-.18.8.08,1.2-.3,2.08a21.84,21.84,0,0,0-1.3,5.27A3.27,3.27,0,0,0,44,54.17c1,.61.73,1.85,1.1,2.77.16.38-.06.88.13,1.06s.77.75.92.42-.64-.28-.7-.58,1,.43,1.09,0c.07-.85.61,1.54.61,1.58.15,1,.44,1.05.1,2,0,.07-.81,2.44-.78,1.37,0-.91,0-3.12-.55-3.77-.06-.07-.84.42-1.18.33s-.76.09-.93,0-.28-.95-.37-.94c-1.13,0-1.44,1.67-1.69,2.5-.14.47-1,3.08-1,3.1-1.08-1-.69-2.51-1.15-3.84-.57-1.64,1.31-3.34.84-5.19a5.69,5.69,0,0,1-.21-2.08c.37-1.46.95-2.16.78-3.72,0-.25-.49-1-.29-1.23.35-.4-.54-.54-.67-.76-.72-1.15.16-1.45.18-2.48,0-1.77.87-3.69.48-5.46-.27-1.17.15-2.29-.41-3.44s.16-2.32.54-3.23c.72-1.72-1-3.23-1.7-4.53-.21-.41-.06-.31,0-.72s-.83-.49-.68-1a15.25,15.25,0,0,0,0-2.1c.17-1.33.5-2.85.77-4.33.18-1-.4-1.69-.32-2.68,0-.4,1.26-2.06,1.83-1.5.14.13-.53,1.53.33,1.12.24-.12,1.15-1.12,1.18-1a2,2,0,0,0-.41-.42.72.72,0,0,0-.1.26c-.14.17-.22-.71-.14-.82.24-.37.6.15.72.15s.26-1,.09-1-.2.92-.5.7.25-.8.29-.89c.3-.7-.23-1-.62-1.48-.1-.12-1.09-1.66-1.07-1.7s1.13.75,1.31.44c0-.08.19-1,.42-1.05s.92,1.48,1.08,1.67c.52.6-.55,1.37-.37,1.9A10.61,10.61,0,0,0,43.43,15c.26.34.18.66.39,1.09l.26.1a2.08,2.08,0,0,0-.16.25c.18.28,1.44,2.05.77,2.57a8.6,8.6,0,0,1-.61-2.27c-1-.2.59,3.22.5,3.39.09-.19-.07-.75.1-.84a6,6,0,0,1,.11,2.06,8.07,8.07,0,0,0-.52,4.18c.09.74.78,1.46.65,2.2-.05.32-.46,1.14.11,1.3s.06-.89.22-.93c.57-.14.4,2.07.21,1.89a4.5,4.5,0,0,1,1.05,2.34c.37,1.49.43,3,.94,4.47a20.29,20.29,0,0,0,1.88,3.95c.72,1,.41,2.49,1.45,3.4ZM40.51,5.49l1.13-1.13L37.28,0,36.15,1.13,38.81,3.8h0l-4.74-.59L32.94,4.35l4.35,4.36,1.13-1.13L35.75,4.91h0l4.74.6ZM36.44,9.57,32.08,5.21,31,6.34,35.3,10.7l1.13-1.13Zm-3.93,2-3.39-3.4L28,9.32l4.35,4.36,2.49-2.49-1-1-1.36,1.36Zm-.64,2.56-6-2.72-1.24,1.24,2.68,6,1.2-1.2-.46-1.06,1.56-1.56,1,.47,1.21-1.21Zm-3.42.17-.94.94-.92-1.86h0l1.85.92Zm-1.59,4.84L22.5,14.8l-1.13,1.13,1.68,1.68-1.63,1.64-1.68-1.68L18.61,18.7,23,23.06l1.13-1.13-1.78-1.79,1.63-1.64,1.78,1.79,1.13-1.13Zm-4.32,4.32-4.18-.4L18,19.28l-1.4,1.4.43,3.17h0l-1.8-1.8L14.12,23.2l4.35,4.36,1.13-1.13-1.89-1.89h0l3.35.43,1.47-1.47ZM18,28l-6-2.72-1.24,1.24,2.68,6,1.2-1.2-.46-1.06,1.56-1.56,1,.47L18,28Zm-3.42.17-.94.94-.92-1.86h0l1.85.92Zm-2.86,3.17a1.72,1.72,0,0,0-2.26-.12l-.38.2c-.25.14-.66.34-.92.09s-.09-.64.12-.85a1.68,1.68,0,0,1,1-.46L8.91,28.9a4.21,4.21,0,0,0-1.72,1,2,2,0,0,0,0,3c.84.84,1.5.56,2.41.05.31-.17.87-.51,1.18-.19a.68.68,0,0,1-.11,1,2.19,2.19,0,0,1-1.45.55l.43,1.4a3.8,3.8,0,0,0,2-1A2.7,2.7,0,0,0,12.45,33a2.09,2.09,0,0,0-.72-1.62Zm-4,9.12a3,3,0,0,0-.95,2.35,3.43,3.43,0,0,0,1,2.28,4.55,4.55,0,0,0,1.2.8l1.36-1.36A1.84,1.84,0,0,1,8.91,44a1.6,1.6,0,0,1,0-2.36,1.62,1.62,0,0,1,2.37,0,1.74,1.74,0,0,1,.51,1.47l1.36-1.36a3.76,3.76,0,0,0-.81-1.25,3.33,3.33,0,0,0-2.36-1,3.22,3.22,0,0,0-2.23,1Zm7.65,3.29-6,2.68,1.2,1.2,1.06-.46,1.56,1.56-.47,1L13.91,51h0L15,52.14l2.42-.42-.51,2.34,1.36,1.37L19,51.47l3.42-.64L21,49.44l-1.79.46.46-1.79-1.39-1.39-.63,3.42L14,50.71,16.62,45l-1.24-1.24Zm-.73,2-.92,1.85-.94-.94,1.85-.92Zm9.67,7-6,2.68,1.2,1.2,1.06-.46,1.56,1.56-.47,1L22.86,60l2.71-6-1.24-1.24Zm-.73,2-.92,1.85-.94-.94,1.85-.92ZM24,59.29l-.9.9.29.3c1.21,1.21,2.12.88,3.18-.17l1.78-1.79,1.16,1.16L26,63.14l1.13,1.13,4.35-4.36-3.42-3.43L25.4,59.17c-.53.53-.89.67-1.4.16l0,0Zm8.76,1.84-4.35,4.36,1,1,4.31-.7-2.51,2.51,1.13,1.13L36.62,65l-1-1-4.21.6,2.4-2.4-1.13-1.13Zm5,5L33.37,70.5l1.13,1.13,1.78-1.79,1.63,1.64-1.78,1.79,1.13,1.13L41.62,70l-1.13-1.13-1.68,1.68L37.17,69l1.68-1.68-1.13-1.13Z"/><path class="cls-1" d="M32.29,16.2,19,29.47v5.08l7.08-7L26,51.94l6.22,6.27,0-42ZM4.4,41.73l4.4-4.4-4.4-4.4L0,37.33l4.4,4.4Z"/><path class="cls-2" d="M154.47,37.27,122.87,5.68l-.52.49-8.28,8.29L114,60l8.33,8.37.56.54,31.56-31.6ZM130.8,44.14c.16.14,1.87,2.1,1,2.35.12,0-2.15-2.75-2.41-3.1-.56-.75-1.67-.63-2.09-1.22-.17,0-2-.43-1.92-.23a1.69,1.69,0,0,0,.95.4c-.83.36-1.81.49-2,1.55-.18.8.08,1.2-.3,2.08a21.84,21.84,0,0,0-1.3,5.27,3.27,3.27,0,0,0,1.4,2.94c1,.61.73,1.85,1.1,2.77.16.38-.06.88.13,1.06s.77.75.92.42-.64-.28-.7-.58,1,.43,1.09,0c.07-.85.61,1.54.61,1.58.15,1,.44,1.05.1,2,0,.07-.81,2.44-.78,1.37,0-.91,0-3.12-.55-3.77-.06-.07-.84.42-1.18.33s-.76.09-.93,0-.28-.95-.37-.94c-1.13,0-1.44,1.67-1.69,2.5-.14.47-1,3.08-1,3.1-1.08-1-.69-2.51-1.15-3.84-.57-1.64,1.31-3.34.84-5.19a5.69,5.69,0,0,1-.21-2.08c.37-1.46.95-2.16.78-3.72,0-.25-.49-1-.29-1.23.35-.4-.54-.54-.67-.76-.72-1.15.16-1.45.18-2.48,0-1.77.87-3.69.48-5.46-.27-1.17.15-2.29-.41-3.44s.16-2.32.54-3.23c.72-1.72-1-3.23-1.7-4.53-.21-.41-.06-.31,0-.72s-.83-.49-.68-1a15.25,15.25,0,0,0,0-2.1c.17-1.33.5-2.85.77-4.33.18-1-.4-1.69-.32-2.68,0-.4,1.26-2.06,1.83-1.5.14.13-.53,1.53.33,1.12.24-.12,1.15-1.12,1.18-1a2,2,0,0,0-.41-.42.72.72,0,0,0-.1.26c-.14.17-.22-.71-.14-.82.24-.37.6.15.72.15s.26-1,.09-1-.2.92-.5.7.25-.8.29-.89c.3-.7-.23-1-.62-1.48-.1-.12-1.09-1.66-1.07-1.7s1.13.75,1.31.44c0-.08.19-1,.42-1.05s.92,1.48,1.08,1.67c.52.6-.55,1.37-.37,1.9a10.61,10.61,0,0,0,.46,1.61c.26.34.18.66.39,1.09l.26.1a2.08,2.08,0,0,0-.16.25c.18.28,1.44,2.05.77,2.57a8.6,8.6,0,0,1-.61-2.27c-1-.2.59,3.22.5,3.39.09-.19-.07-.75.1-.84a6,6,0,0,1,.11,2.06,8.07,8.07,0,0,0-.52,4.18c.09.74.78,1.46.65,2.2-.05.32-.46,1.14.11,1.3s.06-.89.22-.93c.57-.14.4,2.07.21,1.89a4.5,4.5,0,0,1,1.05,2.34c.37,1.49.43,3,.94,4.47a20.29,20.29,0,0,0,1.88,3.95c.72,1,.41,2.49,1.45,3.4ZM120.51,5.49l1.13-1.13L117.28,0l-1.13,1.13,2.66,2.67h0l-4.74-.59-1.13,1.13,4.35,4.36,1.13-1.13-2.67-2.67h0l4.74.6Zm-4.07,4.07-4.35-4.36L111,6.34l4.35,4.36,1.13-1.13Zm-3.93,2-3.39-3.4L108,9.32l4.35,4.36,2.49-2.49-1-1-1.36,1.36Zm-.64,2.56-6-2.72-1.24,1.24,2.68,6,1.2-1.2-.46-1.06,1.56-1.56,1,.47,1.21-1.21Zm-3.42.17-.94.94-.92-1.86h0l1.85.92Zm-1.59,4.84L102.5,14.8l-1.13,1.13,1.68,1.68-1.63,1.64-1.68-1.68L98.61,18.7,103,23.06l1.13-1.13-1.78-1.79,1.63-1.64,1.78,1.79,1.13-1.13Zm-4.32,4.32-4.18-.4L98,19.28l-1.4,1.4.43,3.17h0l-1.8-1.8L94.12,23.2l4.35,4.36,1.13-1.13-1.89-1.89h0l3.35.43,1.47-1.47ZM98,28l-6-2.72-1.24,1.24,2.68,6,1.2-1.2-.46-1.06,1.56-1.56,1,.47L98,28Zm-3.42.17-.94.94-.92-1.86h0l1.85.92Zm-2.86,3.17a1.72,1.72,0,0,0-2.26-.12l-.38.2c-.25.14-.66.34-.92.09s-.09-.64.12-.85a1.68,1.68,0,0,1,1-.46l-.43-1.33a4.21,4.21,0,0,0-1.72,1,2,2,0,0,0,0,3c.84.84,1.5.56,2.41.05.31-.17.87-.51,1.18-.19a.68.68,0,0,1-.11,1,2.19,2.19,0,0,1-1.45.55l.43,1.4a3.8,3.8,0,0,0,2-1A2.7,2.7,0,0,0,92.45,33a2.09,2.09,0,0,0-.72-1.62Zm-4,9.12a3,3,0,0,0-.95,2.35,3.43,3.43,0,0,0,1,2.28,4.55,4.55,0,0,0,1.2.8l1.36-1.36A1.84,1.84,0,0,1,88.91,44a1.6,1.6,0,0,1,0-2.36,1.62,1.62,0,0,1,2.37,0,1.74,1.74,0,0,1,.51,1.47l1.36-1.36a3.76,3.76,0,0,0-.81-1.25,3.33,3.33,0,0,0-2.36-1,3.22,3.22,0,0,0-2.23,1Zm7.65,3.29-6,2.68,1.2,1.2,1.06-.46,1.56,1.56-.47,1L93.91,51h0L95,52.14l2.42-.42-.51,2.34,1.36,1.37L99,51.47l3.42-.64L101,49.44l-1.79.46.46-1.79-1.39-1.39-.63,3.42L94,50.71,96.62,45l-1.24-1.24Zm-.73,2-.92,1.85-.94-.94,1.85-.92Zm9.67,7-6,2.68,1.2,1.2,1.06-.46,1.56,1.56-.47,1L102.86,60l2.71-6-1.24-1.24Zm-.73,2-.92,1.85-.94-.94,1.85-.92Zm.35,4.59-.9.9.29.3c1.21,1.21,2.12.88,3.18-.17l1.78-1.79,1.16,1.16L106,63.14l1.13,1.13,4.35-4.36-3.42-3.43-2.68,2.68c-.53.53-.89.67-1.4.16l0,0Zm8.76,1.84-4.35,4.36,1,1,4.31-.7-2.51,2.51,1.13,1.13L116.62,65l-1-1-4.21.6,2.4-2.4-1.13-1.13Zm5,5-4.35,4.36,1.13,1.13,1.78-1.79,1.63,1.64-1.78,1.79,1.13,1.13L121.62,70l-1.13-1.13-1.68,1.68L117.17,69l1.68-1.68-1.13-1.13Z"/><path class="cls-2" d="M112.29,16.2,99,29.47v5.08l7.08-7L106,51.94l6.22,6.27,0-42ZM84.4,41.73l4.4-4.4-4.4-4.4L80,37.33l4.4,4.4Z"/></svg>