<svg width="98" height="37" viewBox="0 0 98 37" fill="none" xmlns="http://www.w3.org/2000/svg">
<path fill-rule="evenodd" clip-rule="evenodd" d="M91.6085 0.886383C94.8348 0.886383 97.3993 3.45087 97.3993 6.67716C97.3993 9.90345 94.8348 12.4679 91.6085 12.4679C88.3822 12.4679 85.8177 9.90345 85.8177 6.67716C85.8177 3.45087 88.3822 0.886383 91.6085 0.886383Z" fill="#FFA145"/>
<path fill-rule="evenodd" clip-rule="evenodd" d="M80.836 16.2329C77.8716 14.7506 74.9945 14.053 72.3789 14.053C71.0711 14.053 70.0249 14.2274 69.3274 14.6634C68.6299 15.0993 68.2812 15.7097 68.2812 16.4073C68.2812 16.7561 68.3684 17.1049 68.5427 17.3664C68.7171 17.628 69.0658 17.8024 69.5018 17.9768C69.9377 18.1512 70.3736 18.2384 70.8096 18.3256C71.2455 18.4128 71.7686 18.5 72.5533 18.5872L74.9073 18.936C80.9231 19.8951 83.8875 22.511 83.8875 26.8708C83.8875 29.6611 82.8412 31.841 80.6616 33.4977C78.4819 35.1544 75.5176 35.9392 71.6814 35.9392C66.799 35.9392 62.7884 34.8929 59.8241 32.8002L62.6141 27.394C65.2297 29.1379 68.194 30.0099 71.6814 30.0099C74.9945 30.0099 76.5639 29.1379 76.5639 27.4812C76.5639 26.8708 76.2151 26.3476 75.5176 25.9117C74.8201 25.5629 73.6867 25.2141 72.1173 25.0397L69.9377 24.7781C63.8347 23.9062 60.696 21.2031 60.696 16.6689C60.696 13.9658 61.655 11.7859 63.6603 10.3036C65.6656 8.73403 68.3684 8.03646 71.943 8.03646C76.0407 8.03646 79.7025 8.90842 83.1028 10.5651L80.836 16.2329ZM43.2588 14.7506C41.1663 14.7506 39.5098 15.4481 38.2892 16.8433C37.0686 18.2384 36.3711 19.9823 36.3711 22.075C36.3711 24.1677 36.9814 25.9117 38.2892 27.3068C39.5098 28.7019 41.1663 29.3995 43.2588 29.3995C45.2641 29.3995 46.9206 28.7019 48.2284 27.3068C49.5362 25.9117 50.1465 24.1677 50.1465 22.075C50.1465 19.9823 49.5362 18.2384 48.2284 16.8433C46.9206 15.4481 45.2641 14.7506 43.2588 14.7506ZM41.951 8.03646C45.1769 8.03646 47.7924 9.17001 49.7977 11.5243V0.886383H56.947V35.416H49.9721V32.4514C48.054 34.8929 45.3512 36.1136 42.0382 36.1136C38.3764 36.1136 35.3248 34.8057 32.7964 32.1026C30.3552 29.3995 29.1346 26.0861 29.1346 22.075C29.1346 18.064 30.3552 14.7506 32.7964 12.0475C35.1505 9.4316 38.2892 8.03646 41.951 8.03646ZM25.0369 29.4867C24.3394 31.0562 23.4675 32.3642 22.2469 33.2361C21.0263 34.1953 19.7185 34.8929 18.2364 35.3288C16.7542 35.7648 15.1849 36.0264 13.4411 36.0264C12.0462 36.0264 10.8256 35.852 9.60496 35.5904C8.38435 35.3288 7.25093 34.8057 6.11752 34.1953C5.07128 33.6721 4.19942 32.8873 3.41475 31.9282C2.63007 30.969 2.01977 29.8355 1.58384 28.5275C1.14791 27.2196 0.886353 25.6501 0.886353 24.0805V8.82123H8.03561V23.4702C8.03561 25.4757 8.55872 27.0452 9.51777 28.0044C10.4768 28.9635 11.7846 29.4867 13.4411 29.4867C15.0977 29.4867 16.4055 28.9635 17.3645 28.0044C18.3236 27.0452 18.8467 25.4757 18.8467 23.4702V8.82123H25.9959V24.0805C25.9797 26.4623 25.2647 28.9741 25.0369 29.4867Z" fill="#2A2D32"/>
<path d="M22.2469 33.2361C23.4675 32.3642 24.3394 31.0562 25.0369 29.4867C25.2647 28.9741 25.9797 26.4623 25.9959 24.0805V8.82123H18.8467V23.4702C18.8467 25.4757 18.3236 27.0452 17.3645 28.0044C16.4055 28.9635 15.0977 29.4867 13.4411 29.4867C11.7846 29.4867 10.4768 28.9635 9.51777 28.0044C8.55872 27.0452 8.03561 25.4757 8.03561 23.4702V8.82123H0.886353V24.0805C0.886353 25.6501 1.14791 27.2196 1.58384 28.5275C2.01977 29.8355 2.63007 30.969 3.41475 31.9282C4.19942 32.8873 5.07128 33.6721 6.11752 34.1953C7.25093 34.8057 8.38435 35.3288 9.60496 35.5904C10.8256 35.852 12.0462 36.0264 13.4411 36.0264C15.1849 36.0264 16.7542 35.7648 18.2364 35.3288C19.7185 34.8929 21.0263 34.1953 22.2469 33.2361Z" fill="#2A2D32"/>
</svg>
